<svg xmlns="http://www.w3.org/2000/svg" viewBox="0 0 1000 700" preserveAspectRatio="xMidYMid meet" class="us-map">
<g class="states" fill="#e5edf4" stroke="#b7c6d5" stroke-width="1" stroke-linejoin="round">
<path id="US-AL" data-code="AL" data-name="Alabama" d="M633.3,400.0 L660.4,400.3 L663.1,417.5 L666.9,442.8 L668.7,448.4 L670.4,451.6 L669.7,453.5 L671.5,454.7 L668.8,457.3 L668.9,459.8 L667.6,463.2 L669.1,469.2 L668.0,474.5 L669.7,479.9 L662.1,480.0 L629.6,480.0 L629.1,482.7 L632.6,486.5 L632.0,489.8 L633.2,491.4 L630.9,494.4 L628.8,495.1 L624.9,491.8 L624.5,486.8 L623.3,486.3 L621.9,490.0 L621.3,493.6 L617.4,492.6 L616.2,462.1 L619.7,424.1 L621.9,402.2 L620.3,400.1 L633.3,400.0 Z"/>
<path id="US-AK" data-code="AK" data-name="Alaska" d="M204.1,683.1 L204.2,681.7 L205.0,682.5 L204.9,683.9 L203.9,683.7 L204.1,683.1 Z M203.2,680.6 L203.9,681.6 L203.5,683.0 L203.2,682.5 L203.2,680.6 Z M199.1,672.5 L200.0,672.3 L200.3,672.6 L200.2,673.8 L199.4,674.1 L198.8,673.3 L199.1,672.5 Z M196.8,673.2 L198.4,673.5 L198.8,675.0 L200.4,676.7 L200.9,677.8 L201.0,678.6 L201.3,678.8 L201.4,679.9 L202.0,681.1 L202.1,682.1 L202.5,681.8 L202.7,682.6 L202.8,685.7 L202.5,686.4 L201.5,686.3 L201.2,684.7 L200.9,684.8 L200.1,683.6 L199.9,684.0 L199.3,683.6 L199.4,684.8 L200.0,684.5 L200.4,684.9 L200.2,686.6 L199.5,686.4 L198.4,684.3 L198.1,683.3 L198.2,682.2 L197.4,682.3 L197.4,681.4 L198.0,681.3 L198.6,680.6 L198.4,679.3 L197.6,679.0 L197.5,676.9 L197.2,675.9 L196.7,676.6 L196.5,675.4 L197.0,674.9 L196.6,673.5 L196.8,673.2 Z M196.3,679.6 L197.0,680.1 L197.5,679.4 L198.0,679.7 L197.5,680.9 L196.7,680.6 L196.3,679.6 Z M195.7,668.6 L195.2,667.8 L195.8,667.2 L197.8,668.0 L198.6,667.9 L199.3,669.4 L200.4,670.7 L200.3,671.6 L199.7,672.1 L198.9,671.8 L198.3,672.4 L197.5,672.1 L196.6,672.4 L196.4,670.5 L196.5,669.3 L195.8,669.3 L195.7,668.6 Z M195.0,672.1 L194.5,671.5 L193.9,670.2 L193.9,669.2 L194.3,668.7 L194.8,669.2 L194.9,668.4 L196.3,669.8 L196.4,671.2 L195.9,671.4 L195.6,673.0 L196.0,673.4 L195.5,675.3 L195.0,674.9 L194.9,676.0 L194.5,675.4 L194.3,673.2 L195.0,672.1 Z M193.1,673.7 L192.9,674.6 L192.4,674.1 L191.1,670.6 L190.2,669.5 L190.5,668.7 L190.2,666.7 L189.2,665.0 L190.2,663.5 L190.7,664.1 L191.5,664.7 L192.3,664.7 L192.3,666.0 L193.1,670.2 L193.1,673.7 Z M192.8,658.2 L194.0,658.8 L194.7,658.7 L194.7,659.4 L195.7,661.5 L195.0,661.2 L194.8,661.9 L195.6,663.1 L195.8,665.1 L195.1,665.6 L194.8,666.3 L193.6,667.8 L193.2,667.7 L193.0,666.2 L193.3,665.3 L193.2,663.9 L192.7,662.2 L192.8,661.4 L192.5,659.2 L192.0,658.3 L191.9,656.7 L192.8,658.2 Z M188.6,665.4 L189.1,665.4 L189.7,666.8 L189.4,667.8 L188.6,668.0 L188.7,666.5 L188.6,665.4 Z M187.1,658.3 L188.2,658.4 L188.9,657.7 L189.9,658.7 L189.4,659.7 L189.6,660.1 L190.1,658.9 L191.4,659.3 L192.0,660.2 L191.7,661.8 L192.0,661.9 L192.4,664.0 L191.4,664.3 L189.7,662.6 L189.7,664.3 L189.2,665.0 L188.5,664.7 L188.1,663.6 L187.4,662.9 L186.8,661.4 L186.0,660.7 L186.1,659.4 L186.6,659.0 L186.7,657.9 L187.1,658.3 Z M147.9,642.4 L146.3,644.4 L146.2,645.2 L145.0,645.7 L145.2,644.5 L146.6,643.2 L147.4,641.8 L147.9,642.4 Z M146.1,639.4 L145.9,641.0 L145.4,642.7 L144.7,642.2 L145.3,640.2 L146.1,639.4 Z M145.3,562.0 L145.7,562.4 L147.6,562.7 L148.6,562.5 L149.9,562.5 L151.4,562.8 L152.3,562.7 L153.2,563.3 L154.7,564.1 L156.8,564.2 L157.4,563.8 L158.8,563.5 L159.4,563.0 L160.9,562.9 L160.9,563.3 L161.8,563.0 L163.6,563.7 L164.9,564.7 L166.0,565.1 L166.3,565.6 L167.4,565.7 L168.4,566.4 L168.6,566.9 L169.2,566.5 L169.9,566.8 L169.9,641.6 L171.6,642.2 L171.9,641.5 L173.6,642.5 L174.7,641.3 L176.9,641.1 L176.5,643.3 L177.1,644.0 L178.3,644.7 L178.6,645.9 L182.3,650.1 L182.9,652.7 L183.5,652.0 L185.1,650.7 L186.0,650.7 L186.4,649.7 L186.4,648.3 L187.0,648.3 L187.2,647.0 L188.3,646.7 L190.0,645.6 L191.7,647.5 L191.5,648.6 L191.9,649.8 L192.8,650.0 L194.0,651.7 L193.9,652.2 L194.5,653.1 L195.9,654.2 L198.4,658.8 L198.7,660.0 L199.5,661.2 L200.6,664.0 L201.7,666.3 L201.3,667.2 L202.5,667.6 L202.2,669.0 L203.1,669.6 L203.2,671.2 L204.2,671.1 L206.0,672.8 L207.1,673.1 L207.6,673.9 L208.2,674.1 L208.4,674.9 L209.5,675.1 L209.9,676.0 L209.4,677.8 L209.4,679.3 L210.0,681.8 L209.6,682.4 L208.7,684.6 L207.4,686.3 L207.0,685.4 L206.6,685.7 L206.2,684.0 L206.3,683.3 L205.9,682.5 L206.8,681.6 L206.5,681.3 L205.7,682.4 L205.2,681.7 L204.7,682.1 L203.2,680.3 L203.7,678.4 L202.8,679.1 L202.7,680.0 L202.0,679.3 L201.8,678.4 L202.3,677.4 L202.2,676.4 L201.5,677.2 L200.7,675.4 L200.3,675.7 L200.0,674.2 L200.7,673.3 L201.4,673.3 L201.2,672.1 L201.6,670.6 L201.0,670.6 L199.8,669.3 L199.0,667.7 L197.1,666.6 L197.2,663.4 L196.5,663.0 L196.7,661.7 L196.0,661.3 L195.1,659.6 L194.9,658.7 L193.2,658.3 L191.5,656.0 L190.7,650.5 L190.4,651.7 L190.5,652.9 L191.2,655.1 L191.1,655.4 L191.5,657.2 L191.4,658.4 L190.7,658.1 L190.2,656.8 L189.4,656.6 L188.4,656.9 L188.4,655.1 L187.8,653.5 L187.2,654.0 L184.9,652.3 L184.7,652.8 L186.0,653.3 L187.0,654.6 L187.3,654.7 L187.5,655.7 L188.0,656.9 L186.7,657.6 L186.0,657.2 L185.9,658.3 L185.0,657.5 L184.7,656.9 L184.1,656.9 L182.4,655.3 L181.2,653.9 L181.1,653.0 L180.4,651.8 L178.5,650.9 L177.5,650.0 L175.7,649.0 L174.5,648.0 L174.6,646.9 L174.9,647.2 L175.3,646.5 L174.9,644.9 L175.4,644.1 L175.2,643.7 L174.3,645.3 L172.4,646.4 L170.2,646.0 L168.3,645.0 L168.3,644.2 L167.4,644.4 L166.4,643.8 L164.4,643.3 L163.1,643.3 L160.4,643.7 L159.4,644.0 L158.2,642.9 L156.7,642.4 L156.2,641.7 L156.0,640.5 L155.0,640.6 L154.6,641.6 L152.7,640.2 L152.4,639.6 L150.5,640.7 L149.6,642.1 L149.2,640.8 L149.6,640.1 L150.1,640.3 L152.0,639.4 L151.7,638.7 L150.9,639.0 L150.5,638.1 L149.7,638.0 L148.9,635.6 L148.6,636.2 L147.5,636.5 L147.2,636.2 L146.8,637.0 L145.4,636.7 L145.3,637.5 L144.4,637.8 L144.0,637.4 L144.3,636.0 L143.9,636.0 L143.3,637.6 L144.1,638.1 L144.2,639.2 L144.7,640.5 L144.4,641.8 L143.7,641.3 L143.5,642.0 L144.2,642.3 L144.6,644.0 L143.6,644.4 L143.1,644.0 L142.2,644.5 L141.8,644.1 L140.6,644.1 L140.7,643.5 L140.2,643.9 L139.9,644.8 L139.4,644.0 L138.8,645.1 L139.0,645.6 L138.2,646.2 L137.4,646.3 L137.1,647.1 L136.3,647.8 L135.8,647.6 L135.2,648.4 L134.7,648.4 L133.6,650.2 L132.5,650.3 L132.2,649.8 L131.5,650.7 L130.1,650.0 L130.4,648.6 L131.3,648.1 L131.9,648.2 L132.1,647.7 L133.2,646.6 L133.2,645.8 L131.8,647.0 L130.6,646.3 L130.5,645.8 L131.1,643.8 L132.1,642.3 L132.3,641.1 L132.6,640.9 L132.7,639.6 L132.2,638.2 L133.4,637.7 L135.8,635.7 L136.4,636.5 L137.1,636.7 L138.2,635.9 L137.0,634.8 L136.5,633.9 L135.6,634.0 L134.9,633.6 L134.7,634.0 L133.5,634.6 L133.0,635.6 L131.9,635.9 L130.7,637.2 L130.6,638.0 L129.7,638.5 L129.5,639.4 L128.9,639.9 L128.6,641.6 L127.3,642.6 L127.9,643.4 L127.4,644.7 L126.3,644.9 L126.2,646.5 L125.1,647.0 L124.8,646.4 L124.2,647.6 L123.6,647.7 L123.7,648.5 L122.3,649.1 L122.0,651.5 L123.6,651.6 L124.9,652.3 L125.3,653.0 L124.8,654.3 L123.9,655.1 L123.1,655.1 L123.0,655.8 L122.5,656.1 L122.7,657.0 L122.2,658.3 L121.1,659.5 L120.4,659.5 L119.8,660.0 L119.1,659.9 L118.7,660.4 L118.8,661.0 L117.9,661.4 L117.7,662.3 L117.1,661.7 L116.4,663.6 L115.3,663.5 L115.4,664.5 L114.7,664.2 L114.2,664.7 L114.2,666.0 L113.5,668.1 L112.3,668.4 L111.3,669.3 L111.1,669.9 L110.5,669.1 L109.4,671.1 L109.1,670.6 L108.5,670.7 L108.4,671.9 L107.7,672.3 L107.0,672.1 L106.4,673.3 L107.4,673.6 L106.4,676.2 L103.2,677.0 L102.3,679.2 L102.1,678.8 L102.2,677.4 L101.6,677.1 L100.8,677.7 L100.7,678.2 L99.5,679.2 L99.0,680.2 L98.8,679.5 L98.5,680.3 L97.8,679.8 L96.5,681.1 L95.5,681.1 L95.6,680.0 L95.2,679.0 L94.8,679.9 L94.8,680.7 L93.5,683.4 L93.0,682.7 L92.9,683.8 L92.0,683.6 L91.8,682.0 L91.3,681.7 L91.1,682.2 L91.6,682.9 L91.3,684.0 L90.6,684.6 L90.0,683.4 L89.4,683.3 L89.2,683.8 L89.9,684.5 L88.7,685.6 L89.5,685.9 L89.5,686.4 L88.9,686.0 L87.9,687.1 L86.1,687.0 L85.2,687.7 L85.1,688.3 L84.1,688.9 L83.3,688.7 L83.1,687.2 L83.8,686.7 L84.4,684.9 L85.2,684.9 L86.8,683.7 L88.1,683.6 L88.6,684.8 L89.0,683.9 L88.9,683.0 L89.7,682.5 L90.5,682.5 L91.6,680.4 L92.8,678.5 L94.4,676.9 L96.3,676.1 L97.0,676.5 L97.8,676.0 L98.0,676.7 L97.6,677.5 L98.0,678.1 L98.2,677.1 L99.1,677.1 L99.4,677.7 L99.9,677.9 L100.0,677.1 L99.0,676.5 L98.9,676.0 L99.6,674.0 L100.4,672.8 L101.6,671.7 L103.4,670.7 L104.7,669.2 L105.4,669.7 L105.9,669.5 L105.7,668.6 L105.8,667.7 L106.8,665.9 L108.2,664.7 L109.3,663.1 L109.3,662.2 L110.2,656.0 L111.6,654.4 L111.4,653.0 L108.1,654.9 L107.0,654.7 L106.8,653.9 L106.2,653.6 L106.0,652.7 L105.4,653.1 L105.1,654.4 L105.7,656.2 L105.0,656.9 L104.3,656.6 L103.2,653.9 L102.3,652.6 L101.9,652.6 L101.6,653.6 L101.3,653.7 L100.7,652.9 L100.1,652.8 L99.8,651.4 L97.8,653.0 L96.1,654.1 L96.0,654.7 L94.6,655.6 L93.9,654.8 L94.5,653.8 L94.3,651.5 L93.8,649.1 L94.8,648.1 L94.0,646.1 L93.3,644.9 L92.8,643.3 L92.1,642.6 L91.9,644.0 L90.9,644.3 L89.4,645.2 L87.6,645.6 L86.7,645.6 L85.8,645.1 L85.7,643.8 L85.0,643.4 L83.9,641.7 L82.9,641.3 L81.8,639.4 L82.6,638.5 L82.7,636.9 L82.1,637.2 L82.1,636.2 L82.3,635.4 L81.6,634.6 L81.5,635.4 L80.6,635.1 L80.5,633.8 L79.8,633.6 L79.4,632.7 L79.5,631.5 L78.8,632.1 L78.6,631.0 L79.5,630.7 L78.8,629.5 L80.0,629.4 L80.0,627.9 L80.3,626.9 L82.6,623.7 L83.1,622.7 L83.4,622.9 L83.2,621.5 L84.1,619.2 L84.9,618.3 L86.3,617.9 L87.4,618.3 L88.9,619.7 L89.9,619.5 L91.3,618.2 L92.7,616.1 L93.4,615.9 L93.6,616.4 L95.3,616.4 L96.8,616.0 L98.2,613.8 L98.2,613.3 L97.5,611.3 L97.4,610.1 L96.3,608.8 L96.0,607.7 L97.0,608.0 L98.0,607.1 L98.1,606.2 L96.8,604.6 L95.8,605.9 L94.9,605.7 L94.0,606.4 L93.1,606.6 L92.8,607.0 L91.7,607.7 L91.4,608.9 L90.8,609.4 L90.6,608.0 L89.9,607.7 L89.4,608.8 L89.1,608.3 L87.9,607.5 L85.3,607.5 L83.5,608.4 L82.8,608.5 L81.3,608.0 L78.5,607.4 L77.7,606.9 L77.4,606.1 L77.7,605.0 L76.6,604.1 L76.8,603.1 L77.5,602.6 L77.3,601.3 L76.3,601.3 L75.4,600.9 L73.8,600.7 L72.9,600.0 L71.6,599.4 L71.5,598.5 L73.6,597.4 L76.1,595.6 L77.9,594.5 L79.0,595.1 L80.0,595.2 L80.3,594.4 L79.6,594.2 L79.6,593.5 L82.1,592.3 L85.0,591.4 L86.5,591.3 L87.3,591.6 L86.9,592.9 L87.0,593.8 L86.7,594.5 L87.3,595.5 L88.3,595.3 L89.5,595.5 L91.0,595.3 L91.4,595.7 L92.3,595.8 L93.2,595.4 L94.3,595.8 L95.3,594.1 L96.1,594.0 L96.6,594.3 L96.8,593.3 L95.4,592.8 L94.0,593.2 L94.1,591.9 L93.0,590.5 L91.9,590.1 L91.5,588.8 L92.4,588.5 L93.6,589.8 L93.4,590.8 L94.0,591.6 L95.2,592.5 L95.5,591.5 L94.1,590.3 L94.7,588.0 L94.2,587.6 L92.8,588.1 L91.4,587.9 L91.1,587.5 L90.4,587.9 L87.4,587.0 L87.3,586.0 L86.4,583.7 L85.6,582.9 L84.5,582.2 L82.1,580.3 L81.0,579.5 L79.9,579.3 L78.3,578.0 L76.7,577.3 L76.6,577.0 L77.8,576.6 L78.3,575.4 L78.4,572.9 L81.6,573.1 L85.5,572.6 L86.5,572.1 L88.1,570.9 L89.6,569.0 L90.0,567.1 L90.6,565.5 L92.0,564.1 L92.6,563.1 L94.2,561.5 L94.5,562.0 L95.9,562.1 L97.9,561.2 L99.2,560.4 L102.2,557.7 L103.4,557.5 L103.5,557.9 L104.7,557.6 L105.8,557.7 L108.1,557.3 L110.3,556.2 L112.5,553.7 L113.4,553.2 L113.6,553.6 L117.0,554.6 L117.3,555.3 L116.1,556.3 L115.5,556.3 L115.6,557.5 L117.3,557.1 L117.4,556.5 L118.2,555.9 L118.4,556.2 L119.0,554.8 L120.7,556.1 L120.4,557.0 L121.5,557.3 L122.1,557.9 L123.0,557.0 L124.6,556.9 L125.5,556.6 L127.9,556.9 L129.1,557.3 L128.5,559.1 L130.7,559.6 L130.8,560.1 L133.0,560.9 L133.0,560.5 L134.5,560.0 L136.0,560.1 L136.0,560.5 L136.8,560.5 L137.7,559.9 L139.2,559.8 L140.3,560.1 L141.7,560.8 L142.3,560.6 L143.3,561.6 L143.8,561.2 L144.7,561.5 L145.3,562.0 Z M126.6,659.8 L126.6,660.1 L125.3,659.6 L126.2,657.6 L127.0,657.4 L127.6,655.5 L128.2,657.2 L128.7,656.6 L129.7,657.5 L129.7,658.8 L128.3,659.0 L127.6,659.5 L126.6,659.8 Z M122.9,663.7 L123.9,662.6 L123.0,662.4 L123.0,661.5 L123.7,660.9 L124.3,661.3 L124.4,662.2 L124.7,661.6 L124.7,660.3 L125.4,660.9 L125.5,660.0 L126.1,660.5 L126.8,660.5 L127.4,660.1 L128.3,660.9 L128.3,663.2 L129.4,663.0 L128.7,664.6 L127.3,664.0 L127.8,665.0 L127.4,665.8 L126.7,665.4 L126.7,667.0 L125.6,667.4 L125.2,668.1 L124.6,667.5 L123.8,669.1 L123.3,669.3 L122.7,670.0 L122.5,668.2 L121.6,669.2 L121.6,668.6 L120.8,668.1 L120.8,666.5 L120.0,665.8 L120.5,663.9 L121.9,662.7 L122.8,662.8 L122.9,663.7 Z M120.8,671.2 L120.0,672.8 L119.8,672.5 L120.8,671.2 Z M116.8,676.6 L117.4,676.7 L117.2,678.4 L116.2,678.1 L116.1,677.6 L116.8,676.6 Z M101.3,681.7 L101.1,683.5 L100.0,684.9 L100.5,682.7 L100.9,682.9 L101.3,681.7 Z M99.1,681.1 L99.7,681.1 L99.7,682.0 L99.0,683.0 L98.4,682.3 L98.1,682.9 L97.8,681.4 L98.0,681.0 L99.1,681.1 Z M92.7,684.2 L92.8,684.9 L92.4,685.3 L92.1,684.5 L92.7,684.2 Z M92.2,614.9 L91.6,615.7 L91.5,615.0 L92.2,614.9 Z M90.8,688.1 L91.5,688.4 L91.5,689.1 L90.8,689.0 L90.8,688.1 Z M80.8,689.6 L81.1,690.5 L80.5,690.9 L80.3,690.0 L80.8,689.6 Z M80.1,690.8 L79.0,691.6 L78.7,691.0 L79.2,690.2 L80.1,690.8 Z M77.8,641.1 L78.7,640.8 L78.8,641.4 L79.6,641.3 L80.3,641.8 L80.4,644.1 L80.1,644.8 L79.1,645.2 L78.9,646.0 L77.6,645.2 L76.9,645.2 L75.5,644.1 L75.1,644.1 L74.3,643.4 L74.0,642.4 L74.4,642.1 L75.7,642.4 L76.4,641.5 L77.1,641.4 L77.4,640.9 L77.8,641.1 Z M77.8,691.9 L78.4,692.5 L77.2,694.0 L77.2,694.3 L78.7,693.2 L78.7,693.8 L78.1,694.5 L77.1,695.0 L77.0,695.8 L76.0,696.6 L75.0,696.6 L74.4,697.3 L73.3,698.0 L72.6,697.3 L73.9,696.5 L74.2,696.6 L75.1,695.9 L74.9,695.1 L75.4,694.3 L76.2,694.7 L76.3,694.1 L75.5,694.0 L75.0,693.4 L75.4,692.4 L76.8,691.9 L77.1,693.0 L77.8,691.9 Z M69.0,698.7 L70.4,697.2 L70.5,696.6 L71.0,695.8 L71.9,695.5 L72.3,695.9 L72.5,696.9 L70.9,698.0 L70.1,699.7 L69.4,700.3 L69.0,698.7 Z M65.5,700.8 L65.7,701.6 L64.8,701.7 L64.7,701.2 L65.5,700.8 Z M64.1,666.2 L63.6,667.0 L63.5,666.2 L64.1,666.2 Z M62.2,702.4 L62.4,703.2 L61.8,703.7 L61.7,702.9 L62.2,702.4 Z M58.3,614.3 L61.2,615.4 L62.9,614.4 L63.6,614.5 L64.3,615.1 L64.5,616.1 L65.9,616.6 L66.4,617.1 L68.3,617.3 L69.4,617.6 L68.8,618.8 L67.9,618.6 L66.9,618.8 L66.4,619.3 L65.9,620.5 L65.2,619.4 L64.4,618.6 L63.7,618.6 L63.3,617.7 L61.5,616.7 L60.6,616.6 L59.3,617.6 L58.3,617.1 L57.9,616.1 L58.3,614.3 Z M55.8,704.9 L55.8,705.8 L55.2,706.0 L55.3,705.2 L55.8,704.9 Z M51.5,706.8 L51.9,707.2 L53.3,707.1 L53.3,707.4 L51.7,707.8 L51.5,706.8 Z M48.9,705.8 L48.9,705.0 L49.4,704.7 L50.2,705.4 L49.9,706.2 L49.4,706.1 L49.6,707.0 L48.9,707.1 L47.4,707.9 L46.6,707.7 L46.8,707.1 L47.7,707.2 L48.9,705.8 Z M41.1,709.2 L41.8,709.0 L41.8,710.0 L41.0,709.9 L39.9,711.1 L39.5,709.5 L40.0,709.5 L40.0,708.3 L40.6,708.3 L40.6,709.1 L41.1,709.2 Z M38.6,708.4 L39.0,708.8 L38.8,710.2 L38.2,710.6 L38.2,709.7 L38.6,708.4 Z M35.1,708.6 L35.7,708.7 L36.3,709.7 L35.7,710.8 L35.1,708.6 Z M3.3,700.1 L3.9,700.6 L4.0,701.4 L2.5,701.9 L1.6,700.6 L1.6,700.0 L3.3,700.1 Z"/>
<path id="US-AZ" data-code="AZ" data-name="Arizona" d="M298.7,360.0 L298.6,473.4 L267.4,473.4 L249.3,465.9 L209.6,450.1 L211.1,445.7 L214.1,444.9 L215.0,443.1 L214.1,439.4 L212.0,439.3 L211.0,431.9 L214.1,429.0 L214.5,426.0 L213.9,421.3 L215.8,417.8 L218.3,416.5 L220.1,413.9 L217.1,411.0 L215.0,405.8 L212.4,402.5 L212.4,400.0 L213.4,397.2 L213.0,393.5 L211.7,389.7 L210.8,378.0 L216.5,377.2 L218.3,379.6 L219.9,379.5 L221.5,376.1 L221.5,360.0 L276.2,359.9 L298.7,360.0 Z"/>
<path id="US-AR" data-code="AR" data-name="Arkansas" d="M523.6,370.0 L590.2,370.1 L591.6,373.9 L589.2,376.3 L586.8,380.0 L596.7,380.0 L596.2,383.8 L594.0,384.9 L593.5,387.9 L590.6,391.2 L590.8,396.0 L589.3,399.5 L587.8,400.1 L588.7,401.8 L586.3,403.4 L585.2,406.8 L583.6,407.6 L583.8,411.6 L581.0,412.7 L581.1,414.0 L577.9,417.3 L578.8,419.5 L576.0,422.7 L573.6,428.8 L576.3,431.4 L574.9,433.1 L575.8,437.2 L574.6,440.0 L536.9,439.6 L530.2,439.6 L530.2,429.0 L528.0,428.1 L525.0,429.1 L523.4,427.3 L524.2,392.1 L521.4,370.0 L523.6,370.0 Z"/>
<path id="US-CA" data-code="CA" data-name="California" d="M79.7,259.9 L92.9,259.8 L113.6,260.1 L129.6,260.1 L129.7,294.7 L129.6,320.0 L149.5,338.0 L168.2,355.6 L183.0,370.0 L193.7,380.6 L212.4,400.0 L212.4,402.5 L215.0,405.8 L217.1,411.0 L220.1,413.9 L218.3,416.5 L215.8,417.8 L213.9,421.3 L214.5,426.0 L214.1,429.0 L211.0,431.9 L212.0,439.3 L214.1,439.4 L215.0,443.1 L214.1,444.9 L211.1,445.7 L190.6,447.5 L174.0,449.3 L172.1,446.6 L172.0,442.5 L170.8,437.5 L168.6,434.0 L163.8,429.2 L157.7,424.7 L156.5,425.9 L154.1,425.2 L154.4,423.2 L151.7,419.1 L148.1,420.0 L141.7,417.1 L140.7,414.7 L136.4,411.7 L131.5,411.8 L127.5,410.5 L122.3,411.0 L119.6,408.4 L120.2,402.8 L119.3,401.9 L119.9,398.0 L115.8,395.0 L115.6,391.0 L114.1,390.8 L111.6,387.3 L109.8,386.5 L109.1,384.3 L103.1,376.1 L100.3,373.7 L99.8,367.2 L100.9,367.8 L102.0,363.9 L99.8,360.4 L97.1,360.9 L93.6,357.7 L92.3,355.2 L92.6,352.8 L90.8,349.6 L90.8,344.3 L93.7,344.3 L92.5,337.0 L91.2,337.8 L91.0,341.4 L87.9,342.1 L84.3,339.4 L83.7,334.7 L81.3,331.0 L78.2,328.7 L76.5,326.0 L71.9,320.9 L72.7,319.4 L70.6,312.7 L71.5,308.9 L70.2,303.4 L66.2,297.9 L62.3,294.8 L61.6,291.2 L65.4,282.4 L66.2,279.5 L65.4,277.2 L66.9,271.2 L65.6,265.7 L63.9,264.4 L64.6,260.0 L79.7,259.9 Z"/>
<path id="US-CO" data-code="CO" data-name="Colorado" d="M316.0,279.9 L349.9,280.0 L375.7,279.9 L406.6,279.9 L406.6,300.0 L406.7,360.1 L392.0,360.0 L371.3,360.1 L332.3,360.1 L323.7,360.0 L298.7,360.0 L298.7,336.7 L298.5,334.5 L298.6,317.5 L298.6,280.0 L316.0,279.9 Z"/>
<path id="US-CT" data-code="CT" data-name="Connecticut" d="M854.1,259.2 L873.5,259.5 L873.5,259.9 L873.5,271.7 L872.5,273.6 L871.2,273.2 L864.4,274.8 L856.4,274.3 L852.9,277.1 L849.2,278.0 L844.8,280.3 L843.7,278.0 L847.5,275.8 L846.4,274.1 L847.4,259.0 L854.1,259.2 Z"/>
<path id="US-DE" data-code="DE" data-name="Delaware" d="M817.7,303.9 L816.3,306.3 L814.6,307.6 L815.0,310.8 L817.3,313.8 L817.9,318.7 L821.2,323.8 L822.7,324.1 L823.4,331.0 L813.4,330.7 L811.9,305.6 L814.6,303.4 L817.7,303.9 Z"/>
<path id="US-FL" data-code="FL" data-name="Florida" d="M662.1,480.0 L669.7,479.9 L671.8,485.7 L692.9,487.1 L712.7,488.6 L713.5,492.9 L715.3,492.8 L716.0,488.7 L715.4,485.0 L716.9,483.4 L720.4,485.1 L724.6,485.9 L725.6,494.5 L727.5,504.3 L732.0,517.1 L738.8,530.8 L737.8,531.8 L738.2,538.1 L741.0,545.2 L745.5,559.6 L746.4,564.1 L746.4,568.7 L744.7,585.2 L743.2,585.5 L741.7,590.7 L742.2,592.3 L739.3,596.1 L738.1,595.2 L735.2,596.7 L730.3,597.6 L728.9,595.5 L729.5,592.4 L726.1,583.6 L723.4,581.9 L721.0,583.1 L719.1,578.2 L718.6,574.1 L715.4,569.7 L714.7,566.7 L715.2,562.4 L713.4,561.7 L713.8,564.2 L712.2,564.8 L707.3,554.0 L705.4,551.2 L710.0,543.3 L707.0,543.7 L704.9,546.2 L702.9,542.3 L705.6,531.3 L706.1,522.2 L704.3,520.0 L703.7,517.1 L700.7,516.4 L697.2,511.6 L694.5,509.6 L694.3,506.7 L692.3,505.6 L690.7,502.3 L684.8,497.9 L679.7,498.9 L679.9,502.0 L678.2,501.4 L671.8,505.1 L665.0,506.0 L665.1,503.8 L663.5,501.2 L655.5,495.3 L649.7,492.8 L644.6,492.1 L640.3,492.5 L630.9,494.4 L633.2,491.4 L632.0,489.8 L632.6,486.5 L629.1,482.7 L629.6,480.0 L662.1,480.0 Z"/>
<path id="US-GA" data-code="GA" data-name="Georgia" d="M698.9,400.0 L695.6,404.2 L695.4,406.3 L700.5,410.6 L702.1,410.3 L704.5,414.7 L705.0,417.0 L707.5,421.1 L711.0,423.6 L713.1,427.4 L717.2,430.8 L717.0,433.1 L719.7,436.8 L723.9,439.8 L724.9,443.1 L725.1,447.4 L727.2,448.8 L729.6,454.2 L729.7,457.6 L733.3,459.3 L729.5,466.1 L728.8,469.6 L727.2,472.7 L727.0,475.9 L725.3,477.3 L724.6,485.9 L720.4,485.1 L716.9,483.4 L715.4,485.0 L716.0,488.7 L715.3,492.8 L713.5,492.9 L712.7,488.6 L692.9,487.1 L671.8,485.7 L669.7,479.9 L668.0,474.5 L669.1,469.2 L667.6,463.2 L668.9,459.8 L668.8,457.3 L671.5,454.7 L669.7,453.5 L670.4,451.6 L668.7,448.4 L666.9,442.8 L663.1,417.5 L660.4,400.3 L680.3,400.2 L691.1,400.3 L698.9,400.0 Z"/>
<path id="US-HI" data-code="HI" data-name="Hawaii" d="M363.2,700.3 L357.2,698.1 L356.3,695.8 L357.1,689.9 L352.8,680.0 L356.2,676.7 L358.6,672.1 L356.8,669.2 L357.4,666.0 L364.2,669.7 L371.8,672.4 L376.5,676.4 L376.5,679.8 L383.4,685.4 L379.1,689.9 L371.5,692.1 L366.2,695.5 L363.2,700.3 Z M340.0,646.2 L342.8,649.8 L346.4,648.2 L354.3,652.4 L353.1,656.1 L345.1,657.9 L343.5,657.2 L343.1,652.6 L339.0,651.6 L337.4,649.1 L340.0,646.2 Z M330.4,641.5 L328.0,644.2 L322.4,644.2 L324.2,641.2 L330.4,641.5 Z M306.8,628.9 L309.5,635.0 L308.2,638.5 L303.0,639.1 L299.5,631.9 L302.6,631.7 L306.8,628.9 Z M269.9,615.0 L272.7,615.3 L274.0,618.0 L273.2,621.9 L270.4,624.3 L262.7,621.3 L263.6,617.0 L269.9,615.0 Z"/>
<path id="US-ID" data-code="ID" data-name="Idaho" d="M190.6,120.0 L190.6,140.5 L195.6,146.1 L195.7,151.5 L198.6,154.0 L201.8,154.8 L202.1,156.3 L207.9,161.6 L208.5,163.8 L212.6,165.9 L212.8,167.2 L217.2,167.1 L215.0,174.5 L214.6,179.3 L216.2,182.3 L213.4,184.5 L214.5,186.6 L213.8,188.8 L217.1,190.9 L220.9,188.1 L222.4,185.9 L225.2,187.9 L224.8,189.6 L226.3,193.4 L228.8,197.4 L230.7,198.9 L230.6,202.7 L232.4,204.3 L235.6,204.6 L237.6,211.0 L239.4,212.1 L241.0,210.3 L245.8,210.4 L249.4,208.6 L251.5,209.6 L255.1,208.7 L255.9,209.8 L259.0,209.1 L262.5,204.9 L265.0,208.4 L267.8,210.5 L267.8,260.0 L250.5,260.1 L221.6,260.1 L175.5,260.0 L175.5,223.4 L177.5,216.8 L176.2,215.2 L173.3,214.9 L172.2,212.1 L175.3,205.0 L176.9,204.3 L178.5,201.4 L178.3,199.5 L180.1,197.1 L181.0,193.6 L184.2,187.7 L182.9,185.0 L179.3,183.5 L177.2,180.1 L177.1,176.6 L175.1,173.1 L175.3,171.5 L175.2,144.8 L175.4,120.0 L190.6,120.0 Z"/>
<path id="US-IL" data-code="IL" data-name="Illinois" d="M582.7,249.8 L611.3,250.1 L626.5,250.1 L626.0,254.0 L628.4,258.5 L630.8,265.8 L630.7,313.0 L629.0,316.6 L631.0,320.9 L631.2,324.4 L629.3,327.2 L628.8,329.9 L626.0,334.1 L624.2,334.5 L624.6,337.0 L623.5,338.0 L622.5,342.7 L623.0,344.0 L621.0,346.9 L622.4,350.4 L616.1,352.2 L615.5,354.3 L617.0,356.9 L615.0,358.6 L609.3,355.5 L607.6,355.7 L605.2,359.2 L606.0,360.3 L603.5,360.1 L600.0,354.4 L601.3,353.1 L600.0,349.3 L600.0,346.2 L595.1,341.9 L593.4,342.4 L591.7,339.7 L587.1,335.7 L587.2,332.5 L589.8,327.4 L589.4,325.5 L590.9,323.1 L588.7,321.7 L585.3,320.8 L583.6,322.6 L582.4,321.4 L581.4,314.9 L576.2,310.6 L571.5,305.4 L569.5,299.3 L569.4,295.3 L570.7,292.4 L571.0,288.8 L575.3,286.6 L575.7,283.5 L577.7,281.6 L578.0,278.1 L575.4,275.2 L576.5,271.7 L582.5,270.7 L587.3,268.2 L587.8,265.1 L589.8,263.8 L590.4,260.0 L590.0,257.5 L586.5,255.5 L586.1,253.4 L582.7,249.8 Z"/>
<path id="US-IN" data-code="IN" data-name="Indiana" d="M654.5,264.8 L672.7,264.8 L672.7,266.1 L672.8,290.0 L672.6,317.9 L671.4,318.8 L672.7,324.3 L669.9,324.4 L667.1,326.3 L663.1,325.4 L663.3,329.3 L660.6,331.0 L659.6,333.5 L656.9,334.5 L655.5,339.5 L653.7,340.8 L650.3,339.0 L649.7,336.7 L646.3,339.2 L646.5,341.4 L643.1,342.1 L642.1,340.2 L638.2,342.1 L636.9,344.2 L633.0,341.3 L631.0,341.9 L629.6,340.5 L628.4,341.9 L624.5,342.1 L623.0,344.0 L622.5,342.7 L623.5,338.0 L624.6,337.0 L624.2,334.5 L626.0,334.1 L628.8,329.9 L629.3,327.2 L631.2,324.4 L631.0,320.9 L629.0,316.6 L630.7,313.0 L630.8,265.8 L632.3,267.1 L637.1,267.1 L641.6,264.8 L654.5,264.8 Z"/>
<path id="US-IA" data-code="IA" data-name="Iowa" d="M571.5,230.0 L573.8,230.0 L574.0,232.9 L576.3,234.9 L574.4,237.3 L574.9,241.8 L576.1,245.0 L581.6,247.3 L582.7,249.8 L586.1,253.4 L586.5,255.5 L590.0,257.5 L590.4,260.0 L589.8,263.8 L587.8,265.1 L587.3,268.2 L582.5,270.7 L576.5,271.7 L575.4,275.2 L578.0,278.1 L577.7,281.6 L575.7,283.5 L575.3,286.6 L571.0,288.8 L570.7,292.4 L569.0,291.8 L565.9,287.7 L564.3,287.8 L542.3,288.4 L521.1,288.6 L503.6,288.2 L501.8,285.6 L502.7,280.5 L501.2,276.0 L501.2,270.9 L498.5,269.2 L498.1,266.4 L499.0,264.0 L498.0,260.5 L495.9,259.2 L493.1,250.2 L490.3,245.9 L491.6,242.9 L492.1,239.0 L493.3,237.5 L491.3,235.6 L491.9,232.1 L491.0,230.4 L493.0,230.0 L571.5,230.0 Z"/>
<path id="US-KS" data-code="KS" data-name="Kansas" d="M408.9,300.0 L510.7,300.0 L512.2,301.8 L517.2,303.4 L513.7,309.2 L515.7,311.1 L518.1,315.9 L521.4,316.8 L521.4,360.0 L436.9,360.0 L406.7,360.1 L406.6,300.0 L408.9,300.0 Z"/>
<path id="US-KY" data-code="KY" data-name="Kentucky" d="M686.7,324.6 L690.1,327.4 L692.6,325.9 L698.4,327.5 L700.1,325.5 L702.3,324.8 L703.0,328.2 L704.8,328.8 L706.9,331.5 L706.5,337.5 L708.3,341.4 L710.8,344.3 L711.5,346.6 L714.5,348.9 L716.5,349.3 L710.6,354.6 L704.9,357.6 L704.9,359.1 L702.7,360.4 L702.5,362.2 L699.5,363.0 L698.5,365.1 L690.2,368.0 L690.0,368.3 L676.8,368.1 L665.3,367.4 L662.3,367.7 L645.2,366.9 L625.7,367.3 L622.4,366.5 L622.6,370.1 L603.4,369.9 L601.6,370.1 L602.4,367.6 L604.7,368.4 L606.0,360.3 L605.2,359.2 L607.6,355.7 L609.3,355.5 L615.0,358.6 L617.0,356.9 L615.5,354.3 L616.1,352.2 L622.4,350.4 L621.0,346.9 L623.0,344.0 L624.5,342.1 L628.4,341.9 L629.6,340.5 L631.0,341.9 L633.0,341.3 L636.9,344.2 L638.2,342.1 L642.1,340.2 L643.1,342.1 L646.5,341.4 L646.3,339.2 L649.7,336.7 L650.3,339.0 L653.7,340.8 L655.5,339.5 L656.9,334.5 L659.6,333.5 L660.6,331.0 L663.3,329.3 L663.1,325.4 L667.1,326.3 L669.9,324.4 L672.7,324.3 L671.4,318.8 L672.6,317.9 L678.5,317.9 L681.6,322.1 L681.9,323.8 L686.7,324.6 Z"/>
<path id="US-LA" data-code="LA" data-name="Louisiana" d="M536.9,439.6 L574.6,440.0 L576.0,442.3 L574.9,443.1 L574.8,447.2 L577.1,449.7 L577.4,455.6 L575.5,460.2 L571.9,463.1 L571.0,467.6 L569.4,467.1 L569.2,474.5 L567.3,474.7 L568.4,478.6 L567.3,480.0 L596.5,480.0 L595.0,486.6 L597.5,491.0 L598.1,494.3 L600.0,496.4 L595.4,499.1 L595.1,501.1 L598.8,502.4 L600.4,499.2 L603.6,502.4 L603.3,504.9 L601.5,506.0 L598.0,505.0 L598.4,506.9 L597.3,509.7 L600.2,512.3 L604.9,513.0 L606.6,516.0 L608.0,516.4 L605.5,519.8 L602.8,519.2 L600.6,515.6 L594.9,513.8 L594.9,510.4 L592.1,511.5 L592.3,514.3 L591.0,517.0 L589.0,517.4 L587.5,514.4 L583.9,514.3 L582.6,517.4 L580.3,518.3 L577.7,516.4 L575.7,516.2 L573.8,511.3 L570.3,509.1 L568.9,509.4 L567.6,505.2 L563.5,505.8 L563.4,503.3 L559.5,505.7 L560.0,507.5 L556.9,509.3 L552.2,508.4 L546.7,505.7 L542.8,504.5 L534.5,505.5 L533.4,506.2 L532.0,504.3 L535.6,497.1 L534.5,493.3 L535.6,491.2 L535.0,488.5 L536.6,486.4 L538.2,481.3 L537.9,477.0 L533.7,468.9 L533.6,464.5 L530.2,460.1 L530.2,439.6 L536.9,439.6 Z"/>
<path id="US-ME" data-code="ME" data-name="Maine" d="M890.4,238.8 L888.5,237.4 L888.8,235.4 L886.3,233.1 L885.3,206.9 L884.5,193.9 L891.2,191.2 L890.1,189.8 L892.7,186.7 L895.3,185.3 L894.8,184.1 L897.2,182.2 L896.5,178.7 L898.0,173.5 L900.4,171.7 L901.3,166.1 L913.2,150.8 L916.0,151.4 L916.2,155.2 L918.2,156.5 L923.2,154.3 L926.3,154.3 L928.5,152.9 L932.8,156.0 L935.3,158.7 L935.5,181.1 L935.2,186.5 L940.5,187.9 L939.7,190.2 L941.1,192.4 L940.0,194.4 L942.2,197.4 L945.1,196.8 L947.9,203.9 L944.6,207.1 L942.8,205.9 L941.3,208.1 L939.1,207.5 L938.8,209.4 L935.9,209.2 L931.4,213.4 L930.3,210.5 L928.7,210.3 L929.4,213.4 L925.9,215.0 L925.0,212.4 L923.3,213.8 L919.4,213.8 L919.3,210.8 L916.9,211.5 L917.3,213.5 L915.1,217.9 L915.6,219.1 L912.7,221.5 L909.8,220.7 L908.1,223.2 L905.8,223.5 L903.8,225.6 L901.5,225.2 L900.8,223.0 L897.3,226.5 L898.2,228.7 L895.7,229.4 L895.5,231.3 L892.7,233.6 L890.4,238.8 Z"/>
<path id="US-MD" data-code="MD" data-name="Maryland" d="M808.7,340.9 L808.4,340.9 L808.0,340.9 L808.7,340.9 Z M755.0,305.6 L811.9,305.6 L813.4,330.7 L823.4,331.0 L820.3,339.4 L817.9,339.7 L813.7,340.9 L810.4,341.8 L810.5,338.5 L809.2,337.2 L811.0,335.8 L808.6,332.5 L807.9,333.9 L804.7,333.6 L803.6,330.0 L804.6,330.0 L804.7,325.3 L805.7,323.4 L804.3,317.1 L806.0,313.3 L808.6,312.7 L809.1,308.8 L807.1,309.3 L807.0,311.2 L803.0,313.8 L801.8,316.1 L801.5,321.9 L800.0,324.6 L800.7,329.2 L802.7,332.4 L802.5,334.8 L803.7,337.2 L803.1,338.9 L799.5,335.7 L794.4,334.1 L792.9,331.1 L790.1,332.8 L789.0,330.4 L791.2,327.4 L792.6,324.2 L794.6,322.1 L792.7,320.1 L791.4,321.3 L789.4,319.5 L786.2,318.5 L786.2,315.5 L784.5,313.9 L782.1,313.6 L780.3,308.0 L777.7,308.0 L775.1,306.1 L773.7,307.6 L771.1,307.5 L770.5,309.7 L766.0,308.3 L762.9,311.2 L760.9,310.6 L757.8,314.0 L754.8,315.9 L755.0,305.6 Z"/>
<path id="US-MA" data-code="MA" data-name="Massachusetts" d="M887.1,242.2 L888.6,242.6 L889.2,246.1 L888.5,248.9 L886.1,251.6 L886.0,254.6 L889.4,255.1 L891.4,258.2 L891.1,260.8 L892.7,261.4 L892.9,263.7 L897.2,265.7 L902.2,263.8 L901.1,266.6 L893.8,269.0 L891.1,269.1 L889.5,267.2 L886.9,267.8 L886.8,269.2 L884.0,270.1 L882.8,266.4 L882.4,265.8 L880.7,264.4 L879.9,259.7 L877.6,259.7 L873.5,259.9 L873.5,259.5 L854.1,259.2 L847.4,259.0 L847.1,258.2 L850.8,245.1 L863.3,245.4 L881.3,246.1 L882.9,244.2 L887.1,242.2 Z"/>
<path id="US-MI" data-code="MI" data-name="Michigan" d="M693.6,265.4 L672.7,266.1 L672.7,264.8 L654.5,264.8 L641.6,264.8 L644.8,262.2 L646.9,257.7 L648.8,254.9 L650.3,251.1 L651.1,245.6 L650.8,239.7 L646.2,228.1 L647.6,223.7 L646.6,218.5 L650.2,213.1 L650.9,208.6 L650.4,206.2 L653.0,205.2 L653.3,201.9 L657.3,201.1 L660.3,197.4 L660.1,204.7 L661.7,205.0 L663.7,201.4 L663.8,195.2 L665.0,193.7 L669.3,192.7 L667.9,188.5 L670.7,184.8 L674.2,184.6 L678.1,186.9 L681.9,187.3 L683.7,190.1 L686.6,190.3 L691.4,192.9 L693.1,192.8 L695.7,197.1 L693.6,199.4 L695.6,202.4 L696.4,205.8 L695.5,213.2 L692.3,215.1 L691.6,218.9 L687.9,220.2 L685.8,224.8 L686.6,226.6 L690.3,228.2 L693.2,225.7 L696.6,220.6 L701.9,218.6 L704.5,220.1 L706.1,223.0 L707.7,231.3 L708.0,235.4 L709.7,240.5 L708.1,247.7 L705.5,248.8 L705.4,246.2 L703.8,247.0 L701.8,253.0 L698.7,255.3 L697.8,259.9 L693.9,263.7 L693.6,265.4 Z M661.9,185.4 L662.2,187.8 L660.1,188.2 L661.0,184.8 L661.9,185.4 Z M629.8,198.1 L627.4,196.0 L628.9,193.2 L625.2,192.7 L626.7,190.0 L626.8,186.5 L623.6,184.1 L621.9,181.6 L615.3,179.6 L613.2,180.2 L606.6,177.3 L590.7,173.2 L589.1,169.8 L586.2,168.6 L592.2,166.5 L594.9,164.1 L601.7,163.2 L606.0,160.2 L608.1,160.1 L609.8,158.0 L614.6,155.0 L617.0,152.5 L620.7,150.9 L624.1,152.3 L618.0,158.4 L616.6,160.5 L616.7,164.2 L619.7,161.4 L625.0,161.8 L629.1,163.8 L632.8,169.3 L634.9,170.3 L638.8,169.4 L639.7,170.6 L643.6,171.3 L651.9,166.7 L656.2,166.2 L661.9,166.4 L665.8,164.9 L668.8,164.8 L669.4,170.4 L672.4,171.1 L675.4,170.3 L676.7,171.6 L678.7,169.9 L683.2,169.4 L683.3,176.4 L685.3,179.4 L688.4,180.1 L688.7,178.2 L691.7,178.2 L693.3,180.2 L691.9,181.8 L683.5,180.5 L679.4,181.3 L675.0,178.9 L673.7,181.1 L674.3,183.0 L672.4,182.5 L669.5,179.8 L664.5,178.2 L662.0,178.1 L659.5,180.7 L655.5,181.3 L651.1,180.8 L649.3,181.9 L648.9,184.1 L644.1,185.9 L644.3,183.3 L642.2,182.8 L641.4,185.5 L637.8,185.6 L636.2,186.8 L633.9,191.5 L629.5,197.5 L629.8,198.1 Z M611.0,140.5 L607.1,143.0 L605.1,143.3 L605.3,141.2 L615.0,136.5 L613.1,139.8 L611.0,140.5 Z"/>
<path id="US-MN" data-code="MN" data-name="Minnesota" d="M561.5,165.9 L560.3,165.0 L557.2,166.7 L557.2,178.5 L556.3,179.7 L551.9,181.3 L548.3,185.6 L548.1,188.5 L549.8,188.7 L551.8,191.2 L550.0,194.3 L550.3,197.7 L549.2,205.0 L553.3,208.6 L556.5,208.9 L558.1,211.1 L562.9,213.3 L563.6,216.0 L568.0,219.3 L570.5,220.1 L573.4,224.5 L573.0,227.7 L573.8,230.0 L571.5,230.0 L493.0,230.0 L493.0,194.0 L489.5,191.7 L486.8,187.9 L491.0,183.6 L491.3,181.3 L490.8,173.3 L488.9,171.3 L487.6,166.9 L487.9,161.5 L487.3,160.6 L486.8,147.8 L483.7,141.0 L482.6,137.2 L482.1,129.1 L483.1,126.3 L481.0,120.0 L513.1,120.0 L513.1,112.3 L516.1,112.5 L518.1,114.1 L520.2,124.5 L521.8,125.7 L526.8,126.0 L527.4,127.0 L533.4,127.4 L534.0,129.6 L539.1,129.1 L539.1,128.2 L543.1,127.1 L546.5,127.6 L550.5,129.2 L551.6,131.3 L553.9,131.1 L556.0,135.5 L557.0,133.7 L560.9,132.8 L561.6,134.7 L566.2,136.0 L566.2,137.7 L568.4,139.2 L573.1,138.4 L575.9,136.4 L579.7,135.2 L581.0,138.2 L583.6,137.5 L586.8,138.2 L590.4,137.7 L594.6,140.3 L598.5,139.8 L598.2,140.9 L593.0,143.4 L585.8,145.4 L581.2,147.5 L574.5,152.6 L571.6,155.8 L567.3,159.4 L560.3,164.2 L561.5,165.9 Z"/>
<path id="US-MS" data-code="MS" data-name="Mississippi" d="M616.2,400.1 L620.3,400.1 L621.9,402.2 L619.7,424.1 L616.2,462.1 L617.4,492.6 L615.7,493.5 L612.0,493.1 L610.4,491.8 L606.7,492.6 L601.6,494.9 L600.0,496.4 L598.1,494.3 L597.5,491.0 L595.0,486.6 L596.5,480.0 L567.3,480.0 L568.4,478.6 L567.3,474.7 L569.2,474.5 L569.4,467.1 L571.0,467.6 L571.9,463.1 L575.5,460.2 L577.4,455.6 L577.1,449.7 L574.8,447.2 L574.9,443.1 L576.0,442.3 L574.6,440.0 L575.8,437.2 L574.9,433.1 L576.3,431.4 L573.6,428.8 L576.0,422.7 L578.8,419.5 L577.9,417.3 L581.1,414.0 L581.0,412.7 L583.8,411.6 L583.6,407.6 L585.2,406.8 L586.3,403.4 L588.7,401.8 L587.8,400.1 L616.2,400.1 Z"/>
<path id="US-MO" data-code="MO" data-name="Missouri" d="M564.3,287.8 L565.9,287.7 L569.0,291.8 L570.7,292.4 L569.4,295.3 L569.5,299.3 L571.5,305.4 L576.2,310.6 L581.4,314.9 L582.4,321.4 L583.6,322.6 L585.3,320.8 L588.7,321.7 L590.9,323.1 L589.4,325.5 L589.8,327.4 L587.2,332.5 L587.1,335.7 L591.7,339.7 L593.4,342.4 L595.1,341.9 L600.0,346.2 L600.0,349.3 L601.3,353.1 L600.0,354.4 L603.5,360.1 L606.0,360.3 L604.7,368.4 L602.4,367.6 L601.6,370.1 L600.6,370.1 L599.7,370.1 L599.8,375.0 L596.7,380.0 L586.8,380.0 L589.2,376.3 L591.6,373.9 L590.2,370.1 L523.6,370.0 L521.4,370.0 L521.4,360.0 L521.4,316.8 L518.1,315.9 L515.7,311.1 L513.7,309.2 L517.2,303.4 L512.2,301.8 L510.7,300.0 L506.9,294.7 L503.6,288.2 L521.1,288.6 L542.3,288.4 L564.3,287.8 Z"/>
<path id="US-MT" data-code="MT" data-name="Montana" d="M375.8,120.0 L375.9,142.8 L375.8,181.1 L375.9,200.1 L375.6,200.1 L347.0,200.0 L298.1,200.0 L267.7,200.0 L267.8,210.5 L265.0,208.4 L262.5,204.9 L259.0,209.1 L255.9,209.8 L255.1,208.7 L251.5,209.6 L249.4,208.6 L245.8,210.4 L241.0,210.3 L239.4,212.1 L237.6,211.0 L235.6,204.6 L232.4,204.3 L230.6,202.7 L230.7,198.9 L228.8,197.4 L226.3,193.4 L224.8,189.6 L225.2,187.9 L222.4,185.9 L220.9,188.1 L217.1,190.9 L213.8,188.8 L214.5,186.6 L213.4,184.5 L216.2,182.3 L214.6,179.3 L215.0,174.5 L217.2,167.1 L212.8,167.2 L212.6,165.9 L208.5,163.8 L207.9,161.6 L202.1,156.3 L201.8,154.8 L198.6,154.0 L195.7,151.5 L195.6,146.1 L190.6,140.5 L190.6,120.0 L260.8,120.1 L292.4,120.0 L375.8,120.0 Z"/>
<path id="US-NE" data-code="NE" data-name="Nebraska" d="M387.0,239.9 L413.2,240.0 L461.4,240.0 L461.9,241.0 L469.9,244.7 L471.7,242.7 L473.9,243.1 L481.2,243.1 L489.3,246.8 L490.3,249.7 L493.1,250.2 L495.9,259.2 L498.0,260.5 L499.0,264.0 L498.1,266.4 L498.5,269.2 L501.2,270.9 L501.2,276.0 L502.7,280.5 L501.8,285.6 L503.6,288.2 L506.9,294.7 L510.7,300.0 L408.9,300.0 L406.6,300.0 L406.6,279.9 L375.7,279.9 L375.7,239.9 L387.0,239.9 Z"/>
<path id="US-NV" data-code="NV" data-name="Nevada" d="M175.5,260.0 L221.6,260.1 L221.5,360.0 L221.5,376.1 L219.9,379.5 L218.3,379.6 L216.5,377.2 L210.8,378.0 L211.7,389.7 L213.0,393.5 L213.4,397.2 L212.4,400.0 L193.7,380.6 L183.0,370.0 L168.2,355.6 L149.5,338.0 L129.6,320.0 L129.7,294.7 L129.6,260.1 L149.7,260.2 L175.5,260.0 Z"/>
<path id="US-NH" data-code="NH" data-name="New Hampshire" d="M884.5,193.9 L885.3,206.9 L886.3,233.1 L888.8,235.4 L888.5,237.4 L890.4,238.8 L888.6,242.6 L887.1,242.2 L882.9,244.2 L881.3,246.1 L863.3,245.4 L862.0,243.9 L862.2,240.9 L863.5,239.8 L863.3,237.0 L864.5,228.5 L867.2,224.6 L868.6,220.1 L869.9,218.5 L869.8,213.5 L875.0,211.7 L877.5,208.3 L876.1,205.0 L878.2,201.7 L878.0,199.7 L880.2,194.6 L883.8,195.1 L884.5,193.9 Z"/>
<path id="US-NJ" data-code="NJ" data-name="New Jersey" d="M835.9,277.2 L841.0,280.0 L839.2,285.8 L836.6,287.2 L835.3,290.2 L839.5,291.8 L839.8,294.1 L838.0,304.8 L833.2,312.8 L830.0,315.1 L827.2,320.1 L825.8,316.8 L821.3,315.2 L815.8,310.8 L815.5,307.9 L815.4,307.4 L816.3,306.3 L817.7,303.9 L821.8,302.3 L822.1,300.7 L826.8,297.4 L827.6,295.7 L823.2,291.6 L823.0,289.1 L821.1,288.5 L820.9,286.2 L823.3,282.7 L822.0,280.6 L825.9,276.4 L826.7,274.2 L828.8,272.8 L835.9,277.2 Z"/>
<path id="US-NM" data-code="NM" data-name="New Mexico" d="M323.7,360.0 L332.3,360.1 L371.3,360.1 L392.0,360.0 L392.0,370.0 L391.4,370.0 L391.3,419.7 L390.9,440.0 L390.9,460.0 L336.2,460.0 L335.7,462.0 L337.5,464.3 L311.6,464.3 L311.6,473.4 L298.6,473.4 L298.7,360.0 L323.7,360.0 Z"/>
<path id="US-NY" data-code="NY" data-name="New York" d="M849.6,199.7 L849.8,203.9 L849.0,207.6 L850.4,211.2 L850.0,215.1 L848.2,219.1 L849.6,224.6 L848.7,226.2 L851.2,229.5 L850.7,243.3 L850.8,245.1 L847.1,258.2 L847.4,259.0 L846.4,274.1 L847.5,275.8 L843.7,278.0 L844.8,280.3 L851.4,281.9 L852.8,280.7 L858.4,280.7 L861.3,280.0 L866.0,276.9 L866.4,279.2 L868.8,280.1 L863.2,283.1 L851.2,287.5 L846.3,288.4 L843.0,288.1 L840.5,289.1 L839.2,285.8 L841.0,280.0 L835.9,277.2 L828.8,272.8 L828.1,271.4 L825.7,271.3 L822.9,267.9 L823.3,264.9 L821.4,262.6 L820.2,262.7 L818.5,260.0 L750.6,260.0 L750.6,254.9 L750.6,254.6 L760.0,248.9 L761.6,246.2 L764.6,244.3 L763.4,240.9 L762.2,240.3 L761.2,234.8 L770.3,232.5 L778.3,232.6 L781.5,233.1 L785.0,235.3 L787.2,234.5 L793.9,234.6 L797.9,233.1 L802.2,229.5 L805.0,229.4 L805.1,223.9 L806.5,220.8 L803.1,218.6 L803.8,216.1 L810.0,212.7 L812.3,209.7 L819.7,203.0 L826.7,199.6 L837.2,200.2 L849.6,199.7 Z"/>
<path id="US-NC" data-code="NC" data-name="North Carolina" d="M731.8,368.8 L742.4,369.1 L754.5,369.2 L810.7,369.0 L812.5,377.0 L808.1,376.2 L807.5,377.2 L802.3,378.4 L801.5,379.5 L798.1,379.8 L798.3,381.2 L802.5,380.3 L803.1,381.1 L807.7,380.1 L809.2,382.0 L812.0,381.2 L813.0,386.1 L812.1,388.4 L810.3,388.6 L806.4,393.5 L801.2,393.7 L800.4,397.1 L802.6,400.5 L804.3,401.2 L801.0,406.8 L798.3,406.1 L793.3,406.7 L790.0,407.9 L784.6,411.7 L780.4,416.7 L778.2,423.1 L775.0,421.7 L769.4,423.0 L751.9,403.9 L734.6,403.6 L734.9,401.3 L732.5,397.9 L730.9,399.1 L730.8,397.0 L711.8,396.0 L707.6,396.8 L704.3,398.7 L698.9,400.0 L691.1,400.3 L680.3,400.2 L680.7,395.5 L683.7,395.0 L684.9,391.8 L688.7,388.8 L692.9,388.7 L696.7,385.6 L700.7,384.5 L704.1,380.0 L706.2,378.7 L706.6,380.7 L712.7,376.9 L715.5,377.6 L717.4,373.9 L720.3,372.9 L721.0,368.2 L731.8,368.8 Z"/>
<path id="US-ND" data-code="ND" data-name="North Dakota" d="M481.0,120.0 L483.1,126.3 L482.1,129.1 L482.6,137.2 L483.7,141.0 L486.8,147.8 L487.3,160.6 L487.9,161.5 L487.6,166.9 L488.9,171.3 L490.8,173.3 L491.3,181.3 L375.8,181.1 L375.9,142.8 L375.8,120.0 L481.0,120.0 Z"/>
<path id="US-OH" data-code="OH" data-name="Ohio" d="M738.9,260.4 L738.9,287.3 L736.6,288.4 L737.7,290.5 L737.6,293.6 L735.5,298.4 L734.1,305.8 L728.1,312.2 L726.2,313.1 L724.5,311.8 L722.7,314.6 L720.9,314.5 L719.0,318.4 L719.4,320.7 L717.8,322.5 L715.5,319.5 L712.6,324.3 L713.4,327.4 L711.5,328.4 L710.9,331.1 L706.9,331.5 L704.8,328.8 L703.0,328.2 L702.3,324.8 L700.1,325.5 L698.4,327.5 L692.6,325.9 L690.1,327.4 L686.7,324.6 L681.9,323.8 L681.6,322.1 L678.5,317.9 L672.6,317.9 L672.8,290.0 L672.7,266.1 L693.6,265.4 L699.6,268.1 L701.6,269.7 L703.2,268.2 L706.5,271.4 L708.7,272.4 L715.8,269.7 L720.1,270.3 L724.6,266.6 L731.3,262.9 L738.9,260.4 L738.9,260.4 Z"/>
<path id="US-OK" data-code="OK" data-name="Oklahoma" d="M436.9,360.0 L521.4,360.0 L521.4,370.0 L524.2,392.1 L523.4,427.3 L517.5,425.1 L515.9,422.8 L512.0,420.8 L511.0,422.5 L507.0,422.4 L506.1,421.3 L502.5,423.3 L501.0,422.2 L497.7,423.2 L494.6,426.3 L493.5,424.5 L490.3,423.1 L486.9,423.1 L485.8,420.8 L481.9,425.3 L480.6,422.8 L478.8,423.5 L477.5,421.9 L473.9,420.4 L471.1,423.0 L470.0,420.2 L467.8,419.9 L466.5,417.7 L463.5,416.8 L461.6,418.7 L460.3,417.1 L457.3,417.3 L453.9,415.5 L450.8,415.8 L449.7,411.9 L444.8,411.7 L442.9,412.4 L439.5,408.5 L438.3,408.7 L438.3,370.0 L410.3,370.0 L392.0,370.0 L392.0,360.0 L406.7,360.1 L436.9,360.0 Z"/>
<path id="US-OR" data-code="OR" data-name="Oregon" d="M80.1,176.5 L81.5,176.3 L84.8,178.4 L86.2,180.8 L87.0,186.8 L94.9,189.0 L101.7,185.8 L105.9,185.5 L110.8,186.6 L111.3,187.9 L119.8,185.1 L121.8,186.0 L126.4,185.5 L130.2,183.5 L136.9,181.8 L143.1,181.3 L145.2,180.0 L177.2,180.1 L179.3,183.5 L182.9,185.0 L184.2,187.7 L181.0,193.6 L180.1,197.1 L178.3,199.5 L178.5,201.4 L176.9,204.3 L175.3,205.0 L172.2,212.1 L173.3,214.9 L176.2,215.2 L177.5,216.8 L175.5,223.4 L175.5,260.0 L149.7,260.2 L129.6,260.1 L113.6,260.1 L92.9,259.8 L79.7,259.9 L64.6,260.0 L62.4,257.7 L61.2,251.2 L61.5,246.7 L59.4,243.2 L60.9,239.9 L62.0,234.6 L64.3,228.9 L65.3,223.8 L67.0,206.9 L66.7,204.6 L68.2,197.1 L68.8,186.8 L68.0,181.1 L68.7,177.7 L74.9,174.8 L77.6,177.1 L80.1,176.5 Z"/>
<path id="US-PA" data-code="PA" data-name="Pennsylvania" d="M750.6,254.9 L750.6,260.0 L818.5,260.0 L820.2,262.7 L821.4,262.6 L823.3,264.9 L822.9,267.9 L825.7,271.3 L828.1,271.4 L828.8,272.8 L826.7,274.2 L825.9,276.4 L822.0,280.6 L823.3,282.7 L820.9,286.2 L821.1,288.5 L823.0,289.1 L823.2,291.6 L827.6,295.7 L826.8,297.4 L822.1,300.7 L821.8,302.3 L817.7,303.9 L814.6,303.4 L811.9,305.6 L755.0,305.6 L738.9,305.6 L738.9,287.3 L738.9,260.4 L738.9,260.4 L741.8,259.3 L750.6,254.6 L750.6,254.9 Z"/>
<path id="US-RI" data-code="RI" data-name="Rhode Island" d="M882.8,266.4 L884.0,270.1 L880.9,270.5 L882.8,266.4 Z M877.6,259.7 L879.9,259.7 L880.7,264.4 L882.4,265.8 L880.5,265.5 L878.9,268.4 L878.4,272.6 L872.5,273.6 L873.5,271.7 L873.5,259.9 L877.6,259.7 Z"/>
<path id="US-SC" data-code="SC" data-name="South Carolina" d="M704.3,398.7 L707.6,396.8 L711.8,396.0 L730.8,397.0 L730.9,399.1 L732.5,397.9 L734.9,401.3 L734.6,403.6 L751.9,403.9 L769.4,423.0 L766.7,424.0 L763.3,427.3 L760.0,432.4 L759.5,436.6 L756.8,439.8 L753.4,439.8 L752.6,442.3 L749.0,444.9 L746.9,447.7 L743.7,448.9 L740.3,452.0 L739.9,453.4 L736.7,455.1 L733.3,459.3 L729.7,457.6 L729.6,454.2 L727.2,448.8 L725.1,447.4 L724.9,443.1 L723.9,439.8 L719.7,436.8 L717.0,433.1 L717.2,430.8 L713.1,427.4 L711.0,423.6 L707.5,421.1 L705.0,417.0 L704.5,414.7 L702.1,410.3 L700.5,410.6 L695.4,406.3 L695.6,404.2 L698.9,400.0 L704.3,398.7 Z"/>
<path id="US-SD" data-code="SD" data-name="South Dakota" d="M375.8,181.1 L491.3,181.3 L491.0,183.6 L486.8,187.9 L489.5,191.7 L493.0,194.0 L493.0,230.0 L491.0,230.4 L491.9,232.1 L491.3,235.6 L493.3,237.5 L492.1,239.0 L491.6,242.9 L490.3,245.9 L493.1,250.2 L490.3,249.7 L489.3,246.8 L481.2,243.1 L473.9,243.1 L471.7,242.7 L469.9,244.7 L461.9,241.0 L461.4,240.0 L413.2,240.0 L387.0,239.9 L375.7,239.9 L375.6,200.1 L375.9,200.1 L375.8,181.1 Z"/>
<path id="US-TN" data-code="TN" data-name="Tennessee" d="M622.6,370.1 L622.4,366.5 L625.7,367.3 L645.2,366.9 L662.3,367.7 L665.3,367.4 L676.8,368.1 L690.0,368.3 L690.2,368.0 L721.0,368.2 L720.3,372.9 L717.4,373.9 L715.5,377.6 L712.7,376.9 L706.6,380.7 L706.2,378.7 L704.1,380.0 L700.7,384.5 L696.7,385.6 L692.9,388.7 L688.7,388.8 L684.9,391.8 L683.7,395.0 L680.7,395.5 L680.3,400.2 L660.4,400.3 L633.3,400.0 L620.3,400.1 L616.2,400.1 L587.8,400.1 L589.3,399.5 L590.8,396.0 L590.6,391.2 L593.5,387.9 L594.0,384.9 L596.2,383.8 L596.7,380.0 L599.8,375.0 L599.7,370.1 L600.6,370.1 L601.6,370.1 L603.4,369.9 L622.6,370.1 Z"/>
<path id="US-TX" data-code="TX" data-name="Texas" d="M410.3,370.0 L438.3,370.0 L438.3,408.7 L439.5,408.5 L442.9,412.4 L444.8,411.7 L449.7,411.9 L450.8,415.8 L453.9,415.5 L457.3,417.3 L460.3,417.1 L461.6,418.7 L463.5,416.8 L466.5,417.7 L467.8,419.9 L470.0,420.2 L471.1,423.0 L473.9,420.4 L477.5,421.9 L478.8,423.5 L480.6,422.8 L481.9,425.3 L485.8,420.8 L486.9,423.1 L490.3,423.1 L493.5,424.5 L494.6,426.3 L497.7,423.2 L501.0,422.2 L502.5,423.3 L506.1,421.3 L507.0,422.4 L511.0,422.5 L512.0,420.8 L515.9,422.8 L517.5,425.1 L523.4,427.3 L525.0,429.1 L528.0,428.1 L530.2,429.0 L530.2,439.6 L530.2,460.1 L533.6,464.5 L533.7,468.9 L537.9,477.0 L538.2,481.3 L536.6,486.4 L535.0,488.5 L535.6,491.2 L534.5,493.3 L535.6,497.1 L532.0,504.3 L533.4,506.2 L530.8,506.3 L522.8,509.1 L519.9,507.5 L519.4,504.3 L517.4,506.6 L515.9,506.0 L515.2,508.9 L516.8,510.1 L517.0,513.8 L514.2,517.7 L509.5,522.7 L500.2,527.9 L499.3,527.0 L496.5,528.4 L496.4,527.2 L492.6,528.0 L490.8,525.5 L489.7,526.1 L493.8,531.2 L490.8,532.8 L488.1,531.9 L487.6,535.5 L484.2,539.2 L480.6,546.1 L478.3,553.3 L476.6,552.8 L476.2,555.4 L478.0,554.8 L477.1,560.0 L476.0,560.2 L475.9,563.2 L477.3,564.8 L477.7,570.9 L479.4,572.9 L479.9,576.8 L481.2,580.2 L476.5,582.2 L474.5,579.6 L470.9,578.6 L466.1,578.9 L461.9,575.6 L458.8,575.2 L456.4,572.6 L453.2,571.7 L451.0,569.2 L449.6,563.2 L446.8,559.6 L447.1,556.5 L445.9,553.2 L446.3,550.4 L444.4,547.2 L442.7,546.9 L440.1,544.0 L439.3,540.4 L437.0,537.1 L433.7,534.4 L432.1,528.4 L430.6,526.7 L428.5,521.9 L427.9,517.9 L425.9,515.1 L422.6,512.6 L421.9,510.8 L418.8,509.3 L416.5,504.9 L409.7,503.9 L405.6,504.1 L402.2,502.6 L401.4,504.7 L397.7,505.4 L394.9,509.5 L393.2,516.2 L392.3,516.3 L390.2,520.3 L387.6,520.4 L383.8,517.3 L374.3,512.4 L372.4,509.7 L368.7,507.2 L366.1,501.5 L365.9,496.4 L363.3,492.2 L362.7,488.6 L361.0,486.3 L355.0,482.9 L351.8,478.3 L349.2,476.7 L346.4,472.7 L342.5,470.6 L339.8,465.4 L337.5,464.3 L335.7,462.0 L336.2,460.0 L390.9,460.0 L390.9,440.0 L391.3,419.7 L391.4,370.0 L392.0,370.0 L410.3,370.0 Z"/>
<path id="US-UT" data-code="UT" data-name="Utah" d="M250.5,260.1 L267.8,260.0 L267.8,280.0 L298.6,280.0 L298.6,317.5 L298.5,334.5 L298.7,336.7 L298.7,360.0 L276.2,359.9 L221.5,360.0 L221.6,260.1 L250.5,260.1 Z"/>
<path id="US-VT" data-code="VT" data-name="Vermont" d="M878.0,199.7 L878.2,201.7 L876.1,205.0 L877.5,208.3 L875.0,211.7 L869.8,213.5 L869.9,218.5 L868.6,220.1 L867.2,224.6 L864.5,228.5 L863.3,237.0 L863.5,239.8 L862.2,240.9 L862.0,243.9 L863.3,245.4 L850.8,245.1 L850.7,243.3 L851.2,229.5 L848.7,226.2 L849.6,224.6 L848.2,219.1 L850.0,215.1 L850.4,211.2 L849.0,207.6 L849.8,203.9 L849.6,199.7 L865.6,200.0 L878.0,199.7 Z"/>
<path id="US-VA" data-code="VA" data-name="Virginia" d="M817.9,339.7 L820.3,339.4 L818.3,342.8 L816.2,344.0 L814.9,348.6 L811.7,356.1 L809.1,357.6 L808.2,354.8 L809.6,348.7 L813.7,340.9 L817.9,339.7 Z M808.4,340.9 L808.7,340.9 L808.0,340.9 L808.4,340.9 Z M772.4,310.7 L780.4,317.4 L782.1,313.6 L784.5,313.9 L786.2,315.5 L786.2,318.5 L789.4,319.5 L791.4,321.3 L792.6,324.2 L791.2,327.4 L789.4,328.2 L788.2,331.1 L788.9,333.2 L793.0,332.5 L793.8,335.7 L799.2,337.0 L800.7,339.5 L805.0,342.2 L803.1,347.8 L804.8,352.2 L802.7,354.3 L802.5,356.8 L804.4,358.4 L802.3,360.8 L799.1,357.6 L798.3,358.7 L801.1,361.0 L808.7,361.5 L810.7,369.0 L754.5,369.2 L742.4,369.1 L731.8,368.8 L721.0,368.2 L690.2,368.0 L698.5,365.1 L699.5,363.0 L702.5,362.2 L702.7,360.4 L704.9,359.1 L704.9,357.6 L710.6,354.6 L716.5,349.3 L716.3,350.9 L718.4,354.3 L721.0,355.9 L722.9,355.8 L725.9,353.2 L728.0,355.3 L732.0,354.2 L739.0,350.4 L739.6,351.6 L742.3,349.8 L742.4,346.2 L744.1,343.0 L746.9,340.1 L748.1,336.4 L751.2,332.7 L752.4,328.1 L755.0,330.9 L757.5,331.7 L759.1,330.1 L762.4,323.0 L764.4,324.7 L771.5,316.6 L772.4,310.7 Z"/>
<path id="US-WA" data-code="WA" data-name="Washington" d="M175.4,120.0 L175.2,144.8 L175.3,171.5 L175.1,173.1 L177.1,176.6 L177.2,180.1 L145.2,180.0 L143.1,181.3 L136.9,181.8 L130.2,183.5 L126.4,185.5 L121.8,186.0 L119.8,185.1 L111.3,187.9 L110.8,186.6 L105.9,185.5 L101.7,185.8 L94.9,189.0 L87.0,186.8 L86.2,180.8 L84.8,178.4 L81.5,176.3 L80.1,176.5 L77.6,177.1 L74.9,174.8 L72.1,174.0 L69.8,175.2 L66.9,173.5 L67.5,170.7 L69.5,169.3 L66.4,165.1 L64.3,154.3 L63.0,152.9 L61.3,145.2 L58.3,142.2 L57.0,136.3 L58.7,132.4 L61.8,134.2 L68.1,136.8 L72.5,136.6 L76.8,137.6 L80.8,136.6 L82.8,138.4 L86.4,138.3 L88.9,142.7 L90.8,142.3 L91.1,148.3 L92.2,153.6 L93.8,153.1 L92.2,148.5 L92.7,144.0 L95.2,139.4 L93.2,137.5 L93.0,134.2 L91.5,130.6 L92.2,128.0 L91.2,124.9 L88.8,124.5 L86.5,122.2 L87.1,120.0 L175.4,120.0 Z M87.7,133.8 L89.7,132.9 L89.4,137.0 L86.9,135.4 L87.7,133.8 Z M82.9,128.3 L84.6,125.7 L86.9,128.9 L86.2,131.6 L82.7,130.8 L82.9,128.3 Z"/>
<path id="US-WV" data-code="WV" data-name="West Virginia" d="M738.9,287.3 L738.9,305.6 L755.0,305.6 L754.8,315.9 L757.8,314.0 L760.9,310.6 L762.9,311.2 L766.0,308.3 L770.5,309.7 L771.1,307.5 L773.7,307.6 L775.1,306.1 L777.7,308.0 L780.3,308.0 L782.1,313.6 L780.4,317.4 L772.4,310.7 L771.5,316.6 L764.4,324.7 L762.4,323.0 L759.1,330.1 L757.5,331.7 L755.0,330.9 L752.4,328.1 L751.2,332.7 L748.1,336.4 L746.9,340.1 L744.1,343.0 L742.4,346.2 L742.3,349.8 L739.6,351.6 L739.0,350.4 L732.0,354.2 L728.0,355.3 L725.9,353.2 L722.9,355.8 L721.0,355.9 L718.4,354.3 L716.3,350.9 L716.5,349.3 L714.5,348.9 L711.5,346.6 L710.8,344.3 L708.3,341.4 L706.5,337.5 L706.9,331.5 L710.9,331.1 L711.5,328.4 L713.4,327.4 L712.6,324.3 L715.5,319.5 L717.8,322.5 L719.4,320.7 L719.0,318.4 L720.9,314.5 L722.7,314.6 L724.5,311.8 L726.2,313.1 L728.1,312.2 L734.1,305.8 L735.5,298.4 L737.6,293.6 L737.7,290.5 L736.6,288.4 L738.9,287.3 Z"/>
<path id="US-WI" data-code="WI" data-name="Wisconsin" d="M586.2,168.6 L589.1,169.8 L590.7,173.2 L606.6,177.3 L613.2,180.2 L615.3,179.6 L621.9,181.6 L623.6,184.1 L626.8,186.5 L626.7,190.0 L625.2,192.7 L628.9,193.2 L627.4,196.0 L629.8,198.1 L629.2,200.5 L626.2,200.9 L623.7,205.5 L622.8,208.7 L624.6,209.3 L626.9,207.2 L629.5,203.2 L632.7,201.7 L635.2,196.7 L638.4,195.6 L638.2,198.2 L636.0,200.6 L631.7,208.9 L630.5,213.5 L630.6,216.8 L629.0,217.9 L627.5,222.4 L628.0,226.2 L626.7,228.8 L624.8,235.0 L625.2,239.9 L627.1,244.3 L626.5,250.1 L611.3,250.1 L582.7,249.8 L581.6,247.3 L576.1,245.0 L574.9,241.8 L574.4,237.3 L576.3,234.9 L574.0,232.9 L573.8,230.0 L573.0,227.7 L573.4,224.5 L570.5,220.1 L568.0,219.3 L563.6,216.0 L562.9,213.3 L558.1,211.1 L556.5,208.9 L553.3,208.6 L549.2,205.0 L550.3,197.7 L550.0,194.3 L551.8,191.2 L549.8,188.7 L548.1,188.5 L548.3,185.6 L551.9,181.3 L556.3,179.7 L557.2,178.5 L557.2,166.7 L560.3,165.0 L561.5,165.9 L565.0,166.1 L575.7,162.7 L579.7,160.9 L581.0,162.3 L578.9,164.9 L584.0,168.3 L586.2,168.6 Z"/>
<path id="US-WY" data-code="WY" data-name="Wyoming" d="M298.1,200.0 L347.0,200.0 L375.6,200.1 L375.7,239.9 L375.7,279.9 L349.9,280.0 L316.0,279.9 L298.6,280.0 L267.8,280.0 L267.8,260.0 L267.8,210.5 L267.7,200.0 L298.1,200.0 Z"/>
</g>
</svg>