<svg xmlns="http://www.w3.org/2000/svg" viewBox="0 0 1000 620" preserveAspectRatio="xMidYMid meet" class="us-map">
<g class="states" fill="#e5edf4" stroke="#b7c6d5" stroke-width="1" stroke-linejoin="round">
<path id="US-AL" data-code="AL" data-name="Alabama" d="M633.3,400.0 L660.4,400.3 L663.1,417.5 L666.9,442.8 L668.7,448.4 L670.4,451.6 L669.7,453.5 L671.5,454.7 L668.8,457.3 L668.9,459.8 L667.6,463.2 L669.1,469.2 L668.0,474.5 L669.7,479.9 L662.1,480.0 L629.6,480.0 L629.1,482.7 L632.6,486.5 L632.0,489.8 L633.2,491.4 L630.9,494.4 L628.8,495.1 L624.9,491.8 L624.5,486.8 L623.3,486.3 L621.9,490.0 L621.3,493.6 L617.4,492.6 L616.2,462.1 L619.7,424.1 L621.9,402.2 L620.3,400.1 L633.3,400.0 Z"/>
<path id="US-AK" data-code="AK" data-name="Alaska" d="M258.3,560.9 L258.5,559.5 L259.4,560.3 L259.2,561.9 L258.2,561.7 L258.3,560.9 Z M257.4,558.2 L258.2,559.3 L257.7,560.8 L257.4,560.3 L257.4,558.2 Z M252.7,549.1 L253.7,548.9 L254.1,549.2 L254.0,550.5 L253.1,550.8 L252.3,550.0 L252.7,549.1 Z M250.2,549.8 L252.0,550.1 L252.4,551.9 L254.2,553.8 L254.8,555.0 L254.8,556.0 L255.3,556.2 L255.3,557.4 L256.0,558.7 L256.1,559.9 L256.6,559.5 L256.8,560.4 L256.9,563.9 L256.6,564.7 L255.5,564.5 L255.1,562.8 L254.7,562.9 L253.9,561.6 L253.7,562.0 L253.0,561.6 L253.1,562.9 L253.7,562.6 L254.2,563.1 L254.0,564.9 L253.2,564.7 L252.0,562.4 L251.7,561.2 L251.7,560.0 L250.8,560.1 L250.8,559.1 L251.5,559.0 L252.2,558.2 L251.9,556.7 L251.0,556.4 L250.9,554.0 L250.6,552.9 L250.0,553.7 L249.8,552.4 L250.4,551.7 L249.9,550.2 L250.2,549.8 Z M249.6,557.0 L250.4,557.6 L250.9,556.8 L251.5,557.2 L250.9,558.5 L250.0,558.1 L249.6,557.0 Z M248.9,544.6 L248.3,543.7 L249.0,543.1 L251.2,544.0 L252.2,543.9 L252.9,545.6 L254.2,547.0 L254.0,548.0 L253.4,548.6 L252.5,548.3 L251.8,549.0 L250.9,548.6 L249.9,549.0 L249.7,546.8 L249.8,545.5 L249.1,545.4 L248.9,544.6 Z M248.1,548.7 L247.5,548.0 L246.9,546.5 L246.8,545.4 L247.3,544.8 L247.8,545.4 L248.0,544.4 L249.6,546.1 L249.7,547.6 L249.2,547.8 L248.8,549.6 L249.2,550.1 L248.7,552.2 L248.1,551.7 L248.0,553.0 L247.6,552.4 L247.4,549.8 L248.1,548.7 Z M245.9,550.4 L245.8,551.5 L245.3,550.9 L243.7,546.9 L242.8,545.7 L243.1,544.8 L242.7,542.5 L241.7,540.7 L242.7,538.9 L243.2,539.6 L244.2,540.2 L245.1,540.3 L245.1,541.8 L245.9,546.4 L245.9,550.4 Z M245.6,533.0 L247.0,533.7 L247.8,533.6 L247.8,534.3 L248.9,536.7 L248.1,536.3 L247.9,537.2 L248.8,538.5 L249.1,540.7 L248.2,541.3 L247.9,542.1 L246.5,543.7 L246.1,543.7 L245.9,542.0 L246.2,540.9 L246.1,539.4 L245.6,537.5 L245.7,536.5 L245.3,534.1 L244.8,533.1 L244.6,531.3 L245.6,533.0 Z M241.0,541.0 L241.5,541.0 L242.1,542.7 L241.9,543.8 L241.0,544.0 L241.1,542.3 L241.0,541.0 Z M239.2,533.1 L240.5,533.2 L241.3,532.4 L242.4,533.5 L241.8,534.7 L242.0,535.1 L242.6,533.8 L244.0,534.2 L244.8,535.2 L244.4,537.0 L244.7,537.1 L245.2,539.5 L244.1,539.8 L242.1,537.9 L242.2,539.9 L241.6,540.7 L240.8,540.3 L240.4,539.1 L239.5,538.3 L238.9,536.5 L238.0,535.7 L238.1,534.3 L238.7,533.8 L238.8,532.6 L239.2,533.1 Z M195.1,515.2 L193.4,517.5 L193.2,518.3 L191.9,518.9 L192.1,517.6 L193.6,516.1 L194.6,514.6 L195.1,515.2 Z M193.1,511.8 L192.9,513.7 L192.3,515.6 L191.5,514.9 L192.2,512.7 L193.1,511.8 Z M192.2,424.8 L192.6,425.2 L194.8,425.6 L195.9,425.3 L197.4,425.3 L199.1,425.7 L200.1,425.5 L201.1,426.2 L202.8,427.1 L205.2,427.3 L205.8,426.8 L207.4,426.5 L208.0,425.8 L209.7,425.7 L209.7,426.2 L210.7,425.9 L212.8,426.6 L214.2,427.7 L215.5,428.3 L215.8,428.8 L217.0,428.9 L218.2,429.7 L218.4,430.3 L219.1,429.8 L219.9,430.2 L219.9,514.3 L221.8,515.0 L222.1,514.2 L224.1,515.3 L225.3,513.9 L227.8,513.8 L227.3,516.2 L227.9,517.0 L229.3,517.8 L229.7,519.1 L233.8,523.8 L234.5,526.8 L235.2,526.0 L237.0,524.6 L238.0,524.5 L238.5,523.4 L238.4,521.8 L239.1,521.8 L239.3,520.4 L240.6,520.0 L242.5,518.8 L244.4,520.9 L244.2,522.2 L244.6,523.5 L245.7,523.8 L247.0,525.7 L246.9,526.2 L247.5,527.3 L249.2,528.5 L251.9,533.6 L252.3,535.0 L253.2,536.4 L254.4,539.4 L255.7,542.1 L255.2,543.1 L256.5,543.5 L256.2,545.1 L257.2,545.8 L257.4,547.6 L258.4,547.5 L260.4,549.4 L261.7,549.7 L262.4,550.6 L263.0,550.8 L263.2,551.7 L264.5,552.0 L264.9,553.1 L264.3,555.1 L264.4,556.7 L264.9,559.5 L264.5,560.2 L263.5,562.7 L262.1,564.5 L261.7,563.6 L261.1,563.9 L260.8,562.0 L260.9,561.2 L260.4,560.3 L261.4,559.3 L261.1,559.0 L260.2,560.2 L259.6,559.4 L259.1,559.9 L257.4,557.9 L257.9,555.7 L256.9,556.5 L256.8,557.5 L256.0,556.7 L255.8,555.7 L256.4,554.5 L256.2,553.4 L255.4,554.3 L254.6,552.3 L254.1,552.7 L253.8,551.0 L254.6,549.9 L255.3,549.9 L255.1,548.6 L255.5,546.9 L254.9,546.9 L253.6,545.5 L252.7,543.7 L250.5,542.4 L250.6,538.8 L249.9,538.4 L250.0,536.9 L249.3,536.5 L248.3,534.5 L248.0,533.5 L246.1,533.1 L244.2,530.5 L243.3,524.3 L242.9,525.7 L243.1,527.0 L243.9,529.4 L243.7,529.8 L244.2,531.9 L244.1,533.2 L243.3,532.9 L242.7,531.4 L241.9,531.2 L240.7,531.6 L240.7,529.4 L240.0,527.7 L239.4,528.2 L236.8,526.3 L236.6,526.9 L238.0,527.5 L239.1,528.9 L239.5,529.0 L239.6,530.2 L240.2,531.6 L238.8,532.3 L238.0,531.9 L237.9,533.1 L236.9,532.2 L236.5,531.5 L235.8,531.5 L234.0,529.7 L232.6,528.1 L232.5,527.2 L231.7,525.8 L229.6,524.8 L228.4,523.8 L226.4,522.6 L225.1,521.5 L225.2,520.2 L225.6,520.6 L226.0,519.8 L225.6,518.1 L226.1,517.1 L225.9,516.6 L224.8,518.5 L222.7,519.7 L220.2,519.3 L218.1,518.2 L218.0,517.3 L217.1,517.5 L216.0,516.8 L213.7,516.2 L212.3,516.2 L209.2,516.7 L208.1,517.0 L206.7,515.7 L205.0,515.1 L204.5,514.4 L204.3,513.0 L203.1,513.1 L202.7,514.3 L200.6,512.7 L200.3,512.0 L198.1,513.3 L197.0,514.8 L196.6,513.4 L197.0,512.6 L197.7,512.8 L199.7,511.8 L199.4,511.0 L198.5,511.4 L198.1,510.4 L197.2,510.2 L196.3,507.6 L196.0,508.2 L194.7,508.6 L194.3,508.2 L193.9,509.1 L192.3,508.8 L192.3,509.7 L191.2,510.0 L190.7,509.6 L191.1,507.9 L190.6,508.0 L189.9,509.8 L190.9,510.4 L191.0,511.6 L191.6,513.0 L191.2,514.5 L190.4,514.0 L190.2,514.8 L191.0,515.0 L191.4,517.0 L190.3,517.4 L189.7,517.0 L188.7,517.6 L188.3,517.1 L187.0,517.2 L187.0,516.4 L186.4,516.9 L186.1,517.9 L185.5,517.0 L184.9,518.2 L185.2,518.7 L184.2,519.4 L183.4,519.5 L183.0,520.5 L182.1,521.3 L181.5,521.0 L180.8,522.0 L180.2,521.9 L179.1,524.0 L177.8,524.1 L177.4,523.5 L176.7,524.6 L175.1,523.7 L175.5,522.2 L176.5,521.7 L177.2,521.8 L177.4,521.2 L178.6,520.0 L178.6,519.0 L177.0,520.3 L175.7,519.5 L175.5,519.0 L176.2,516.7 L177.4,515.1 L177.5,513.8 L177.9,513.5 L178.0,512.1 L177.4,510.5 L178.8,509.9 L181.5,507.7 L182.2,508.5 L183.0,508.8 L184.2,507.9 L182.9,506.6 L182.3,505.7 L181.3,505.8 L180.5,505.3 L180.3,505.7 L179.0,506.4 L178.4,507.6 L177.1,507.9 L175.8,509.3 L175.7,510.3 L174.7,510.8 L174.4,511.8 L173.7,512.4 L173.4,514.3 L172.0,515.4 L172.7,516.4 L172.1,517.8 L170.8,518.0 L170.7,519.8 L169.5,520.4 L169.1,519.7 L168.5,521.1 L167.8,521.1 L167.9,522.1 L166.3,522.7 L166.0,525.4 L167.8,525.5 L169.3,526.3 L169.7,527.2 L169.1,528.6 L168.1,529.5 L167.2,529.5 L167.2,530.3 L166.6,530.6 L166.8,531.6 L166.2,533.1 L164.9,534.5 L164.2,534.5 L163.5,535.0 L162.8,534.9 L162.3,535.4 L162.4,536.1 L161.4,536.5 L161.2,537.6 L160.5,536.9 L159.7,539.1 L158.5,538.9 L158.6,540.0 L157.8,539.7 L157.3,540.2 L157.3,541.8 L156.4,544.1 L155.0,544.4 L153.9,545.5 L153.7,546.1 L153.0,545.3 L151.8,547.5 L151.5,546.9 L150.8,547.1 L150.7,548.4 L150.0,548.9 L149.1,548.7 L148.5,549.9 L149.6,550.3 L148.4,553.2 L144.9,554.1 L143.9,556.6 L143.6,556.1 L143.8,554.5 L143.1,554.3 L142.2,554.9 L142.1,555.5 L140.7,556.6 L140.1,557.7 L139.9,556.9 L139.6,557.9 L138.8,557.2 L137.3,558.8 L136.2,558.7 L136.3,557.5 L135.8,556.4 L135.4,557.3 L135.4,558.3 L133.9,561.3 L133.4,560.6 L133.2,561.7 L132.2,561.5 L132.1,559.8 L131.4,559.4 L131.2,560.0 L131.8,560.8 L131.5,562.0 L130.7,562.7 L130.0,561.3 L129.3,561.2 L129.2,561.7 L129.9,562.5 L128.5,563.8 L129.5,564.1 L129.5,564.7 L128.7,564.3 L127.7,565.5 L125.6,565.4 L124.6,566.2 L124.5,566.8 L123.4,567.5 L122.5,567.2 L122.2,565.6 L123.1,565.0 L123.7,563.0 L124.6,563.0 L126.4,561.6 L127.9,561.6 L128.4,562.9 L128.9,561.9 L128.8,560.8 L129.6,560.3 L130.5,560.3 L131.8,558.0 L133.1,555.9 L134.9,554.0 L137.0,553.1 L137.9,553.5 L138.8,553.0 L139.0,553.8 L138.5,554.7 L139.0,555.4 L139.2,554.3 L140.2,554.2 L140.5,554.9 L141.2,555.1 L141.2,554.3 L140.1,553.5 L140.0,553.1 L140.7,550.7 L141.7,549.4 L143.0,548.1 L145.1,547.0 L146.6,545.4 L147.3,546.0 L147.9,545.7 L147.6,544.7 L147.8,543.7 L148.9,541.6 L150.5,540.3 L151.8,538.5 L151.7,537.5 L152.7,530.5 L154.3,528.7 L154.1,527.2 L150.3,529.3 L149.1,529.0 L148.8,528.2 L148.2,527.8 L148.0,526.8 L147.3,527.2 L147.0,528.8 L147.6,530.7 L146.8,531.5 L146.1,531.2 L144.8,528.2 L143.9,526.6 L143.4,526.6 L143.1,527.8 L142.7,528.0 L142.1,527.0 L141.4,526.9 L141.0,525.3 L138.8,527.1 L136.9,528.3 L136.7,529.0 L135.2,530.0 L134.4,529.1 L135.1,528.0 L134.8,525.4 L134.3,522.7 L135.4,521.6 L134.5,519.3 L133.8,518.1 L133.2,516.2 L132.3,515.4 L132.1,517.0 L131.0,517.4 L129.4,518.4 L127.3,518.8 L126.2,518.7 L125.3,518.2 L125.2,516.8 L124.4,516.3 L123.1,514.4 L122.0,514.0 L120.8,511.8 L121.6,510.8 L121.8,509.0 L121.2,509.4 L121.1,508.2 L121.4,507.3 L120.6,506.5 L120.5,507.4 L119.5,507.0 L119.3,505.5 L118.5,505.3 L118.1,504.3 L118.1,503.0 L117.4,503.6 L117.2,502.3 L118.2,502.0 L117.4,500.7 L118.8,500.6 L118.8,498.9 L119.1,497.7 L121.7,494.1 L122.2,493.1 L122.6,493.3 L122.4,491.7 L123.4,489.1 L124.2,488.1 L125.8,487.6 L127.1,488.1 L128.8,489.7 L129.9,489.5 L131.4,487.9 L133.0,485.6 L133.8,485.4 L134.0,486.0 L136.0,486.0 L137.7,485.5 L139.2,483.1 L139.2,482.5 L138.4,480.2 L138.3,478.9 L137.1,477.4 L136.7,476.2 L137.9,476.5 L139.0,475.5 L139.1,474.5 L137.6,472.7 L136.5,474.1 L135.5,473.9 L134.5,474.7 L133.5,474.9 L133.2,475.4 L131.9,476.2 L131.5,477.5 L130.9,478.1 L130.6,476.5 L129.9,476.2 L129.3,477.4 L129.0,476.8 L127.6,475.9 L124.7,476.0 L122.7,476.9 L121.9,477.1 L120.2,476.5 L117.0,475.8 L116.2,475.3 L115.8,474.4 L116.1,473.1 L115.0,472.1 L115.2,471.0 L115.9,470.4 L115.7,469.0 L114.5,469.0 L113.6,468.6 L111.8,468.3 L110.8,467.5 L109.3,466.8 L109.2,465.9 L111.5,464.6 L114.4,462.6 L116.4,461.3 L117.6,462.0 L118.8,462.2 L119.1,461.2 L118.3,461.0 L118.3,460.2 L121.1,458.8 L124.3,457.8 L126.0,457.7 L127.0,458.0 L126.5,459.5 L126.7,460.5 L126.3,461.3 L126.9,462.5 L128.0,462.3 L129.4,462.5 L131.1,462.2 L131.5,462.6 L132.6,462.7 L133.6,462.3 L134.8,462.8 L136.0,460.8 L136.8,460.7 L137.4,461.1 L137.7,460.0 L136.1,459.4 L134.5,459.9 L134.7,458.4 L133.4,456.8 L132.1,456.3 L131.7,454.9 L132.7,454.6 L134.1,456.0 L133.8,457.1 L134.5,458.0 L135.9,459.1 L136.2,458.0 L134.6,456.5 L135.3,454.0 L134.7,453.5 L133.2,454.1 L131.5,453.9 L131.3,453.5 L130.5,453.9 L127.0,452.8 L127.0,451.7 L125.9,449.2 L125.1,448.3 L123.8,447.5 L121.1,445.3 L119.9,444.5 L118.6,444.3 L116.8,442.8 L115.0,441.9 L114.9,441.7 L116.3,441.2 L116.9,439.8 L116.9,437.1 L120.5,437.3 L124.9,436.6 L126.1,436.1 L127.9,434.7 L129.6,432.6 L130.0,430.5 L130.7,428.7 L132.2,427.2 L132.9,426.0 L134.7,424.2 L135.0,424.7 L136.6,424.8 L138.9,423.9 L140.3,422.9 L143.7,419.9 L145.0,419.7 L145.2,420.2 L146.5,419.8 L147.8,419.9 L150.3,419.5 L152.9,418.2 L155.3,415.4 L156.3,414.8 L156.5,415.3 L160.3,416.5 L160.7,417.3 L159.3,418.3 L158.7,418.3 L158.8,419.7 L160.7,419.3 L160.8,418.5 L161.7,417.8 L162.0,418.2 L162.6,416.7 L164.5,418.1 L164.2,419.2 L165.4,419.5 L166.1,420.1 L167.1,419.1 L168.9,419.0 L170.0,418.7 L172.6,419.0 L173.9,419.4 L173.3,421.5 L175.7,422.1 L175.9,422.6 L178.3,423.6 L178.3,423.1 L180.1,422.5 L181.7,422.6 L181.7,423.1 L182.7,423.1 L183.7,422.4 L185.4,422.3 L186.5,422.6 L188.1,423.4 L188.9,423.2 L189.9,424.3 L190.5,423.9 L191.5,424.2 L192.2,424.8 Z M171.2,534.8 L171.1,535.2 L169.7,534.6 L170.7,532.2 L171.7,532.1 L172.3,529.9 L173.0,531.8 L173.6,531.2 L174.7,532.2 L174.7,533.6 L173.0,533.8 L172.3,534.5 L171.2,534.8 Z M167.0,539.2 L168.2,538.0 L167.1,537.7 L167.1,536.7 L168.0,536.0 L168.6,536.5 L168.7,537.5 L169.0,536.8 L169.1,535.3 L169.8,536.0 L170.0,535.0 L170.6,535.6 L171.4,535.6 L172.1,535.1 L173.1,536.0 L173.1,538.6 L174.4,538.4 L173.5,540.1 L172.0,539.4 L172.5,540.6 L172.1,541.5 L171.3,541.1 L171.3,542.8 L170.0,543.3 L169.6,544.1 L168.9,543.4 L168.1,545.3 L167.4,545.5 L166.8,546.3 L166.5,544.3 L165.6,545.4 L165.5,544.7 L164.7,544.1 L164.6,542.3 L163.8,541.5 L164.3,539.4 L165.9,538.1 L166.9,538.2 L167.0,539.2 Z M164.6,547.6 L163.8,549.4 L163.5,549.1 L164.6,547.6 Z M160.1,553.7 L160.8,553.8 L160.6,555.7 L159.5,555.4 L159.3,554.8 L160.1,553.7 Z M142.8,559.5 L142.5,561.4 L141.3,563.0 L141.9,560.5 L142.3,560.8 L142.8,559.5 Z M140.2,558.8 L140.9,558.8 L140.9,559.8 L140.2,560.8 L139.5,560.1 L139.1,560.8 L138.8,559.1 L139.0,558.6 L140.2,558.8 Z M133.1,562.2 L133.2,563.0 L132.7,563.5 L132.4,562.6 L133.1,562.2 Z M132.4,484.3 L131.8,485.2 L131.6,484.4 L132.4,484.3 Z M130.9,566.6 L131.7,567.0 L131.6,567.7 L130.9,567.6 L130.9,566.6 Z M119.6,568.3 L119.9,569.4 L119.3,569.8 L119.1,568.7 L119.6,568.3 Z M118.9,569.6 L117.6,570.6 L117.3,569.9 L117.9,569.0 L118.9,569.6 Z M116.3,513.8 L117.2,513.4 L117.5,514.1 L118.3,513.9 L119.1,514.5 L119.2,517.1 L118.8,517.9 L117.8,518.4 L117.5,519.3 L116.0,518.3 L115.3,518.3 L113.7,517.1 L113.2,517.1 L112.3,516.3 L112.0,515.1 L112.4,514.8 L114.0,515.1 L114.7,514.2 L115.4,514.1 L115.8,513.5 L116.3,513.8 Z M116.3,570.9 L116.9,571.6 L115.6,573.3 L115.6,573.6 L117.3,572.3 L117.3,573.0 L116.6,573.9 L115.5,574.4 L115.4,575.2 L114.2,576.1 L113.2,576.2 L112.5,577.0 L111.2,577.7 L110.5,577.0 L111.8,576.0 L112.3,576.2 L113.3,575.4 L113.0,574.5 L113.6,573.6 L114.5,574.0 L114.6,573.4 L113.6,573.2 L113.1,572.6 L113.6,571.5 L115.2,570.8 L115.5,572.1 L116.3,570.9 Z M106.4,578.6 L108.0,576.9 L108.1,576.1 L108.7,575.3 L109.6,574.9 L110.1,575.3 L110.3,576.5 L108.5,577.8 L107.6,579.7 L106.8,580.3 L106.4,578.6 Z M102.5,581.0 L102.7,581.8 L101.6,581.9 L101.5,581.3 L102.5,581.0 Z M100.8,542.0 L100.3,542.8 L100.2,542.0 L100.8,542.0 Z M98.7,582.7 L99.0,583.6 L98.2,584.2 L98.1,583.3 L98.7,582.7 Z M94.3,483.5 L97.6,484.9 L99.5,483.7 L100.3,483.8 L101.1,484.5 L101.3,485.6 L102.9,486.2 L103.4,486.7 L105.5,487.0 L106.8,487.3 L106.1,488.7 L105.1,488.4 L104.0,488.6 L103.4,489.2 L102.9,490.5 L102.1,489.3 L101.2,488.5 L100.4,488.4 L100.0,487.4 L97.9,486.3 L97.0,486.2 L95.5,487.2 L94.4,486.7 L93.9,485.6 L94.3,483.5 Z M91.5,585.5 L91.6,586.5 L90.8,586.7 L91.0,585.8 L91.5,585.5 Z M86.6,587.7 L87.2,588.0 L88.7,588.0 L88.8,588.3 L86.9,588.7 L86.6,587.7 Z M83.8,586.5 L83.8,585.6 L84.4,585.2 L85.2,586.1 L84.9,587.0 L84.4,586.9 L84.5,587.9 L83.7,588.0 L82.1,588.9 L81.2,588.6 L81.4,588.0 L82.4,588.0 L83.8,586.5 Z M75.0,590.3 L75.8,590.2 L75.8,591.3 L74.8,591.2 L73.7,592.5 L73.2,590.7 L73.7,590.7 L73.8,589.3 L74.4,589.3 L74.4,590.3 L75.0,590.3 Z M72.2,589.5 L72.7,589.9 L72.4,591.5 L71.7,591.9 L71.7,591.0 L72.2,589.5 Z M68.3,589.7 L69.0,589.8 L69.6,590.9 L68.9,592.1 L68.3,589.7 Z M32.4,580.1 L33.2,580.7 L33.2,581.6 L31.6,582.1 L30.5,580.7 L30.5,580.0 L32.4,580.1 Z"/>
<path id="US-AZ" data-code="AZ" data-name="Arizona" d="M298.7,360.0 L298.6,473.4 L267.4,473.4 L249.3,465.9 L209.6,450.1 L211.1,445.7 L214.1,444.9 L215.0,443.1 L214.1,439.4 L212.0,439.3 L211.0,431.9 L214.1,429.0 L214.5,426.0 L213.9,421.3 L215.8,417.8 L218.3,416.5 L220.1,413.9 L217.1,411.0 L215.0,405.8 L212.4,402.5 L212.4,400.0 L213.4,397.2 L213.0,393.5 L211.7,389.7 L210.8,378.0 L216.5,377.2 L218.3,379.6 L219.9,379.5 L221.5,376.1 L221.5,360.0 L276.2,359.9 L298.7,360.0 Z"/>
<path id="US-AR" data-code="AR" data-name="Arkansas" d="M523.6,370.0 L590.2,370.1 L591.6,373.9 L589.2,376.3 L586.8,380.0 L596.7,380.0 L596.2,383.8 L594.0,384.9 L593.5,387.9 L590.6,391.2 L590.8,396.0 L589.3,399.5 L587.8,400.1 L588.7,401.8 L586.3,403.4 L585.2,406.8 L583.6,407.6 L583.8,411.6 L581.0,412.7 L581.1,414.0 L577.9,417.3 L578.8,419.5 L576.0,422.7 L573.6,428.8 L576.3,431.4 L574.9,433.1 L575.8,437.2 L574.6,440.0 L536.9,439.6 L530.2,439.6 L530.2,429.0 L528.0,428.1 L525.0,429.1 L523.4,427.3 L524.2,392.1 L521.4,370.0 L523.6,370.0 Z"/>
<path id="US-CA" data-code="CA" data-name="California" d="M79.7,259.9 L92.9,259.8 L113.6,260.1 L129.6,260.1 L129.7,294.7 L129.6,320.0 L149.5,338.0 L168.2,355.6 L183.0,370.0 L193.7,380.6 L212.4,400.0 L212.4,402.5 L215.0,405.8 L217.1,411.0 L220.1,413.9 L218.3,416.5 L215.8,417.8 L213.9,421.3 L214.5,426.0 L214.1,429.0 L211.0,431.9 L212.0,439.3 L214.1,439.4 L215.0,443.1 L214.1,444.9 L211.1,445.7 L190.6,447.5 L174.0,449.3 L172.1,446.6 L172.0,442.5 L170.8,437.5 L168.6,434.0 L163.8,429.2 L157.7,424.7 L156.5,425.9 L154.1,425.2 L154.4,423.2 L151.7,419.1 L148.1,420.0 L141.7,417.1 L140.7,414.7 L136.4,411.7 L131.5,411.8 L127.5,410.5 L122.3,411.0 L119.6,408.4 L120.2,402.8 L119.3,401.9 L119.9,398.0 L115.8,395.0 L115.6,391.0 L114.1,390.8 L111.6,387.3 L109.8,386.5 L109.1,384.3 L103.1,376.1 L100.3,373.7 L99.8,367.2 L100.9,367.8 L102.0,363.9 L99.8,360.4 L97.1,360.9 L93.6,357.7 L92.3,355.2 L92.6,352.8 L90.8,349.6 L90.8,344.3 L93.7,344.3 L92.5,337.0 L91.2,337.8 L91.0,341.4 L87.9,342.1 L84.3,339.4 L83.7,334.7 L81.3,331.0 L78.2,328.7 L76.5,326.0 L71.9,320.9 L72.7,319.4 L70.6,312.7 L71.5,308.9 L70.2,303.4 L66.2,297.9 L62.3,294.8 L61.6,291.2 L65.4,282.4 L66.2,279.5 L65.4,277.2 L66.9,271.2 L65.6,265.7 L63.9,264.4 L64.6,260.0 L79.7,259.9 Z"/>
<path id="US-CO" data-code="CO" data-name="Colorado" d="M316.0,279.9 L349.9,280.0 L375.7,279.9 L406.6,279.9 L406.6,300.0 L406.7,360.1 L392.0,360.0 L371.3,360.1 L332.3,360.1 L323.7,360.0 L298.7,360.0 L298.7,336.7 L298.5,334.5 L298.6,317.5 L298.6,280.0 L316.0,279.9 Z"/>
<path id="US-CT" data-code="CT" data-name="Connecticut" d="M854.1,259.2 L873.5,259.5 L873.5,259.9 L873.5,271.7 L872.5,273.6 L871.2,273.2 L864.4,274.8 L856.4,274.3 L852.9,277.1 L849.2,278.0 L844.8,280.3 L843.7,278.0 L847.5,275.8 L846.4,274.1 L847.4,259.0 L854.1,259.2 Z"/>
<path id="US-DE" data-code="DE" data-name="Delaware" d="M817.7,303.9 L816.3,306.3 L814.6,307.6 L815.0,310.8 L817.3,313.8 L817.9,318.7 L821.2,323.8 L822.7,324.1 L823.4,331.0 L813.4,330.7 L811.9,305.6 L814.6,303.4 L817.7,303.9 Z"/>
<path id="US-FL" data-code="FL" data-name="Florida" d="M662.1,480.0 L669.7,479.9 L671.8,485.7 L692.9,487.1 L712.7,488.6 L713.5,492.9 L715.3,492.8 L716.0,488.7 L715.4,485.0 L716.9,483.4 L720.4,485.1 L724.6,485.9 L725.6,494.5 L727.5,504.3 L732.0,517.1 L738.8,530.8 L737.8,531.8 L738.2,538.1 L741.0,545.2 L745.5,559.6 L746.4,564.1 L746.4,568.7 L744.7,585.2 L743.2,585.5 L741.7,590.7 L742.2,592.3 L739.3,596.1 L738.1,595.2 L735.2,596.7 L730.3,597.6 L728.9,595.5 L729.5,592.4 L726.1,583.6 L723.4,581.9 L721.0,583.1 L719.1,578.2 L718.6,574.1 L715.4,569.7 L714.7,566.7 L715.2,562.4 L713.4,561.7 L713.8,564.2 L712.2,564.8 L707.3,554.0 L705.4,551.2 L710.0,543.3 L707.0,543.7 L704.9,546.2 L702.9,542.3 L705.6,531.3 L706.1,522.2 L704.3,520.0 L703.7,517.1 L700.7,516.4 L697.2,511.6 L694.5,509.6 L694.3,506.7 L692.3,505.6 L690.7,502.3 L684.8,497.9 L679.7,498.9 L679.9,502.0 L678.2,501.4 L671.8,505.1 L665.0,506.0 L665.1,503.8 L663.5,501.2 L655.5,495.3 L649.7,492.8 L644.6,492.1 L640.3,492.5 L630.9,494.4 L633.2,491.4 L632.0,489.8 L632.6,486.5 L629.1,482.7 L629.6,480.0 L662.1,480.0 Z"/>
<path id="US-GA" data-code="GA" data-name="Georgia" d="M698.9,400.0 L695.6,404.2 L695.4,406.3 L700.5,410.6 L702.1,410.3 L704.5,414.7 L705.0,417.0 L707.5,421.1 L711.0,423.6 L713.1,427.4 L717.2,430.8 L717.0,433.1 L719.7,436.8 L723.9,439.8 L724.9,443.1 L725.1,447.4 L727.2,448.8 L729.6,454.2 L729.7,457.6 L733.3,459.3 L729.5,466.1 L728.8,469.6 L727.2,472.7 L727.0,475.9 L725.3,477.3 L724.6,485.9 L720.4,485.1 L716.9,483.4 L715.4,485.0 L716.0,488.7 L715.3,492.8 L713.5,492.9 L712.7,488.6 L692.9,487.1 L671.8,485.7 L669.7,479.9 L668.0,474.5 L669.1,469.2 L667.6,463.2 L668.9,459.8 L668.8,457.3 L671.5,454.7 L669.7,453.5 L670.4,451.6 L668.7,448.4 L666.9,442.8 L663.1,417.5 L660.4,400.3 L680.3,400.2 L691.1,400.3 L698.9,400.0 Z"/>
<path id="US-HI" data-code="HI" data-name="Hawaii" d="M365.8,593.4 L359.3,591.0 L358.3,588.5 L359.2,582.3 L354.6,571.5 L358.2,568.0 L360.8,563.1 L358.9,559.9 L359.5,556.5 L366.8,560.5 L375.0,563.4 L380.0,567.7 L380.0,571.4 L387.5,577.3 L382.9,582.3 L374.7,584.6 L369.0,588.2 L365.8,593.4 Z M340.8,535.2 L343.8,539.0 L347.7,537.3 L356.2,541.8 L354.9,545.8 L346.3,547.7 L344.5,547.0 L344.1,542.1 L339.7,541.0 L337.9,538.2 L340.8,535.2 Z M330.5,530.1 L327.9,533.0 L321.8,533.0 L323.7,529.8 L330.5,530.1 Z M305.0,516.5 L307.9,523.1 L306.5,526.9 L300.9,527.5 L297.1,519.7 L300.4,519.5 L305.0,516.5 Z M265.3,501.6 L268.3,501.9 L269.7,504.8 L268.8,509.0 L265.8,511.6 L257.5,508.3 L258.5,503.7 L265.3,501.6 Z"/>
<path id="US-ID" data-code="ID" data-name="Idaho" d="M190.6,120.0 L190.6,140.5 L195.6,146.1 L195.7,151.5 L198.6,154.0 L201.8,154.8 L202.1,156.3 L207.9,161.6 L208.5,163.8 L212.6,165.9 L212.8,167.2 L217.2,167.1 L215.0,174.5 L214.6,179.3 L216.2,182.3 L213.4,184.5 L214.5,186.6 L213.8,188.8 L217.1,190.9 L220.9,188.1 L222.4,185.9 L225.2,187.9 L224.8,189.6 L226.3,193.4 L228.8,197.4 L230.7,198.9 L230.6,202.7 L232.4,204.3 L235.6,204.6 L237.6,211.0 L239.4,212.1 L241.0,210.3 L245.8,210.4 L249.4,208.6 L251.5,209.6 L255.1,208.7 L255.9,209.8 L259.0,209.1 L262.5,204.9 L265.0,208.4 L267.8,210.5 L267.8,260.0 L250.5,260.1 L221.6,260.1 L175.5,260.0 L175.5,223.4 L177.5,216.8 L176.2,215.2 L173.3,214.9 L172.2,212.1 L175.3,205.0 L176.9,204.3 L178.5,201.4 L178.3,199.5 L180.1,197.1 L181.0,193.6 L184.2,187.7 L182.9,185.0 L179.3,183.5 L177.2,180.1 L177.1,176.6 L175.1,173.1 L175.3,171.5 L175.2,144.8 L175.4,120.0 L190.6,120.0 Z"/>
<path id="US-IL" data-code="IL" data-name="Illinois" d="M582.7,249.8 L611.3,250.1 L626.5,250.1 L626.0,254.0 L628.4,258.5 L630.8,265.8 L630.7,313.0 L629.0,316.6 L631.0,320.9 L631.2,324.4 L629.3,327.2 L628.8,329.9 L626.0,334.1 L624.2,334.5 L624.6,337.0 L623.5,338.0 L622.5,342.7 L623.0,344.0 L621.0,346.9 L622.4,350.4 L616.1,352.2 L615.5,354.3 L617.0,356.9 L615.0,358.6 L609.3,355.5 L607.6,355.7 L605.2,359.2 L606.0,360.3 L603.5,360.1 L600.0,354.4 L601.3,353.1 L600.0,349.3 L600.0,346.2 L595.1,341.9 L593.4,342.4 L591.7,339.7 L587.1,335.7 L587.2,332.5 L589.8,327.4 L589.4,325.5 L590.9,323.1 L588.7,321.7 L585.3,320.8 L583.6,322.6 L582.4,321.4 L581.4,314.9 L576.2,310.6 L571.5,305.4 L569.5,299.3 L569.4,295.3 L570.7,292.4 L571.0,288.8 L575.3,286.6 L575.7,283.5 L577.7,281.6 L578.0,278.1 L575.4,275.2 L576.5,271.7 L582.5,270.7 L587.3,268.2 L587.8,265.1 L589.8,263.8 L590.4,260.0 L590.0,257.5 L586.5,255.5 L586.1,253.4 L582.7,249.8 Z"/>
<path id="US-IN" data-code="IN" data-name="Indiana" d="M654.5,264.8 L672.7,264.8 L672.7,266.1 L672.8,290.0 L672.6,317.9 L671.4,318.8 L672.7,324.3 L669.9,324.4 L667.1,326.3 L663.1,325.4 L663.3,329.3 L660.6,331.0 L659.6,333.5 L656.9,334.5 L655.5,339.5 L653.7,340.8 L650.3,339.0 L649.7,336.7 L646.3,339.2 L646.5,341.4 L643.1,342.1 L642.1,340.2 L638.2,342.1 L636.9,344.2 L633.0,341.3 L631.0,341.9 L629.6,340.5 L628.4,341.9 L624.5,342.1 L623.0,344.0 L622.5,342.7 L623.5,338.0 L624.6,337.0 L624.2,334.5 L626.0,334.1 L628.8,329.9 L629.3,327.2 L631.2,324.4 L631.0,320.9 L629.0,316.6 L630.7,313.0 L630.8,265.8 L632.3,267.1 L637.1,267.1 L641.6,264.8 L654.5,264.8 Z"/>
<path id="US-IA" data-code="IA" data-name="Iowa" d="M571.5,230.0 L573.8,230.0 L574.0,232.9 L576.3,234.9 L574.4,237.3 L574.9,241.8 L576.1,245.0 L581.6,247.3 L582.7,249.8 L586.1,253.4 L586.5,255.5 L590.0,257.5 L590.4,260.0 L589.8,263.8 L587.8,265.1 L587.3,268.2 L582.5,270.7 L576.5,271.7 L575.4,275.2 L578.0,278.1 L577.7,281.6 L575.7,283.5 L575.3,286.6 L571.0,288.8 L570.7,292.4 L569.0,291.8 L565.9,287.7 L564.3,287.8 L542.3,288.4 L521.1,288.6 L503.6,288.2 L501.8,285.6 L502.7,280.5 L501.2,276.0 L501.2,270.9 L498.5,269.2 L498.1,266.4 L499.0,264.0 L498.0,260.5 L495.9,259.2 L493.1,250.2 L490.3,245.9 L491.6,242.9 L492.1,239.0 L493.3,237.5 L491.3,235.6 L491.9,232.1 L491.0,230.4 L493.0,230.0 L571.5,230.0 Z"/>
<path id="US-KS" data-code="KS" data-name="Kansas" d="M408.9,300.0 L510.7,300.0 L512.2,301.8 L517.2,303.4 L513.7,309.2 L515.7,311.1 L518.1,315.9 L521.4,316.8 L521.4,360.0 L436.9,360.0 L406.7,360.1 L406.6,300.0 L408.9,300.0 Z"/>
<path id="US-KY" data-code="KY" data-name="Kentucky" d="M686.7,324.6 L690.1,327.4 L692.6,325.9 L698.4,327.5 L700.1,325.5 L702.3,324.8 L703.0,328.2 L704.8,328.8 L706.9,331.5 L706.5,337.5 L708.3,341.4 L710.8,344.3 L711.5,346.6 L714.5,348.9 L716.5,349.3 L710.6,354.6 L704.9,357.6 L704.9,359.1 L702.7,360.4 L702.5,362.2 L699.5,363.0 L698.5,365.1 L690.2,368.0 L690.0,368.3 L676.8,368.1 L665.3,367.4 L662.3,367.7 L645.2,366.9 L625.7,367.3 L622.4,366.5 L622.6,370.1 L603.4,369.9 L601.6,370.1 L602.4,367.6 L604.7,368.4 L606.0,360.3 L605.2,359.2 L607.6,355.7 L609.3,355.5 L615.0,358.6 L617.0,356.9 L615.5,354.3 L616.1,352.2 L622.4,350.4 L621.0,346.9 L623.0,344.0 L624.5,342.1 L628.4,341.9 L629.6,340.5 L631.0,341.9 L633.0,341.3 L636.9,344.2 L638.2,342.1 L642.1,340.2 L643.1,342.1 L646.5,341.4 L646.3,339.2 L649.7,336.7 L650.3,339.0 L653.7,340.8 L655.5,339.5 L656.9,334.5 L659.6,333.5 L660.6,331.0 L663.3,329.3 L663.1,325.4 L667.1,326.3 L669.9,324.4 L672.7,324.3 L671.4,318.8 L672.6,317.9 L678.5,317.9 L681.6,322.1 L681.9,323.8 L686.7,324.6 Z"/>
<path id="US-LA" data-code="LA" data-name="Louisiana" d="M536.9,439.6 L574.6,440.0 L576.0,442.3 L574.9,443.1 L574.8,447.2 L577.1,449.7 L577.4,455.6 L575.5,460.2 L571.9,463.1 L571.0,467.6 L569.4,467.1 L569.2,474.5 L567.3,474.7 L568.4,478.6 L567.3,480.0 L596.5,480.0 L595.0,486.6 L597.5,491.0 L598.1,494.3 L600.0,496.4 L595.4,499.1 L595.1,501.1 L598.8,502.4 L600.4,499.2 L603.6,502.4 L603.3,504.9 L601.5,506.0 L598.0,505.0 L598.4,506.9 L597.3,509.7 L600.2,512.3 L604.9,513.0 L606.6,516.0 L608.0,516.4 L605.5,519.8 L602.8,519.2 L600.6,515.6 L594.9,513.8 L594.9,510.4 L592.1,511.5 L592.3,514.3 L591.0,517.0 L589.0,517.4 L587.5,514.4 L583.9,514.3 L582.6,517.4 L580.3,518.3 L577.7,516.4 L575.7,516.2 L573.8,511.3 L570.3,509.1 L568.9,509.4 L567.6,505.2 L563.5,505.8 L563.4,503.3 L559.5,505.7 L560.0,507.5 L556.9,509.3 L552.2,508.4 L546.7,505.7 L542.8,504.5 L534.5,505.5 L533.4,506.2 L532.0,504.3 L535.6,497.1 L534.5,493.3 L535.6,491.2 L535.0,488.5 L536.6,486.4 L538.2,481.3 L537.9,477.0 L533.7,468.9 L533.6,464.5 L530.2,460.1 L530.2,439.6 L536.9,439.6 Z"/>
<path id="US-ME" data-code="ME" data-name="Maine" d="M890.4,238.8 L888.5,237.4 L888.8,235.4 L886.3,233.1 L885.3,206.9 L884.5,193.9 L891.2,191.2 L890.1,189.8 L892.7,186.7 L895.3,185.3 L894.8,184.1 L897.2,182.2 L896.5,178.7 L898.0,173.5 L900.4,171.7 L901.3,166.1 L913.2,150.8 L916.0,151.4 L916.2,155.2 L918.2,156.5 L923.2,154.3 L926.3,154.3 L928.5,152.9 L932.8,156.0 L935.3,158.7 L935.5,181.1 L935.2,186.5 L940.5,187.9 L939.7,190.2 L941.1,192.4 L940.0,194.4 L942.2,197.4 L945.1,196.8 L947.9,203.9 L944.6,207.1 L942.8,205.9 L941.3,208.1 L939.1,207.5 L938.8,209.4 L935.9,209.2 L931.4,213.4 L930.3,210.5 L928.7,210.3 L929.4,213.4 L925.9,215.0 L925.0,212.4 L923.3,213.8 L919.4,213.8 L919.3,210.8 L916.9,211.5 L917.3,213.5 L915.1,217.9 L915.6,219.1 L912.7,221.5 L909.8,220.7 L908.1,223.2 L905.8,223.5 L903.8,225.6 L901.5,225.2 L900.8,223.0 L897.3,226.5 L898.2,228.7 L895.7,229.4 L895.5,231.3 L892.7,233.6 L890.4,238.8 Z"/>
<path id="US-MD" data-code="MD" data-name="Maryland" d="M808.7,340.9 L808.4,340.9 L808.0,340.9 L808.7,340.9 Z M755.0,305.6 L811.9,305.6 L813.4,330.7 L823.4,331.0 L820.3,339.4 L817.9,339.7 L813.7,340.9 L810.4,341.8 L810.5,338.5 L809.2,337.2 L811.0,335.8 L808.6,332.5 L807.9,333.9 L804.7,333.6 L803.6,330.0 L804.6,330.0 L804.7,325.3 L805.7,323.4 L804.3,317.1 L806.0,313.3 L808.6,312.7 L809.1,308.8 L807.1,309.3 L807.0,311.2 L803.0,313.8 L801.8,316.1 L801.5,321.9 L800.0,324.6 L800.7,329.2 L802.7,332.4 L802.5,334.8 L803.7,337.2 L803.1,338.9 L799.5,335.7 L794.4,334.1 L792.9,331.1 L790.1,332.8 L789.0,330.4 L791.2,327.4 L792.6,324.2 L794.6,322.1 L792.7,320.1 L791.4,321.3 L789.4,319.5 L786.2,318.5 L786.2,315.5 L784.5,313.9 L782.1,313.6 L780.3,308.0 L777.7,308.0 L775.1,306.1 L773.7,307.6 L771.1,307.5 L770.5,309.7 L766.0,308.3 L762.9,311.2 L760.9,310.6 L757.8,314.0 L754.8,315.9 L755.0,305.6 Z"/>
<path id="US-MA" data-code="MA" data-name="Massachusetts" d="M887.1,242.2 L888.6,242.6 L889.2,246.1 L888.5,248.9 L886.1,251.6 L886.0,254.6 L889.4,255.1 L891.4,258.2 L891.1,260.8 L892.7,261.4 L892.9,263.7 L897.2,265.7 L902.2,263.8 L901.1,266.6 L893.8,269.0 L891.1,269.1 L889.5,267.2 L886.9,267.8 L886.8,269.2 L884.0,270.1 L882.8,266.4 L882.4,265.8 L880.7,264.4 L879.9,259.7 L877.6,259.7 L873.5,259.9 L873.5,259.5 L854.1,259.2 L847.4,259.0 L847.1,258.2 L850.8,245.1 L863.3,245.4 L881.3,246.1 L882.9,244.2 L887.1,242.2 Z"/>
<path id="US-MI" data-code="MI" data-name="Michigan" d="M693.6,265.4 L672.7,266.1 L672.7,264.8 L654.5,264.8 L641.6,264.8 L644.8,262.2 L646.9,257.7 L648.8,254.9 L650.3,251.1 L651.1,245.6 L650.8,239.7 L646.2,228.1 L647.6,223.7 L646.6,218.5 L650.2,213.1 L650.9,208.6 L650.4,206.2 L653.0,205.2 L653.3,201.9 L657.3,201.1 L660.3,197.4 L660.1,204.7 L661.7,205.0 L663.7,201.4 L663.8,195.2 L665.0,193.7 L669.3,192.7 L667.9,188.5 L670.7,184.8 L674.2,184.6 L678.1,186.9 L681.9,187.3 L683.7,190.1 L686.6,190.3 L691.4,192.9 L693.1,192.8 L695.7,197.1 L693.6,199.4 L695.6,202.4 L696.4,205.8 L695.5,213.2 L692.3,215.1 L691.6,218.9 L687.9,220.2 L685.8,224.8 L686.6,226.6 L690.3,228.2 L693.2,225.7 L696.6,220.6 L701.9,218.6 L704.5,220.1 L706.1,223.0 L707.7,231.3 L708.0,235.4 L709.7,240.5 L708.1,247.7 L705.5,248.8 L705.4,246.2 L703.8,247.0 L701.8,253.0 L698.7,255.3 L697.8,259.9 L693.9,263.7 L693.6,265.4 Z M661.9,185.4 L662.2,187.8 L660.1,188.2 L661.0,184.8 L661.9,185.4 Z M629.8,198.1 L627.4,196.0 L628.9,193.2 L625.2,192.7 L626.7,190.0 L626.8,186.5 L623.6,184.1 L621.9,181.6 L615.3,179.6 L613.2,180.2 L606.6,177.3 L590.7,173.2 L589.1,169.8 L586.2,168.6 L592.2,166.5 L594.9,164.1 L601.7,163.2 L606.0,160.2 L608.1,160.1 L609.8,158.0 L614.6,155.0 L617.0,152.5 L620.7,150.9 L624.1,152.3 L618.0,158.4 L616.6,160.5 L616.7,164.2 L619.7,161.4 L625.0,161.8 L629.1,163.8 L632.8,169.3 L634.9,170.3 L638.8,169.4 L639.7,170.6 L643.6,171.3 L651.9,166.7 L656.2,166.2 L661.9,166.4 L665.8,164.9 L668.8,164.8 L669.4,170.4 L672.4,171.1 L675.4,170.3 L676.7,171.6 L678.7,169.9 L683.2,169.4 L683.3,176.4 L685.3,179.4 L688.4,180.1 L688.7,178.2 L691.7,178.2 L693.3,180.2 L691.9,181.8 L683.5,180.5 L679.4,181.3 L675.0,178.9 L673.7,181.1 L674.3,183.0 L672.4,182.5 L669.5,179.8 L664.5,178.2 L662.0,178.1 L659.5,180.7 L655.5,181.3 L651.1,180.8 L649.3,181.9 L648.9,184.1 L644.1,185.9 L644.3,183.3 L642.2,182.8 L641.4,185.5 L637.8,185.6 L636.2,186.8 L633.9,191.5 L629.5,197.5 L629.8,198.1 Z M611.0,140.5 L607.1,143.0 L605.1,143.3 L605.3,141.2 L615.0,136.5 L613.1,139.8 L611.0,140.5 Z"/>
<path id="US-MN" data-code="MN" data-name="Minnesota" d="M561.5,165.9 L560.3,165.0 L557.2,166.7 L557.2,178.5 L556.3,179.7 L551.9,181.3 L548.3,185.6 L548.1,188.5 L549.8,188.7 L551.8,191.2 L550.0,194.3 L550.3,197.7 L549.2,205.0 L553.3,208.6 L556.5,208.9 L558.1,211.1 L562.9,213.3 L563.6,216.0 L568.0,219.3 L570.5,220.1 L573.4,224.5 L573.0,227.7 L573.8,230.0 L571.5,230.0 L493.0,230.0 L493.0,194.0 L489.5,191.7 L486.8,187.9 L491.0,183.6 L491.3,181.3 L490.8,173.3 L488.9,171.3 L487.6,166.9 L487.9,161.5 L487.3,160.6 L486.8,147.8 L483.7,141.0 L482.6,137.2 L482.1,129.1 L483.1,126.3 L481.0,120.0 L513.1,120.0 L513.1,112.3 L516.1,112.5 L518.1,114.1 L520.2,124.5 L521.8,125.7 L526.8,126.0 L527.4,127.0 L533.4,127.4 L534.0,129.6 L539.1,129.1 L539.1,128.2 L543.1,127.1 L546.5,127.6 L550.5,129.2 L551.6,131.3 L553.9,131.1 L556.0,135.5 L557.0,133.7 L560.9,132.8 L561.6,134.7 L566.2,136.0 L566.2,137.7 L568.4,139.2 L573.1,138.4 L575.9,136.4 L579.7,135.2 L581.0,138.2 L583.6,137.5 L586.8,138.2 L590.4,137.7 L594.6,140.3 L598.5,139.8 L598.2,140.9 L593.0,143.4 L585.8,145.4 L581.2,147.5 L574.5,152.6 L571.6,155.8 L567.3,159.4 L560.3,164.2 L561.5,165.9 Z"/>
<path id="US-MS" data-code="MS" data-name="Mississippi" d="M616.2,400.1 L620.3,400.1 L621.9,402.2 L619.7,424.1 L616.2,462.1 L617.4,492.6 L615.7,493.5 L612.0,493.1 L610.4,491.8 L606.7,492.6 L601.6,494.9 L600.0,496.4 L598.1,494.3 L597.5,491.0 L595.0,486.6 L596.5,480.0 L567.3,480.0 L568.4,478.6 L567.3,474.7 L569.2,474.5 L569.4,467.1 L571.0,467.6 L571.9,463.1 L575.5,460.2 L577.4,455.6 L577.1,449.7 L574.8,447.2 L574.9,443.1 L576.0,442.3 L574.6,440.0 L575.8,437.2 L574.9,433.1 L576.3,431.4 L573.6,428.8 L576.0,422.7 L578.8,419.5 L577.9,417.3 L581.1,414.0 L581.0,412.7 L583.8,411.6 L583.6,407.6 L585.2,406.8 L586.3,403.4 L588.7,401.8 L587.8,400.1 L616.2,400.1 Z"/>
<path id="US-MO" data-code="MO" data-name="Missouri" d="M564.3,287.8 L565.9,287.7 L569.0,291.8 L570.7,292.4 L569.4,295.3 L569.5,299.3 L571.5,305.4 L576.2,310.6 L581.4,314.9 L582.4,321.4 L583.6,322.6 L585.3,320.8 L588.7,321.7 L590.9,323.1 L589.4,325.5 L589.8,327.4 L587.2,332.5 L587.1,335.7 L591.7,339.7 L593.4,342.4 L595.1,341.9 L600.0,346.2 L600.0,349.3 L601.3,353.1 L600.0,354.4 L603.5,360.1 L606.0,360.3 L604.7,368.4 L602.4,367.6 L601.6,370.1 L600.6,370.1 L599.7,370.1 L599.8,375.0 L596.7,380.0 L586.8,380.0 L589.2,376.3 L591.6,373.9 L590.2,370.1 L523.6,370.0 L521.4,370.0 L521.4,360.0 L521.4,316.8 L518.1,315.9 L515.7,311.1 L513.7,309.2 L517.2,303.4 L512.2,301.8 L510.7,300.0 L506.9,294.7 L503.6,288.2 L521.1,288.6 L542.3,288.4 L564.3,287.8 Z"/>
<path id="US-MT" data-code="MT" data-name="Montana" d="M375.8,120.0 L375.9,142.8 L375.8,181.1 L375.9,200.1 L375.6,200.1 L347.0,200.0 L298.1,200.0 L267.7,200.0 L267.8,210.5 L265.0,208.4 L262.5,204.9 L259.0,209.1 L255.9,209.8 L255.1,208.7 L251.5,209.6 L249.4,208.6 L245.8,210.4 L241.0,210.3 L239.4,212.1 L237.6,211.0 L235.6,204.6 L232.4,204.3 L230.6,202.7 L230.7,198.9 L228.8,197.4 L226.3,193.4 L224.8,189.6 L225.2,187.9 L222.4,185.9 L220.9,188.1 L217.1,190.9 L213.8,188.8 L214.5,186.6 L213.4,184.5 L216.2,182.3 L214.6,179.3 L215.0,174.5 L217.2,167.1 L212.8,167.2 L212.6,165.9 L208.5,163.8 L207.9,161.6 L202.1,156.3 L201.8,154.8 L198.6,154.0 L195.7,151.5 L195.6,146.1 L190.6,140.5 L190.6,120.0 L260.8,120.1 L292.4,120.0 L375.8,120.0 Z"/>
<path id="US-NE" data-code="NE" data-name="Nebraska" d="M387.0,239.9 L413.2,240.0 L461.4,240.0 L461.9,241.0 L469.9,244.7 L471.7,242.7 L473.9,243.1 L481.2,243.1 L489.3,246.8 L490.3,249.7 L493.1,250.2 L495.9,259.2 L498.0,260.5 L499.0,264.0 L498.1,266.4 L498.5,269.2 L501.2,270.9 L501.2,276.0 L502.7,280.5 L501.8,285.6 L503.6,288.2 L506.9,294.7 L510.7,300.0 L408.9,300.0 L406.6,300.0 L406.6,279.9 L375.7,279.9 L375.7,239.9 L387.0,239.9 Z"/>
<path id="US-NV" data-code="NV" data-name="Nevada" d="M175.5,260.0 L221.6,260.1 L221.5,360.0 L221.5,376.1 L219.9,379.5 L218.3,379.6 L216.5,377.2 L210.8,378.0 L211.7,389.7 L213.0,393.5 L213.4,397.2 L212.4,400.0 L193.7,380.6 L183.0,370.0 L168.2,355.6 L149.5,338.0 L129.6,320.0 L129.7,294.7 L129.6,260.1 L149.7,260.2 L175.5,260.0 Z"/>
<path id="US-NH" data-code="NH" data-name="New Hampshire" d="M884.5,193.9 L885.3,206.9 L886.3,233.1 L888.8,235.4 L888.5,237.4 L890.4,238.8 L888.6,242.6 L887.1,242.2 L882.9,244.2 L881.3,246.1 L863.3,245.4 L862.0,243.9 L862.2,240.9 L863.5,239.8 L863.3,237.0 L864.5,228.5 L867.2,224.6 L868.6,220.1 L869.9,218.5 L869.8,213.5 L875.0,211.7 L877.5,208.3 L876.1,205.0 L878.2,201.7 L878.0,199.7 L880.2,194.6 L883.8,195.1 L884.5,193.9 Z"/>
<path id="US-NJ" data-code="NJ" data-name="New Jersey" d="M835.9,277.2 L841.0,280.0 L839.2,285.8 L836.6,287.2 L835.3,290.2 L839.5,291.8 L839.8,294.1 L838.0,304.8 L833.2,312.8 L830.0,315.1 L827.2,320.1 L825.8,316.8 L821.3,315.2 L815.8,310.8 L815.5,307.9 L815.4,307.4 L816.3,306.3 L817.7,303.9 L821.8,302.3 L822.1,300.7 L826.8,297.4 L827.6,295.7 L823.2,291.6 L823.0,289.1 L821.1,288.5 L820.9,286.2 L823.3,282.7 L822.0,280.6 L825.9,276.4 L826.7,274.2 L828.8,272.8 L835.9,277.2 Z"/>
<path id="US-NM" data-code="NM" data-name="New Mexico" d="M323.7,360.0 L332.3,360.1 L371.3,360.1 L392.0,360.0 L392.0,370.0 L391.4,370.0 L391.3,419.7 L390.9,440.0 L390.9,460.0 L336.2,460.0 L335.7,462.0 L337.5,464.3 L311.6,464.3 L311.6,473.4 L298.6,473.4 L298.7,360.0 L323.7,360.0 Z"/>
<path id="US-NY" data-code="NY" data-name="New York" d="M849.6,199.7 L849.8,203.9 L849.0,207.6 L850.4,211.2 L850.0,215.1 L848.2,219.1 L849.6,224.6 L848.7,226.2 L851.2,229.5 L850.7,243.3 L850.8,245.1 L847.1,258.2 L847.4,259.0 L846.4,274.1 L847.5,275.8 L843.7,278.0 L844.8,280.3 L851.4,281.9 L852.8,280.7 L858.4,280.7 L861.3,280.0 L866.0,276.9 L866.4,279.2 L868.8,280.1 L863.2,283.1 L851.2,287.5 L846.3,288.4 L843.0,288.1 L840.5,289.1 L839.2,285.8 L841.0,280.0 L835.9,277.2 L828.8,272.8 L828.1,271.4 L825.7,271.3 L822.9,267.9 L823.3,264.9 L821.4,262.6 L820.2,262.7 L818.5,260.0 L750.6,260.0 L750.6,254.9 L750.6,254.6 L760.0,248.9 L761.6,246.2 L764.6,244.3 L763.4,240.9 L762.2,240.3 L761.2,234.8 L770.3,232.5 L778.3,232.6 L781.5,233.1 L785.0,235.3 L787.2,234.5 L793.9,234.6 L797.9,233.1 L802.2,229.5 L805.0,229.4 L805.1,223.9 L806.5,220.8 L803.1,218.6 L803.8,216.1 L810.0,212.7 L812.3,209.7 L819.7,203.0 L826.7,199.6 L837.2,200.2 L849.6,199.7 Z"/>
<path id="US-NC" data-code="NC" data-name="North Carolina" d="M731.8,368.8 L742.4,369.1 L754.5,369.2 L810.7,369.0 L812.5,377.0 L808.1,376.2 L807.5,377.2 L802.3,378.4 L801.5,379.5 L798.1,379.8 L798.3,381.2 L802.5,380.3 L803.1,381.1 L807.7,380.1 L809.2,382.0 L812.0,381.2 L813.0,386.1 L812.1,388.4 L810.3,388.6 L806.4,393.5 L801.2,393.7 L800.4,397.1 L802.6,400.5 L804.3,401.2 L801.0,406.8 L798.3,406.1 L793.3,406.7 L790.0,407.9 L784.6,411.7 L780.4,416.7 L778.2,423.1 L775.0,421.7 L769.4,423.0 L751.9,403.9 L734.6,403.6 L734.9,401.3 L732.5,397.9 L730.9,399.1 L730.8,397.0 L711.8,396.0 L707.6,396.8 L704.3,398.7 L698.9,400.0 L691.1,400.3 L680.3,400.2 L680.7,395.5 L683.7,395.0 L684.9,391.8 L688.7,388.8 L692.9,388.7 L696.7,385.6 L700.7,384.5 L704.1,380.0 L706.2,378.7 L706.6,380.7 L712.7,376.9 L715.5,377.6 L717.4,373.9 L720.3,372.9 L721.0,368.2 L731.8,368.8 Z"/>
<path id="US-ND" data-code="ND" data-name="North Dakota" d="M481.0,120.0 L483.1,126.3 L482.1,129.1 L482.6,137.2 L483.7,141.0 L486.8,147.8 L487.3,160.6 L487.9,161.5 L487.6,166.9 L488.9,171.3 L490.8,173.3 L491.3,181.3 L375.8,181.1 L375.9,142.8 L375.8,120.0 L481.0,120.0 Z"/>
<path id="US-OH" data-code="OH" data-name="Ohio" d="M738.9,260.4 L738.9,287.3 L736.6,288.4 L737.7,290.5 L737.6,293.6 L735.5,298.4 L734.1,305.8 L728.1,312.2 L726.2,313.1 L724.5,311.8 L722.7,314.6 L720.9,314.5 L719.0,318.4 L719.4,320.7 L717.8,322.5 L715.5,319.5 L712.6,324.3 L713.4,327.4 L711.5,328.4 L710.9,331.1 L706.9,331.5 L704.8,328.8 L703.0,328.2 L702.3,324.8 L700.1,325.5 L698.4,327.5 L692.6,325.9 L690.1,327.4 L686.7,324.6 L681.9,323.8 L681.6,322.1 L678.5,317.9 L672.6,317.9 L672.8,290.0 L672.7,266.1 L693.6,265.4 L699.6,268.1 L701.6,269.7 L703.2,268.2 L706.5,271.4 L708.7,272.4 L715.8,269.7 L720.1,270.3 L724.6,266.6 L731.3,262.9 L738.9,260.4 L738.9,260.4 Z"/>
<path id="US-OK" data-code="OK" data-name="Oklahoma" d="M436.9,360.0 L521.4,360.0 L521.4,370.0 L524.2,392.1 L523.4,427.3 L517.5,425.1 L515.9,422.8 L512.0,420.8 L511.0,422.5 L507.0,422.4 L506.1,421.3 L502.5,423.3 L501.0,422.2 L497.7,423.2 L494.6,426.3 L493.5,424.5 L490.3,423.1 L486.9,423.1 L485.8,420.8 L481.9,425.3 L480.6,422.8 L478.8,423.5 L477.5,421.9 L473.9,420.4 L471.1,423.0 L470.0,420.2 L467.8,419.9 L466.5,417.7 L463.5,416.8 L461.6,418.7 L460.3,417.1 L457.3,417.3 L453.9,415.5 L450.8,415.8 L449.7,411.9 L444.8,411.7 L442.9,412.4 L439.5,408.5 L438.3,408.7 L438.3,370.0 L410.3,370.0 L392.0,370.0 L392.0,360.0 L406.7,360.1 L436.9,360.0 Z"/>
<path id="US-OR" data-code="OR" data-name="Oregon" d="M80.1,176.5 L81.5,176.3 L84.8,178.4 L86.2,180.8 L87.0,186.8 L94.9,189.0 L101.7,185.8 L105.9,185.5 L110.8,186.6 L111.3,187.9 L119.8,185.1 L121.8,186.0 L126.4,185.5 L130.2,183.5 L136.9,181.8 L143.1,181.3 L145.2,180.0 L177.2,180.1 L179.3,183.5 L182.9,185.0 L184.2,187.7 L181.0,193.6 L180.1,197.1 L178.3,199.5 L178.5,201.4 L176.9,204.3 L175.3,205.0 L172.2,212.1 L173.3,214.9 L176.2,215.2 L177.5,216.8 L175.5,223.4 L175.5,260.0 L149.7,260.2 L129.6,260.1 L113.6,260.1 L92.9,259.8 L79.7,259.9 L64.6,260.0 L62.4,257.7 L61.2,251.2 L61.5,246.7 L59.4,243.2 L60.9,239.9 L62.0,234.6 L64.3,228.9 L65.3,223.8 L67.0,206.9 L66.7,204.6 L68.2,197.1 L68.8,186.8 L68.0,181.1 L68.7,177.7 L74.9,174.8 L77.6,177.1 L80.1,176.5 Z"/>
<path id="US-PA" data-code="PA" data-name="Pennsylvania" d="M750.6,254.9 L750.6,260.0 L818.5,260.0 L820.2,262.7 L821.4,262.6 L823.3,264.9 L822.9,267.9 L825.7,271.3 L828.1,271.4 L828.8,272.8 L826.7,274.2 L825.9,276.4 L822.0,280.6 L823.3,282.7 L820.9,286.2 L821.1,288.5 L823.0,289.1 L823.2,291.6 L827.6,295.7 L826.8,297.4 L822.1,300.7 L821.8,302.3 L817.7,303.9 L814.6,303.4 L811.9,305.6 L755.0,305.6 L738.9,305.6 L738.9,287.3 L738.9,260.4 L738.9,260.4 L741.8,259.3 L750.6,254.6 L750.6,254.9 Z"/>
<path id="US-RI" data-code="RI" data-name="Rhode Island" d="M882.8,266.4 L884.0,270.1 L880.9,270.5 L882.8,266.4 Z M877.6,259.7 L879.9,259.7 L880.7,264.4 L882.4,265.8 L880.5,265.5 L878.9,268.4 L878.4,272.6 L872.5,273.6 L873.5,271.7 L873.5,259.9 L877.6,259.7 Z"/>
<path id="US-SC" data-code="SC" data-name="South Carolina" d="M704.3,398.7 L707.6,396.8 L711.8,396.0 L730.8,397.0 L730.9,399.1 L732.5,397.9 L734.9,401.3 L734.6,403.6 L751.9,403.9 L769.4,423.0 L766.7,424.0 L763.3,427.3 L760.0,432.4 L759.5,436.6 L756.8,439.8 L753.4,439.8 L752.6,442.3 L749.0,444.9 L746.9,447.7 L743.7,448.9 L740.3,452.0 L739.9,453.4 L736.7,455.1 L733.3,459.3 L729.7,457.6 L729.6,454.2 L727.2,448.8 L725.1,447.4 L724.9,443.1 L723.9,439.8 L719.7,436.8 L717.0,433.1 L717.2,430.8 L713.1,427.4 L711.0,423.6 L707.5,421.1 L705.0,417.0 L704.5,414.7 L702.1,410.3 L700.5,410.6 L695.4,406.3 L695.6,404.2 L698.9,400.0 L704.3,398.7 Z"/>
<path id="US-SD" data-code="SD" data-name="South Dakota" d="M375.8,181.1 L491.3,181.3 L491.0,183.6 L486.8,187.9 L489.5,191.7 L493.0,194.0 L493.0,230.0 L491.0,230.4 L491.9,232.1 L491.3,235.6 L493.3,237.5 L492.1,239.0 L491.6,242.9 L490.3,245.9 L493.1,250.2 L490.3,249.7 L489.3,246.8 L481.2,243.1 L473.9,243.1 L471.7,242.7 L469.9,244.7 L461.9,241.0 L461.4,240.0 L413.2,240.0 L387.0,239.9 L375.7,239.9 L375.6,200.1 L375.9,200.1 L375.8,181.1 Z"/>
<path id="US-TN" data-code="TN" data-name="Tennessee" d="M622.6,370.1 L622.4,366.5 L625.7,367.3 L645.2,366.9 L662.3,367.7 L665.3,367.4 L676.8,368.1 L690.0,368.3 L690.2,368.0 L721.0,368.2 L720.3,372.9 L717.4,373.9 L715.5,377.6 L712.7,376.9 L706.6,380.7 L706.2,378.7 L704.1,380.0 L700.7,384.5 L696.7,385.6 L692.9,388.7 L688.7,388.8 L684.9,391.8 L683.7,395.0 L680.7,395.5 L680.3,400.2 L660.4,400.3 L633.3,400.0 L620.3,400.1 L616.2,400.1 L587.8,400.1 L589.3,399.5 L590.8,396.0 L590.6,391.2 L593.5,387.9 L594.0,384.9 L596.2,383.8 L596.7,380.0 L599.8,375.0 L599.7,370.1 L600.6,370.1 L601.6,370.1 L603.4,369.9 L622.6,370.1 Z"/>
<path id="US-TX" data-code="TX" data-name="Texas" d="M410.3,370.0 L438.3,370.0 L438.3,408.7 L439.5,408.5 L442.9,412.4 L444.8,411.7 L449.7,411.9 L450.8,415.8 L453.9,415.5 L457.3,417.3 L460.3,417.1 L461.6,418.7 L463.5,416.8 L466.5,417.7 L467.8,419.9 L470.0,420.2 L471.1,423.0 L473.9,420.4 L477.5,421.9 L478.8,423.5 L480.6,422.8 L481.9,425.3 L485.8,420.8 L486.9,423.1 L490.3,423.1 L493.5,424.5 L494.6,426.3 L497.7,423.2 L501.0,422.2 L502.5,423.3 L506.1,421.3 L507.0,422.4 L511.0,422.5 L512.0,420.8 L515.9,422.8 L517.5,425.1 L523.4,427.3 L525.0,429.1 L528.0,428.1 L530.2,429.0 L530.2,439.6 L530.2,460.1 L533.6,464.5 L533.7,468.9 L537.9,477.0 L538.2,481.3 L536.6,486.4 L535.0,488.5 L535.6,491.2 L534.5,493.3 L535.6,497.1 L532.0,504.3 L533.4,506.2 L530.8,506.3 L522.8,509.1 L519.9,507.5 L519.4,504.3 L517.4,506.6 L515.9,506.0 L515.2,508.9 L516.8,510.1 L517.0,513.8 L514.2,517.7 L509.5,522.7 L500.2,527.9 L499.3,527.0 L496.5,528.4 L496.4,527.2 L492.6,528.0 L490.8,525.5 L489.7,526.1 L493.8,531.2 L490.8,532.8 L488.1,531.9 L487.6,535.5 L484.2,539.2 L480.6,546.1 L478.3,553.3 L476.6,552.8 L476.2,555.4 L478.0,554.8 L477.1,560.0 L476.0,560.2 L475.9,563.2 L477.3,564.8 L477.7,570.9 L479.4,572.9 L479.9,576.8 L481.2,580.2 L476.5,582.2 L474.5,579.6 L470.9,578.6 L466.1,578.9 L461.9,575.6 L458.8,575.2 L456.4,572.6 L453.2,571.7 L451.0,569.2 L449.6,563.2 L446.8,559.6 L447.1,556.5 L445.9,553.2 L446.3,550.4 L444.4,547.2 L442.7,546.9 L440.1,544.0 L439.3,540.4 L437.0,537.1 L433.7,534.4 L432.1,528.4 L430.6,526.7 L428.5,521.9 L427.9,517.9 L425.9,515.1 L422.6,512.6 L421.9,510.8 L418.8,509.3 L416.5,504.9 L409.7,503.9 L405.6,504.1 L402.2,502.6 L401.4,504.7 L397.7,505.4 L394.9,509.5 L393.2,516.2 L392.3,516.3 L390.2,520.3 L387.6,520.4 L383.8,517.3 L374.3,512.4 L372.4,509.7 L368.7,507.2 L366.1,501.5 L365.9,496.4 L363.3,492.2 L362.7,488.6 L361.0,486.3 L355.0,482.9 L351.8,478.3 L349.2,476.7 L346.4,472.7 L342.5,470.6 L339.8,465.4 L337.5,464.3 L335.7,462.0 L336.2,460.0 L390.9,460.0 L390.9,440.0 L391.3,419.7 L391.4,370.0 L392.0,370.0 L410.3,370.0 Z"/>
<path id="US-UT" data-code="UT" data-name="Utah" d="M250.5,260.1 L267.8,260.0 L267.8,280.0 L298.6,280.0 L298.6,317.5 L298.5,334.5 L298.7,336.7 L298.7,360.0 L276.2,359.9 L221.5,360.0 L221.6,260.1 L250.5,260.1 Z"/>
<path id="US-VT" data-code="VT" data-name="Vermont" d="M878.0,199.7 L878.2,201.7 L876.1,205.0 L877.5,208.3 L875.0,211.7 L869.8,213.5 L869.9,218.5 L868.6,220.1 L867.2,224.6 L864.5,228.5 L863.3,237.0 L863.5,239.8 L862.2,240.9 L862.0,243.9 L863.3,245.4 L850.8,245.1 L850.7,243.3 L851.2,229.5 L848.7,226.2 L849.6,224.6 L848.2,219.1 L850.0,215.1 L850.4,211.2 L849.0,207.6 L849.8,203.9 L849.6,199.7 L865.6,200.0 L878.0,199.7 Z"/>
<path id="US-VA" data-code="VA" data-name="Virginia" d="M817.9,339.7 L820.3,339.4 L818.3,342.8 L816.2,344.0 L814.9,348.6 L811.7,356.1 L809.1,357.6 L808.2,354.8 L809.6,348.7 L813.7,340.9 L817.9,339.7 Z M808.4,340.9 L808.7,340.9 L808.0,340.9 L808.4,340.9 Z M772.4,310.7 L780.4,317.4 L782.1,313.6 L784.5,313.9 L786.2,315.5 L786.2,318.5 L789.4,319.5 L791.4,321.3 L792.6,324.2 L791.2,327.4 L789.4,328.2 L788.2,331.1 L788.9,333.2 L793.0,332.5 L793.8,335.7 L799.2,337.0 L800.7,339.5 L805.0,342.2 L803.1,347.8 L804.8,352.2 L802.7,354.3 L802.5,356.8 L804.4,358.4 L802.3,360.8 L799.1,357.6 L798.3,358.7 L801.1,361.0 L808.7,361.5 L810.7,369.0 L754.5,369.2 L742.4,369.1 L731.8,368.8 L721.0,368.2 L690.2,368.0 L698.5,365.1 L699.5,363.0 L702.5,362.2 L702.7,360.4 L704.9,359.1 L704.9,357.6 L710.6,354.6 L716.5,349.3 L716.3,350.9 L718.4,354.3 L721.0,355.9 L722.9,355.8 L725.9,353.2 L728.0,355.3 L732.0,354.2 L739.0,350.4 L739.6,351.6 L742.3,349.8 L742.4,346.2 L744.1,343.0 L746.9,340.1 L748.1,336.4 L751.2,332.7 L752.4,328.1 L755.0,330.9 L757.5,331.7 L759.1,330.1 L762.4,323.0 L764.4,324.7 L771.5,316.6 L772.4,310.7 Z"/>
<path id="US-WA" data-code="WA" data-name="Washington" d="M175.4,120.0 L175.2,144.8 L175.3,171.5 L175.1,173.1 L177.1,176.6 L177.2,180.1 L145.2,180.0 L143.1,181.3 L136.9,181.8 L130.2,183.5 L126.4,185.5 L121.8,186.0 L119.8,185.1 L111.3,187.9 L110.8,186.6 L105.9,185.5 L101.7,185.8 L94.9,189.0 L87.0,186.8 L86.2,180.8 L84.8,178.4 L81.5,176.3 L80.1,176.5 L77.6,177.1 L74.9,174.8 L72.1,174.0 L69.8,175.2 L66.9,173.5 L67.5,170.7 L69.5,169.3 L66.4,165.1 L64.3,154.3 L63.0,152.9 L61.3,145.2 L58.3,142.2 L57.0,136.3 L58.7,132.4 L61.8,134.2 L68.1,136.8 L72.5,136.6 L76.8,137.6 L80.8,136.6 L82.8,138.4 L86.4,138.3 L88.9,142.7 L90.8,142.3 L91.1,148.3 L92.2,153.6 L93.8,153.1 L92.2,148.5 L92.7,144.0 L95.2,139.4 L93.2,137.5 L93.0,134.2 L91.5,130.6 L92.2,128.0 L91.2,124.9 L88.8,124.5 L86.5,122.2 L87.1,120.0 L175.4,120.0 Z M87.7,133.8 L89.7,132.9 L89.4,137.0 L86.9,135.4 L87.7,133.8 Z M82.9,128.3 L84.6,125.7 L86.9,128.9 L86.2,131.6 L82.7,130.8 L82.9,128.3 Z"/>
<path id="US-WV" data-code="WV" data-name="West Virginia" d="M738.9,287.3 L738.9,305.6 L755.0,305.6 L754.8,315.9 L757.8,314.0 L760.9,310.6 L762.9,311.2 L766.0,308.3 L770.5,309.7 L771.1,307.5 L773.7,307.6 L775.1,306.1 L777.7,308.0 L780.3,308.0 L782.1,313.6 L780.4,317.4 L772.4,310.7 L771.5,316.6 L764.4,324.7 L762.4,323.0 L759.1,330.1 L757.5,331.7 L755.0,330.9 L752.4,328.1 L751.2,332.7 L748.1,336.4 L746.9,340.1 L744.1,343.0 L742.4,346.2 L742.3,349.8 L739.6,351.6 L739.0,350.4 L732.0,354.2 L728.0,355.3 L725.9,353.2 L722.9,355.8 L721.0,355.9 L718.4,354.3 L716.3,350.9 L716.5,349.3 L714.5,348.9 L711.5,346.6 L710.8,344.3 L708.3,341.4 L706.5,337.5 L706.9,331.5 L710.9,331.1 L711.5,328.4 L713.4,327.4 L712.6,324.3 L715.5,319.5 L717.8,322.5 L719.4,320.7 L719.0,318.4 L720.9,314.5 L722.7,314.6 L724.5,311.8 L726.2,313.1 L728.1,312.2 L734.1,305.8 L735.5,298.4 L737.6,293.6 L737.7,290.5 L736.6,288.4 L738.9,287.3 Z"/>
<path id="US-WI" data-code="WI" data-name="Wisconsin" d="M586.2,168.6 L589.1,169.8 L590.7,173.2 L606.6,177.3 L613.2,180.2 L615.3,179.6 L621.9,181.6 L623.6,184.1 L626.8,186.5 L626.7,190.0 L625.2,192.7 L628.9,193.2 L627.4,196.0 L629.8,198.1 L629.2,200.5 L626.2,200.9 L623.7,205.5 L622.8,208.7 L624.6,209.3 L626.9,207.2 L629.5,203.2 L632.7,201.7 L635.2,196.7 L638.4,195.6 L638.2,198.2 L636.0,200.6 L631.7,208.9 L630.5,213.5 L630.6,216.8 L629.0,217.9 L627.5,222.4 L628.0,226.2 L626.7,228.8 L624.8,235.0 L625.2,239.9 L627.1,244.3 L626.5,250.1 L611.3,250.1 L582.7,249.8 L581.6,247.3 L576.1,245.0 L574.9,241.8 L574.4,237.3 L576.3,234.9 L574.0,232.9 L573.8,230.0 L573.0,227.7 L573.4,224.5 L570.5,220.1 L568.0,219.3 L563.6,216.0 L562.9,213.3 L558.1,211.1 L556.5,208.9 L553.3,208.6 L549.2,205.0 L550.3,197.7 L550.0,194.3 L551.8,191.2 L549.8,188.7 L548.1,188.5 L548.3,185.6 L551.9,181.3 L556.3,179.7 L557.2,178.5 L557.2,166.7 L560.3,165.0 L561.5,165.9 L565.0,166.1 L575.7,162.7 L579.7,160.9 L581.0,162.3 L578.9,164.9 L584.0,168.3 L586.2,168.6 Z"/>
<path id="US-WY" data-code="WY" data-name="Wyoming" d="M298.1,200.0 L347.0,200.0 L375.6,200.1 L375.7,239.9 L375.7,279.9 L349.9,280.0 L316.0,279.9 L298.6,280.0 L267.8,280.0 L267.8,260.0 L267.8,210.5 L267.7,200.0 L298.1,200.0 Z"/>
</g>
</svg>