<svg xmlns="http://www.w3.org/2000/svg" viewBox="0 0 960 600" preserveAspectRatio="xMidYMid meet" class="us-map">
<g class="states" fill="#e5edf4" stroke="#b7c6d5" stroke-width="0.8" stroke-linejoin="round">
<path id="US-AL" data-code="AL" data-name="Alabama" d="M521.13,314.99 L529.47,315.09 L530.31,320.25 L531.48,327.84 L532.03,329.52 L532.55,330.47 L532.34,331.06 L532.89,331.42 L532.08,332.18 L532.11,332.94 L531.69,333.95 L532.16,335.76 L531.82,337.34 L532.34,338.98 L529.99,339.01 L519.98,339.01 L519.83,339.80 L520.90,340.95 L520.71,341.94 L521.08,342.43 L520.37,343.32 L519.72,343.52 L518.52,342.53 L518.39,341.05 L518.03,340.89 L517.59,342.01 L517.43,343.09 L516.20,342.79 L515.84,333.63 L516.93,322.22 L517.61,315.65 L517.12,315.03 L521.13,314.99 Z"/>
<path id="US-AK" data-code="AK" data-name="Alaska" d="M126.10,476.90 L126.13,476.75 L126.31,476.84 L126.29,476.99 L126.06,476.97 L126.10,476.90 Z M125.90,476.63 L126.06,476.73 L125.97,476.89 L125.90,476.83 L125.90,476.63 Z M124.90,475.74 L125.11,475.72 L125.20,475.76 L125.17,475.89 L124.98,475.91 L124.81,475.83 L124.90,475.74 Z M124.35,475.82 L124.73,475.85 L124.83,476.01 L125.21,476.20 L125.34,476.32 L125.35,476.41 L125.44,476.43 L125.45,476.56 L125.60,476.68 L125.62,476.79 L125.72,476.76 L125.77,476.84 L125.79,477.18 L125.72,477.26 L125.48,477.25 L125.41,477.07 L125.33,477.09 L125.15,476.96 L125.10,477.00 L124.95,476.96 L124.97,477.09 L125.11,477.05 L125.20,477.10 L125.16,477.28 L124.99,477.26 L124.74,477.04 L124.67,476.92 L124.68,476.80 L124.48,476.81 L124.48,476.72 L124.63,476.71 L124.79,476.63 L124.72,476.48 L124.54,476.46 L124.51,476.23 L124.44,476.11 L124.32,476.19 L124.27,476.06 L124.40,476.00 L124.29,475.85 L124.35,475.82 Z M124.23,476.51 L124.40,476.57 L124.51,476.50 L124.63,476.53 L124.51,476.66 L124.32,476.62 L124.23,476.51 Z M124.08,475.31 L123.96,475.22 L124.10,475.17 L124.57,475.25 L124.79,475.24 L124.93,475.41 L125.21,475.54 L125.18,475.64 L125.03,475.69 L124.84,475.67 L124.70,475.73 L124.51,475.69 L124.30,475.73 L124.25,475.53 L124.27,475.39 L124.11,475.39 L124.08,475.31 Z M123.90,475.70 L123.78,475.64 L123.65,475.49 L123.63,475.38 L123.74,475.33 L123.85,475.38 L123.87,475.29 L124.22,475.45 L124.25,475.60 L124.13,475.62 L124.06,475.79 L124.14,475.84 L124.04,476.04 L123.90,476.00 L123.88,476.13 L123.80,476.06 L123.75,475.82 L123.90,475.70 Z M123.44,475.88 L123.41,475.98 L123.29,475.92 L122.97,475.53 L122.76,475.42 L122.83,475.32 L122.75,475.10 L122.52,474.93 L122.76,474.75 L122.86,474.83 L123.07,474.88 L123.26,474.89 L123.26,475.03 L123.44,475.49 L123.44,475.88 Z M123.38,474.18 L123.67,474.25 L123.85,474.24 L123.84,474.30 L124.09,474.54 L123.91,474.51 L123.87,474.59 L124.06,474.71 L124.11,474.93 L123.93,474.99 L123.87,475.07 L123.56,475.22 L123.47,475.22 L123.43,475.05 L123.50,474.95 L123.47,474.80 L123.36,474.62 L123.38,474.52 L123.31,474.29 L123.20,474.19 L123.17,474.02 L123.38,474.18 Z M122.37,474.96 L122.50,474.96 L122.63,475.12 L122.57,475.23 L122.37,475.25 L122.40,475.08 L122.37,474.96 Z M122.01,474.19 L122.27,474.20 L122.44,474.12 L122.69,474.23 L122.56,474.34 L122.60,474.39 L122.73,474.26 L123.03,474.30 L123.20,474.40 L123.10,474.57 L123.18,474.58 L123.28,474.81 L123.05,474.85 L122.62,474.66 L122.64,474.85 L122.50,474.93 L122.35,474.89 L122.25,474.77 L122.07,474.69 L121.93,474.52 L121.75,474.45 L121.76,474.31 L121.88,474.26 L121.92,474.14 L122.01,474.19 Z M112.56,472.45 L112.19,472.67 L112.16,472.76 L111.86,472.81 L111.92,472.68 L112.24,472.54 L112.44,472.39 L112.56,472.45 Z M112.13,472.12 L112.09,472.30 L111.96,472.49 L111.79,472.43 L111.93,472.21 L112.13,472.12 Z M111.94,463.66 L112.03,463.70 L112.48,463.74 L112.72,463.71 L113.05,463.71 L113.41,463.75 L113.62,463.73 L113.83,463.80 L114.20,463.88 L114.71,463.90 L114.85,463.85 L115.18,463.82 L115.33,463.76 L115.69,463.75 L115.68,463.79 L115.90,463.77 L116.35,463.84 L116.65,463.95 L116.93,464.00 L116.99,464.05 L117.25,464.06 L117.50,464.14 L117.54,464.19 L117.69,464.15 L117.87,464.18 L117.87,472.36 L118.28,472.43 L118.33,472.35 L118.76,472.46 L119.02,472.32 L119.55,472.31 L119.45,472.55 L119.59,472.63 L119.89,472.70 L119.95,472.83 L120.85,473.29 L120.98,473.58 L121.14,473.50 L121.53,473.36 L121.74,473.36 L121.84,473.25 L121.83,473.09 L121.99,473.09 L122.02,472.95 L122.30,472.92 L122.71,472.80 L123.10,473.01 L123.06,473.13 L123.16,473.25 L123.39,473.28 L123.67,473.47 L123.65,473.52 L123.78,473.62 L124.14,473.74 L124.72,474.24 L124.81,474.38 L124.99,474.51 L125.26,474.81 L125.53,475.06 L125.43,475.17 L125.71,475.21 L125.64,475.36 L125.86,475.42 L125.89,475.60 L126.12,475.59 L126.55,475.77 L126.82,475.80 L126.96,475.89 L127.09,475.91 L127.13,476.00 L127.41,476.02 L127.50,476.13 L127.37,476.33 L127.39,476.49 L127.51,476.76 L127.42,476.82 L127.21,477.07 L126.90,477.25 L126.81,477.16 L126.70,477.18 L126.62,477.00 L126.64,476.93 L126.54,476.83 L126.75,476.74 L126.69,476.71 L126.49,476.82 L126.38,476.75 L126.25,476.79 L125.89,476.60 L126.01,476.39 L125.78,476.46 L125.77,476.57 L125.59,476.48 L125.55,476.38 L125.68,476.27 L125.64,476.16 L125.47,476.25 L125.29,476.06 L125.19,476.10 L125.12,475.93 L125.29,475.83 L125.45,475.83 L125.40,475.70 L125.49,475.53 L125.36,475.54 L125.08,475.39 L124.88,475.22 L124.42,475.09 L124.43,474.75 L124.28,474.70 L124.32,474.56 L124.16,474.52 L123.94,474.33 L123.87,474.23 L123.49,474.19 L123.06,473.94 L122.88,473.33 L122.79,473.47 L122.83,473.59 L123.00,473.83 L122.96,473.87 L123.07,474.07 L123.05,474.20 L122.88,474.17 L122.75,474.03 L122.57,474.00 L122.32,474.04 L122.33,473.83 L122.17,473.66 L122.03,473.71 L121.48,473.53 L121.44,473.59 L121.74,473.64 L121.97,473.79 L122.06,473.79 L122.09,473.91 L122.21,474.04 L121.91,474.12 L121.73,474.07 L121.73,474.19 L121.50,474.10 L121.42,474.03 L121.28,474.03 L120.88,473.86 L120.59,473.71 L120.56,473.61 L120.40,473.48 L119.94,473.38 L119.70,473.28 L119.26,473.17 L118.97,473.06 L119.00,472.94 L119.08,472.98 L119.17,472.90 L119.08,472.73 L119.20,472.63 L119.14,472.59 L118.92,472.77 L118.47,472.89 L117.94,472.85 L117.49,472.74 L117.47,472.65 L117.26,472.67 L117.03,472.61 L116.53,472.55 L116.24,472.55 L115.58,472.59 L115.34,472.63 L115.05,472.50 L114.68,472.44 L114.56,472.37 L114.52,472.24 L114.27,472.25 L114.18,472.36 L113.73,472.21 L113.66,472.14 L113.19,472.27 L112.97,472.42 L112.87,472.28 L112.97,472.20 L113.10,472.22 L113.54,472.12 L113.48,472.04 L113.28,472.08 L113.20,471.98 L113.01,471.97 L112.81,471.71 L112.74,471.77 L112.47,471.81 L112.39,471.77 L112.30,471.86 L111.96,471.83 L111.95,471.92 L111.72,471.94 L111.62,471.91 L111.69,471.75 L111.60,471.75 L111.44,471.92 L111.65,471.98 L111.67,472.10 L111.80,472.24 L111.73,472.38 L111.56,472.33 L111.51,472.41 L111.67,472.44 L111.76,472.63 L111.53,472.67 L111.40,472.63 L111.19,472.68 L111.09,472.64 L110.82,472.64 L110.83,472.57 L110.70,472.62 L110.62,472.71 L110.51,472.63 L110.37,472.74 L110.43,472.79 L110.23,472.86 L110.04,472.87 L109.97,472.96 L109.78,473.04 L109.64,473.01 L109.49,473.11 L109.37,473.11 L109.12,473.30 L108.86,473.32 L108.77,473.25 L108.61,473.36 L108.27,473.28 L108.35,473.13 L108.57,473.08 L108.71,473.09 L108.75,473.03 L109.01,472.91 L109.02,472.82 L108.68,472.95 L108.40,472.87 L108.37,472.82 L108.51,472.60 L108.75,472.44 L108.79,472.31 L108.87,472.29 L108.89,472.15 L108.77,471.99 L109.07,471.94 L109.65,471.72 L109.79,471.80 L109.96,471.83 L110.23,471.74 L109.93,471.62 L109.82,471.52 L109.59,471.53 L109.43,471.49 L109.38,471.53 L109.10,471.59 L108.98,471.71 L108.71,471.74 L108.42,471.88 L108.40,471.97 L108.18,472.02 L108.13,472.12 L107.98,472.18 L107.91,472.36 L107.61,472.47 L107.75,472.56 L107.63,472.70 L107.36,472.72 L107.33,472.90 L107.07,472.96 L106.99,472.89 L106.86,473.02 L106.71,473.02 L106.74,473.12 L106.40,473.18 L106.33,473.44 L106.72,473.46 L107.02,473.53 L107.11,473.61 L106.99,473.75 L106.78,473.84 L106.59,473.84 L106.57,473.92 L106.44,473.95 L106.50,474.05 L106.37,474.19 L106.10,474.32 L105.94,474.32 L105.78,474.37 L105.64,474.36 L105.52,474.41 L105.55,474.49 L105.34,474.52 L105.29,474.63 L105.15,474.56 L104.98,474.77 L104.71,474.75 L104.73,474.86 L104.57,474.84 L104.45,474.88 L104.45,475.03 L104.27,475.26 L103.98,475.29 L103.74,475.40 L103.70,475.45 L103.55,475.37 L103.29,475.59 L103.21,475.53 L103.07,475.55 L103.04,475.67 L102.89,475.72 L102.71,475.70 L102.57,475.83 L102.82,475.87 L102.55,476.14 L101.80,476.24 L101.59,476.48 L101.53,476.43 L101.56,476.27 L101.41,476.25 L101.23,476.31 L101.20,476.37 L100.90,476.47 L100.78,476.59 L100.74,476.50 L100.67,476.60 L100.49,476.54 L100.17,476.69 L99.93,476.68 L99.97,476.57 L99.86,476.46 L99.76,476.55 L99.77,476.64 L99.45,476.94 L99.34,476.86 L99.31,476.97 L99.09,476.95 L99.06,476.78 L98.92,476.74 L98.87,476.81 L98.99,476.88 L98.94,477.00 L98.76,477.06 L98.62,476.93 L98.46,476.92 L98.43,476.97 L98.60,477.05 L98.30,477.17 L98.50,477.21 L98.50,477.27 L98.34,477.22 L98.11,477.34 L97.67,477.33 L97.46,477.41 L97.44,477.47 L97.19,477.53 L97.01,477.51 L96.95,477.35 L97.13,477.29 L97.27,477.10 L97.45,477.09 L97.84,476.96 L98.16,476.96 L98.28,477.08 L98.37,476.99 L98.35,476.89 L98.53,476.84 L98.73,476.84 L98.99,476.61 L99.29,476.40 L99.67,476.22 L100.12,476.14 L100.31,476.18 L100.49,476.13 L100.54,476.20 L100.44,476.29 L100.55,476.36 L100.58,476.25 L100.80,476.24 L100.87,476.31 L101.01,476.33 L101.01,476.25 L100.78,476.18 L100.76,476.13 L100.91,475.90 L101.12,475.78 L101.40,475.65 L101.84,475.54 L102.16,475.38 L102.31,475.44 L102.44,475.42 L102.39,475.32 L102.42,475.22 L102.67,475.02 L103.00,474.89 L103.27,474.72 L103.26,474.62 L103.47,473.94 L103.81,473.76 L103.77,473.61 L102.97,473.82 L102.71,473.80 L102.65,473.71 L102.51,473.67 L102.46,473.58 L102.33,473.62 L102.25,473.77 L102.39,473.95 L102.22,474.04 L102.07,474.01 L101.78,473.71 L101.59,473.56 L101.48,473.56 L101.42,473.67 L101.33,473.69 L101.20,473.60 L101.04,473.59 L100.97,473.44 L100.50,473.60 L100.08,473.72 L100.05,473.79 L99.72,473.89 L99.55,473.80 L99.70,473.70 L99.65,473.45 L99.54,473.18 L99.76,473.07 L99.58,472.85 L99.42,472.73 L99.29,472.55 L99.11,472.47 L99.06,472.63 L98.83,472.66 L98.48,472.76 L98.04,472.80 L97.81,472.79 L97.61,472.74 L97.58,472.60 L97.41,472.56 L97.14,472.37 L96.91,472.33 L96.64,472.12 L96.82,472.02 L96.86,471.85 L96.72,471.88 L96.70,471.77 L96.77,471.68 L96.59,471.60 L96.57,471.69 L96.36,471.65 L96.33,471.51 L96.16,471.49 L96.07,471.39 L96.07,471.26 L95.91,471.32 L95.88,471.20 L96.08,471.17 L95.92,471.04 L96.21,471.03 L96.21,470.86 L96.29,470.75 L96.84,470.40 L96.95,470.30 L97.03,470.32 L96.98,470.17 L97.20,469.91 L97.38,469.81 L97.72,469.77 L97.98,469.81 L98.35,469.97 L98.59,469.95 L98.92,469.80 L99.26,469.57 L99.43,469.55 L99.48,469.61 L99.89,469.61 L100.25,469.56 L100.58,469.32 L100.58,469.27 L100.42,469.05 L100.40,468.92 L100.14,468.78 L100.05,468.66 L100.31,468.69 L100.55,468.59 L100.56,468.50 L100.25,468.32 L100.01,468.46 L99.79,468.43 L99.59,468.51 L99.35,468.53 L99.29,468.58 L99.03,468.66 L98.94,468.79 L98.81,468.84 L98.75,468.69 L98.59,468.65 L98.47,468.77 L98.40,468.72 L98.10,468.63 L97.48,468.63 L97.04,468.73 L96.87,468.75 L96.52,468.69 L95.83,468.62 L95.66,468.57 L95.58,468.48 L95.64,468.36 L95.39,468.26 L95.44,468.15 L95.60,468.09 L95.55,467.95 L95.30,467.95 L95.10,467.92 L94.71,467.89 L94.50,467.82 L94.19,467.74 L94.16,467.65 L94.65,467.53 L95.27,467.33 L95.71,467.21 L95.96,467.28 L96.21,467.29 L96.27,467.20 L96.12,467.18 L96.10,467.10 L96.71,466.97 L97.40,466.87 L97.77,466.86 L97.97,466.89 L97.86,467.03 L97.90,467.13 L97.82,467.21 L97.95,467.32 L98.19,467.30 L98.49,467.32 L98.84,467.30 L98.94,467.34 L99.17,467.35 L99.38,467.31 L99.64,467.36 L99.89,467.16 L100.08,467.15 L100.20,467.19 L100.26,467.08 L99.91,467.03 L99.58,467.07 L99.61,466.93 L99.35,466.78 L99.06,466.73 L98.97,466.59 L99.20,466.55 L99.49,466.69 L99.43,466.80 L99.57,466.89 L99.87,466.99 L99.95,466.89 L99.60,466.75 L99.75,466.50 L99.63,466.45 L99.29,466.51 L98.94,466.49 L98.89,466.45 L98.71,466.49 L97.98,466.39 L97.96,466.28 L97.74,466.03 L97.56,465.94 L97.28,465.86 L96.71,465.65 L96.44,465.57 L96.18,465.55 L95.79,465.41 L95.40,465.33 L95.38,465.30 L95.67,465.26 L95.80,465.12 L95.81,464.85 L96.59,464.87 L97.53,464.81 L97.77,464.76 L98.16,464.63 L98.53,464.42 L98.60,464.22 L98.76,464.04 L99.09,463.89 L99.23,463.78 L99.63,463.60 L99.69,463.65 L100.03,463.67 L100.52,463.57 L100.82,463.48 L101.56,463.18 L101.83,463.17 L101.86,463.21 L102.15,463.18 L102.42,463.19 L102.97,463.15 L103.51,463.02 L104.04,462.75 L104.25,462.69 L104.29,462.74 L105.11,462.85 L105.18,462.93 L104.90,463.03 L104.77,463.03 L104.77,463.17 L105.18,463.12 L105.21,463.05 L105.40,462.98 L105.46,463.02 L105.60,462.87 L106.00,463.01 L105.94,463.11 L106.19,463.14 L106.34,463.21 L106.56,463.10 L106.95,463.10 L107.17,463.07 L107.73,463.10 L108.02,463.14 L107.88,463.34 L108.41,463.40 L108.45,463.45 L108.96,463.54 L108.97,463.50 L109.33,463.44 L109.69,463.44 L109.69,463.49 L109.90,463.50 L110.12,463.43 L110.47,463.42 L110.72,463.45 L111.06,463.52 L111.22,463.51 L111.44,463.61 L111.57,463.57 L111.78,463.60 L111.94,463.66 Z M107.43,474.35 L107.42,474.39 L107.12,474.33 L107.34,474.11 L107.53,474.09 L107.67,473.88 L107.82,474.06 L107.94,474.00 L108.18,474.10 L108.18,474.24 L107.83,474.26 L107.68,474.32 L107.43,474.35 Z M106.54,474.78 L106.79,474.66 L106.56,474.64 L106.56,474.54 L106.74,474.47 L106.88,474.52 L106.90,474.62 L106.97,474.55 L106.98,474.40 L107.14,474.47 L107.17,474.38 L107.31,474.43 L107.48,474.43 L107.62,474.38 L107.84,474.47 L107.84,474.73 L108.12,474.71 L107.94,474.87 L107.60,474.81 L107.72,474.92 L107.63,475.01 L107.46,474.97 L107.45,475.14 L107.19,475.19 L107.10,475.26 L106.94,475.19 L106.77,475.37 L106.63,475.39 L106.49,475.47 L106.44,475.28 L106.23,475.38 L106.22,475.32 L106.04,475.26 L106.03,475.08 L105.85,475.01 L105.95,474.80 L106.30,474.67 L106.52,474.68 L106.54,474.78 Z M106.03,475.60 L105.85,475.78 L105.79,475.75 L106.03,475.60 Z M105.07,476.19 L105.21,476.20 L105.16,476.38 L104.93,476.36 L104.89,476.30 L105.07,476.19 Z M101.35,476.75 L101.29,476.94 L101.02,477.09 L101.15,476.86 L101.25,476.88 L101.35,476.75 Z M100.79,476.69 L100.96,476.69 L100.95,476.78 L100.79,476.89 L100.65,476.82 L100.56,476.88 L100.50,476.72 L100.55,476.67 L100.79,476.69 Z M99.28,477.02 L99.29,477.09 L99.19,477.14 L99.12,477.06 L99.28,477.02 Z M99.14,469.44 L99.01,469.53 L98.96,469.45 L99.14,469.44 Z M98.80,477.45 L98.98,477.48 L98.96,477.55 L98.82,477.55 L98.80,477.45 Z M96.40,477.62 L96.46,477.72 L96.32,477.76 L96.28,477.65 L96.40,477.62 Z M96.23,477.74 L95.96,477.84 L95.90,477.77 L96.02,477.68 L96.23,477.74 Z M95.68,472.31 L95.88,472.28 L95.93,472.34 L96.10,472.32 L96.28,472.38 L96.31,472.63 L96.22,472.71 L95.99,472.76 L95.94,472.85 L95.61,472.75 L95.46,472.76 L95.13,472.63 L95.02,472.63 L94.82,472.56 L94.76,472.44 L94.85,472.42 L95.18,472.44 L95.33,472.35 L95.49,472.34 L95.57,472.28 L95.68,472.31 Z M95.67,477.86 L95.82,477.93 L95.52,478.09 L95.53,478.12 L95.90,478.00 L95.90,478.07 L95.75,478.15 L95.51,478.21 L95.49,478.29 L95.23,478.37 L95.01,478.38 L94.86,478.46 L94.58,478.53 L94.43,478.45 L94.72,478.36 L94.81,478.38 L95.03,478.30 L94.98,478.21 L95.11,478.12 L95.29,478.17 L95.31,478.11 L95.11,478.09 L95.00,478.03 L95.10,477.92 L95.44,477.86 L95.51,477.98 L95.67,477.86 Z M93.56,478.61 L93.89,478.44 L93.91,478.37 L94.04,478.29 L94.24,478.25 L94.35,478.30 L94.39,478.41 L94.01,478.54 L93.81,478.72 L93.65,478.78 L93.56,478.61 Z M92.72,478.84 L92.76,478.93 L92.53,478.93 L92.51,478.88 L92.72,478.84 Z M92.37,475.06 L92.25,475.14 L92.23,475.06 L92.37,475.06 Z M91.91,479.01 L91.97,479.10 L91.81,479.15 L91.79,479.07 L91.91,479.01 Z M90.98,469.37 L91.67,469.50 L92.07,469.39 L92.25,469.40 L92.42,469.46 L92.46,469.57 L92.81,469.63 L92.92,469.68 L93.38,469.70 L93.65,469.74 L93.50,469.87 L93.28,469.84 L93.05,469.87 L92.93,469.92 L92.82,470.05 L92.65,469.93 L92.45,469.85 L92.27,469.84 L92.18,469.75 L91.74,469.64 L91.54,469.63 L91.22,469.73 L90.98,469.68 L90.88,469.57 L90.98,469.37 Z M90.37,479.28 L90.39,479.38 L90.22,479.40 L90.25,479.32 L90.37,479.28 Z M89.33,479.49 L89.44,479.53 L89.77,479.53 L89.78,479.56 L89.39,479.60 L89.33,479.49 Z M88.72,479.38 L88.71,479.29 L88.84,479.26 L89.02,479.35 L88.95,479.43 L88.84,479.42 L88.88,479.51 L88.71,479.52 L88.35,479.62 L88.15,479.59 L88.21,479.52 L88.43,479.53 L88.72,479.38 Z M86.84,479.75 L87.00,479.74 L87.00,479.85 L86.80,479.83 L86.55,479.96 L86.45,479.79 L86.56,479.79 L86.57,479.66 L86.70,479.65 L86.70,479.75 L86.84,479.75 Z M86.24,479.67 L86.34,479.71 L86.27,479.86 L86.14,479.91 L86.13,479.82 L86.24,479.67 Z M85.39,479.70 L85.54,479.70 L85.67,479.81 L85.53,479.93 L85.39,479.70 Z M392.72,478.76 L392.88,478.81 L392.89,478.90 L392.54,478.96 L392.31,478.81 L392.31,478.75 L392.72,478.76 Z"/>
<path id="US-AZ" data-code="AZ" data-name="Arizona" d="M417.92,303.00 L417.89,337.01 L408.24,337.01 L402.66,334.78 L390.44,330.04 L390.88,328.70 L391.82,328.47 L392.08,327.94 L391.82,326.82 L391.17,326.79 L390.85,324.56 L391.82,323.70 L391.95,322.81 L391.77,321.40 L392.34,320.35 L393.10,319.96 L393.67,319.17 L392.73,318.31 L392.08,316.73 L391.30,315.75 L391.30,314.99 L391.58,314.17 L391.48,313.05 L391.09,311.90 L390.80,308.39 L392.55,308.16 L393.12,308.88 L393.59,308.85 L394.09,307.83 L394.09,303.00 L410.98,302.97 L417.92,303.00 Z"/>
<path id="US-AR" data-code="AR" data-name="Arkansas" d="M487.26,305.99 L507.83,306.02 L508.25,307.17 L507.52,307.89 L506.77,309.01 L509.84,309.01 L509.69,310.13 L508.98,310.46 L508.83,311.38 L507.94,312.36 L508.02,313.81 L507.55,314.86 L507.08,315.03 L507.37,315.55 L506.61,316.01 L506.27,317.03 L505.78,317.29 L505.85,318.48 L504.99,318.80 L505.02,319.20 L504.03,320.19 L504.32,320.84 L503.45,321.80 L502.70,323.64 L503.53,324.42 L503.12,324.92 L503.38,326.17 L503.01,326.99 L491.38,326.89 L489.32,326.89 L489.32,323.70 L488.65,323.44 L487.71,323.73 L487.21,323.18 L487.47,312.63 L486.59,305.99 L487.26,305.99 Z"/>
<path id="US-CA" data-code="CA" data-name="California" d="M350.37,272.96 L354.43,272.93 L360.82,273.03 L365.75,273.03 L365.77,283.41 L365.75,291.00 L371.87,296.39 L377.66,301.68 L382.23,305.99 L385.51,309.18 L391.30,314.99 L391.30,315.75 L392.08,316.73 L392.73,318.31 L393.67,319.17 L393.10,319.96 L392.34,320.35 L391.77,321.40 L391.95,322.81 L391.82,323.70 L390.85,324.56 L391.17,326.79 L391.82,326.82 L392.08,327.94 L391.82,328.47 L390.88,328.70 L384.57,329.25 L379.44,329.78 L378.86,328.99 L378.84,327.74 L378.47,326.26 L377.79,325.21 L376.31,323.77 L374.40,322.42 L374.04,322.78 L373.31,322.55 L373.41,321.96 L372.58,320.74 L371.46,321.01 L369.48,320.12 L369.19,319.40 L367.86,318.51 L366.35,318.54 L365.10,318.15 L363.51,318.31 L362.67,317.52 L362.85,315.85 L362.57,315.58 L362.75,314.40 L361.50,313.51 L361.45,312.30 L360.98,312.23 L360.20,311.18 L359.65,310.95 L359.41,310.29 L357.59,307.83 L356.73,307.11 L356.55,305.17 L356.91,305.33 L357.25,304.18 L356.57,303.13 L355.74,303.26 L354.64,302.31 L354.25,301.55 L354.33,300.83 L353.78,299.88 L353.78,298.30 L354.67,298.30 L354.30,296.10 L353.91,296.33 L353.83,297.41 L352.90,297.64 L351.77,296.82 L351.59,295.41 L350.86,294.29 L349.90,293.60 L349.38,292.81 L347.97,291.27 L348.20,290.81 L347.55,288.80 L347.84,287.68 L347.42,286.01 L346.20,284.37 L345.00,283.45 L344.76,282.36 L345.96,279.73 L346.20,278.85 L345.96,278.16 L346.40,276.35 L346.01,274.70 L345.49,274.31 L345.70,273.00 L350.37,272.96 Z"/>
<path id="US-CO" data-code="CO" data-name="Colorado" d="M423.26,278.98 L433.69,279.01 L441.67,278.98 L451.18,278.98 L451.18,284.99 L451.23,303.03 L446.67,303.00 L440.31,303.03 L428.27,303.03 L425.63,303.00 L417.92,303.00 L417.92,296.00 L417.84,295.34 L417.86,290.25 L417.89,279.01 L423.26,278.98 Z"/>
<path id="US-CT" data-code="CT" data-name="Connecticut" d="M589.23,272.77 L595.20,272.86 L595.20,272.96 L595.20,276.51 L594.91,277.07 L594.49,276.97 L592.41,277.43 L589.93,277.30 L588.86,278.12 L587.72,278.39 L586.36,279.08 L586.02,278.39 L587.19,277.73 L586.86,277.23 L587.17,272.70 L589.23,272.77 Z"/>
<path id="US-DE" data-code="DE" data-name="Delaware" d="M577.99,286.17 L577.55,286.90 L577.05,287.29 L577.16,288.24 L577.86,289.13 L578.04,290.61 L579.06,292.15 L579.53,292.22 L579.74,294.29 L576.66,294.22 L576.22,286.67 L577.03,286.01 L577.99,286.17 Z"/>
<path id="US-FL" data-code="FL" data-name="Florida" d="M529.99,339.01 L532.34,338.98 L532.99,340.72 L539.51,341.12 L545.61,341.58 L545.85,342.86 L546.42,342.83 L546.63,341.61 L546.45,340.49 L546.89,340.03 L547.98,340.53 L549.29,340.76 L549.57,343.35 L550.17,346.28 L551.56,350.12 L553.67,354.23 L553.35,354.53 L553.46,356.43 L554.35,358.57 L555.73,362.87 L556.01,364.22 L555.99,365.60 L555.47,370.56 L555.02,370.66 L554.55,372.21 L554.71,372.70 L553.80,373.82 L553.43,373.55 L552.55,374.01 L551.03,374.28 L550.59,373.65 L550.80,372.73 L549.73,370.07 L548.90,369.58 L548.17,369.94 L547.59,368.46 L547.44,367.24 L546.45,365.90 L546.21,365.01 L546.37,363.73 L545.82,363.50 L545.95,364.25 L545.45,364.45 L543.94,361.20 L543.34,360.37 L544.78,357.98 L543.84,358.11 L543.21,358.86 L542.59,357.68 L543.42,354.39 L543.58,351.67 L543.00,351.01 L542.82,350.12 L541.91,349.92 L540.84,348.48 L539.98,347.89 L539.93,347.00 L539.33,346.67 L538.83,345.69 L537.01,344.37 L535.42,344.67 L535.50,345.59 L534.97,345.42 L532.99,346.54 L530.88,346.80 L530.93,346.15 L530.44,345.36 L527.96,343.58 L526.19,342.83 L524.60,342.63 L523.27,342.76 L520.37,343.32 L521.08,342.43 L520.71,341.94 L520.90,340.95 L519.83,339.80 L519.98,339.01 L529.99,339.01 Z"/>
<path id="US-GA" data-code="GA" data-name="Georgia" d="M541.36,314.99 L540.35,316.27 L540.27,316.90 L541.86,318.18 L542.35,318.08 L543.08,319.40 L543.24,320.09 L543.99,321.34 L545.09,322.09 L545.72,323.21 L546.99,324.23 L546.94,324.92 L547.78,326.03 L549.05,326.95 L549.37,327.94 L549.42,329.22 L550.07,329.65 L550.83,331.26 L550.85,332.28 L551.95,332.80 L550.77,334.84 L550.56,335.89 L550.07,336.81 L550.02,337.77 L549.50,338.19 L549.29,340.76 L547.98,340.53 L546.89,340.03 L546.45,340.49 L546.63,341.61 L546.42,342.83 L545.85,342.86 L545.61,341.58 L539.51,341.12 L532.99,340.72 L532.34,338.98 L531.82,337.34 L532.16,335.76 L531.69,333.95 L532.11,332.94 L532.08,332.18 L532.89,331.42 L532.34,331.06 L532.55,330.47 L532.03,329.52 L531.48,327.84 L530.31,320.25 L529.47,315.09 L535.60,315.06 L538.94,315.09 L541.36,314.99 Z"/>
<path id="US-HI" data-code="HI" data-name="Hawaii" d="M284.10,524.66 L283.36,524.39 L283.24,524.13 L283.34,523.46 L282.81,522.31 L283.22,521.93 L283.52,521.40 L283.31,521.06 L283.37,520.70 L284.21,521.12 L285.15,521.43 L285.72,521.89 L285.72,522.29 L286.58,522.93 L286.05,523.46 L285.11,523.70 L284.46,524.10 L284.10,524.66 Z M281.24,518.41 L281.58,518.82 L282.03,518.64 L282.99,519.12 L282.85,519.55 L281.86,519.76 L281.66,519.68 L281.61,519.15 L281.11,519.04 L280.91,518.74 L281.24,518.41 Z M280.05,517.87 L279.76,518.18 L279.07,518.18 L279.28,517.84 L280.05,517.87 Z M277.15,516.41 L277.47,517.11 L277.31,517.52 L276.67,517.59 L276.24,516.75 L276.62,516.74 L277.15,516.41 Z M272.59,514.81 L272.94,514.85 L273.10,515.16 L273.00,515.60 L272.66,515.88 L271.71,515.54 L271.82,515.04 L272.59,514.81 Z"/>
<path id="US-ID" data-code="ID" data-name="Idaho" d="M384.57,231.00 L384.57,237.14 L386.11,238.82 L386.14,240.46 L387.05,241.19 L388.01,241.45 L388.12,241.88 L389.89,243.49 L390.10,244.14 L391.35,244.77 L391.40,245.16 L392.78,245.13 L392.11,247.36 L391.98,248.78 L392.47,249.70 L391.61,250.35 L391.95,250.98 L391.71,251.64 L392.73,252.26 L393.90,251.44 L394.37,250.78 L395.23,251.37 L395.10,251.87 L395.57,253.02 L396.36,254.23 L396.93,254.66 L396.90,255.81 L397.45,256.30 L398.44,256.37 L399.07,258.31 L399.61,258.64 L400.11,258.08 L401.60,258.11 L402.69,257.58 L403.34,257.88 L404.46,257.62 L404.70,257.95 L405.66,257.72 L406.76,256.47 L407.51,257.52 L408.37,258.14 L408.37,273.00 L403.06,273.03 L394.11,273.03 L379.90,273.00 L379.90,262.02 L380.53,260.05 L380.14,259.56 L379.23,259.46 L378.89,258.64 L379.85,256.50 L380.35,256.30 L380.84,255.41 L380.77,254.86 L381.31,254.13 L381.60,253.08 L382.59,251.31 L382.20,250.49 L381.08,250.06 L380.43,249.04 L380.40,247.99 L379.77,246.94 L379.85,246.44 L379.83,238.43 L379.88,231.00 L384.57,231.00 Z"/>
<path id="US-IL" data-code="IL" data-name="Illinois" d="M505.51,269.94 L514.33,270.04 L519.02,270.04 L518.86,271.19 L519.59,272.54 L520.35,274.74 L520.32,288.90 L519.80,289.99 L520.40,291.27 L520.48,292.32 L519.88,293.17 L519.72,293.96 L518.86,295.24 L518.32,295.34 L518.45,296.10 L518.08,296.39 L517.79,297.81 L517.95,298.20 L517.32,299.06 L517.77,300.11 L515.81,300.67 L515.63,301.29 L516.07,302.08 L515.47,302.57 L513.73,301.65 L513.18,301.72 L512.45,302.77 L512.68,303.10 L511.93,303.03 L510.86,301.32 L511.25,300.93 L510.86,299.78 L510.86,298.86 L509.32,297.58 L508.80,297.71 L508.28,296.92 L506.87,295.70 L506.90,294.75 L507.70,293.21 L507.57,292.65 L508.04,291.92 L507.37,291.50 L506.32,291.23 L505.78,291.79 L505.41,291.43 L505.10,289.46 L503.51,288.18 L502.05,286.63 L501.45,284.79 L501.40,283.58 L501.81,282.72 L501.89,281.64 L503.22,280.98 L503.35,280.06 L503.98,279.47 L504.05,278.42 L503.27,277.56 L503.59,276.51 L505.44,276.22 L506.92,275.46 L507.08,274.54 L507.70,274.15 L507.89,273.00 L507.76,272.24 L506.69,271.65 L506.56,271.02 L505.51,269.94 Z"/>
<path id="US-IN" data-code="IN" data-name="Indiana" d="M527.65,274.44 L533.28,274.44 L533.28,274.84 L533.31,282.00 L533.23,290.38 L532.86,290.64 L533.25,292.29 L532.42,292.32 L531.53,292.88 L530.31,292.61 L530.36,293.80 L529.55,294.29 L529.24,295.05 L528.40,295.34 L527.96,296.85 L527.41,297.25 L526.34,296.69 L526.16,296.00 L525.12,296.75 L525.20,297.41 L524.13,297.64 L523.82,297.05 L522.62,297.64 L522.23,298.27 L521.03,297.38 L520.40,297.58 L519.98,297.15 L519.59,297.58 L518.39,297.64 L517.95,298.20 L517.79,297.81 L518.08,296.39 L518.45,296.10 L518.32,295.34 L518.86,295.24 L519.72,293.96 L519.88,293.17 L520.48,292.32 L520.40,291.27 L519.80,289.99 L520.32,288.90 L520.35,274.74 L520.82,275.13 L522.28,275.13 L523.69,274.44 L527.65,274.44 Z"/>
<path id="US-IA" data-code="IA" data-name="Iowa" d="M502.05,263.99 L502.78,263.99 L502.83,264.88 L503.53,265.47 L502.96,266.19 L503.12,267.54 L503.48,268.49 L505.18,269.18 L505.51,269.94 L506.56,271.02 L506.69,271.65 L507.76,272.24 L507.89,273.00 L507.70,274.15 L507.08,274.54 L506.92,275.46 L505.44,276.22 L503.59,276.51 L503.27,277.56 L504.05,278.42 L503.98,279.47 L503.35,280.06 L503.22,280.98 L501.89,281.64 L501.81,282.72 L501.29,282.53 L500.33,281.31 L499.83,281.34 L493.05,281.51 L486.51,281.57 L481.11,281.47 L480.56,280.69 L480.83,279.14 L480.36,277.79 L480.38,276.28 L479.55,275.76 L479.42,274.93 L479.70,274.21 L479.39,273.16 L478.74,272.77 L477.88,270.07 L476.99,268.76 L477.41,267.87 L477.57,266.69 L477.93,266.26 L477.33,265.67 L477.49,264.62 L477.23,264.12 L477.85,263.99 L502.05,263.99 Z"/>
<path id="US-KS" data-code="KS" data-name="Kansas" d="M451.89,284.99 L483.30,284.99 L483.77,285.55 L485.31,286.01 L484.24,287.75 L484.84,288.34 L485.60,289.76 L486.61,290.05 L486.59,303.00 L460.54,303.00 L451.23,303.03 L451.18,284.99 L451.89,284.99 Z"/>
<path id="US-KY" data-code="KY" data-name="Kentucky" d="M537.58,292.38 L538.65,293.21 L539.41,292.78 L541.21,293.24 L541.73,292.65 L542.40,292.45 L542.61,293.47 L543.16,293.63 L543.81,294.45 L543.68,296.26 L544.26,297.41 L545.01,298.30 L545.25,298.99 L546.16,299.68 L546.78,299.78 L544.96,301.39 L543.21,302.28 L543.21,302.74 L542.51,303.13 L542.46,303.66 L541.54,303.89 L541.23,304.54 L538.68,305.40 L538.60,305.50 L534.53,305.43 L530.99,305.23 L530.05,305.30 L524.78,305.07 L518.78,305.20 L517.74,304.94 L517.82,306.02 L511.90,305.96 L511.33,306.02 L511.59,305.27 L512.29,305.53 L512.68,303.10 L512.45,302.77 L513.18,301.72 L513.73,301.65 L515.47,302.57 L516.07,302.08 L515.63,301.29 L515.81,300.67 L517.77,300.11 L517.32,299.06 L517.95,298.20 L518.39,297.64 L519.59,297.58 L519.98,297.15 L520.40,297.58 L521.03,297.38 L522.23,298.27 L522.62,297.64 L523.82,297.05 L524.13,297.64 L525.20,297.41 L525.12,296.75 L526.16,296.00 L526.34,296.69 L527.41,297.25 L527.96,296.85 L528.40,295.34 L529.24,295.05 L529.55,294.29 L530.36,293.80 L530.31,292.61 L531.53,292.88 L532.42,292.32 L533.25,292.29 L532.86,290.64 L533.23,290.38 L535.05,290.38 L536.02,291.63 L536.10,292.15 L537.58,292.38 Z"/>
<path id="US-LA" data-code="LA" data-name="Louisiana" d="M491.38,326.89 L503.01,326.99 L503.45,327.68 L503.12,327.94 L503.06,329.16 L503.77,329.91 L503.87,331.69 L503.30,333.07 L502.18,333.92 L501.89,335.27 L501.42,335.14 L501.34,337.34 L500.77,337.40 L501.11,338.59 L500.77,339.01 L509.76,339.01 L509.29,340.99 L510.08,342.30 L510.26,343.29 L510.83,343.91 L509.42,344.73 L509.32,345.32 L510.47,345.72 L510.96,344.77 L511.95,345.72 L511.88,346.47 L511.30,346.80 L510.23,346.51 L510.36,347.07 L510.00,347.92 L510.91,348.68 L512.37,348.91 L512.89,349.79 L513.31,349.92 L512.55,350.94 L511.72,350.75 L511.02,349.69 L509.27,349.14 L509.27,348.12 L508.41,348.45 L508.46,349.30 L508.07,350.09 L507.44,350.22 L506.97,349.33 L505.88,349.30 L505.49,350.22 L504.76,350.48 L503.98,349.92 L503.35,349.86 L502.75,348.38 L501.68,347.72 L501.26,347.82 L500.85,346.57 L499.60,346.74 L499.57,345.98 L498.34,346.70 L498.50,347.26 L497.56,347.79 L496.10,347.53 L494.41,346.70 L493.21,346.34 L490.63,346.64 L490.29,346.87 L489.87,346.28 L490.99,344.14 L490.63,342.99 L490.97,342.37 L490.81,341.55 L491.28,340.92 L491.77,339.38 L491.70,338.09 L490.39,335.66 L490.37,334.35 L489.32,333.03 L489.32,326.89 L491.38,326.89 Z"/>
<path id="US-ME" data-code="ME" data-name="Maine" d="M600.41,266.65 L599.84,266.23 L599.92,265.63 L599.16,264.94 L598.85,257.06 L598.61,253.18 L600.67,252.36 L600.33,251.93 L601.12,251.01 L601.92,250.58 L601.77,250.22 L602.52,249.66 L602.29,248.61 L602.76,247.04 L603.49,246.51 L603.78,244.83 L607.45,240.23 L608.31,240.43 L608.36,241.55 L608.99,241.94 L610.53,241.28 L611.49,241.28 L612.17,240.86 L613.50,241.81 L614.28,242.60 L614.33,249.34 L614.23,250.95 L615.87,251.37 L615.64,252.06 L616.05,252.72 L615.72,253.31 L616.39,254.23 L617.28,254.03 L618.14,256.17 L617.15,257.12 L616.58,256.76 L616.11,257.42 L615.43,257.26 L615.35,257.81 L614.46,257.75 L613.06,259.03 L612.72,258.14 L612.22,258.08 L612.46,259.03 L611.36,259.49 L611.10,258.73 L610.58,259.13 L609.35,259.13 L609.33,258.24 L608.60,258.44 L608.73,259.06 L608.05,260.38 L608.18,260.74 L607.30,261.46 L606.41,261.20 L605.89,261.95 L605.16,262.05 L604.56,262.68 L603.83,262.55 L603.62,261.89 L602.55,262.94 L602.84,263.60 L602.05,263.83 L602.00,264.39 L601.12,265.08 L600.41,266.65 Z"/>
<path id="US-MD" data-code="MD" data-name="Maryland" d="M575.23,297.28 L575.12,297.28 L574.99,297.28 L575.23,297.28 Z M558.65,286.67 L576.22,286.67 L576.66,294.22 L579.74,294.29 L578.80,296.82 L578.07,296.92 L576.77,297.28 L575.75,297.54 L575.78,296.56 L575.38,296.16 L575.93,295.74 L575.20,294.75 L574.97,295.18 L573.98,295.08 L573.64,293.99 L573.95,293.99 L573.98,292.58 L574.29,292.02 L573.87,290.12 L574.39,289.00 L575.20,288.80 L575.33,287.65 L574.73,287.78 L574.71,288.37 L573.46,289.13 L573.09,289.82 L573.01,291.56 L572.54,292.38 L572.75,293.76 L573.38,294.72 L573.30,295.44 L573.69,296.16 L573.48,296.66 L572.39,295.70 L570.82,295.24 L570.35,294.32 L569.47,294.85 L569.13,294.13 L569.83,293.21 L570.25,292.25 L570.87,291.63 L570.27,291.04 L569.88,291.40 L569.26,290.84 L568.27,290.54 L568.27,289.66 L567.75,289.16 L567.02,289.07 L566.47,287.39 L565.66,287.39 L564.85,286.83 L564.41,287.29 L563.63,287.26 L563.44,287.91 L562.04,287.49 L561.10,288.37 L560.47,288.18 L559.53,289.20 L558.59,289.76 L558.65,286.67 Z"/>
<path id="US-MA" data-code="MA" data-name="Massachusetts" d="M599.40,267.67 L599.86,267.77 L600.05,268.82 L599.84,269.68 L599.08,270.47 L599.06,271.39 L600.10,271.52 L600.73,272.47 L600.62,273.23 L601.14,273.42 L601.19,274.11 L602.52,274.70 L604.06,274.15 L603.72,274.97 L601.46,275.69 L600.62,275.72 L600.13,275.16 L599.34,275.33 L599.32,275.76 L598.43,276.02 L598.07,274.93 L597.94,274.74 L597.44,274.31 L597.18,272.90 L596.48,272.90 L595.20,272.96 L595.20,272.86 L589.23,272.77 L587.17,272.70 L587.06,272.47 L588.21,268.53 L592.07,268.63 L597.60,268.82 L598.12,268.26 L599.40,267.67 Z"/>
<path id="US-MI" data-code="MI" data-name="Michigan" d="M539.72,274.61 L533.28,274.84 L533.28,274.44 L527.65,274.44 L523.69,274.44 L524.65,273.65 L525.30,272.31 L525.90,271.48 L526.34,270.33 L526.61,268.69 L526.50,266.92 L525.09,263.43 L525.54,262.12 L525.22,260.54 L526.32,258.93 L526.55,257.58 L526.40,256.86 L527.18,256.56 L527.28,255.58 L528.51,255.32 L529.45,254.23 L529.37,256.40 L529.86,256.50 L530.49,255.41 L530.52,253.57 L530.91,253.11 L532.21,252.82 L531.79,251.54 L532.65,250.45 L533.72,250.39 L534.92,251.08 L536.10,251.18 L536.67,252.03 L537.56,252.10 L539.04,252.88 L539.56,252.85 L540.37,254.13 L539.72,254.82 L540.35,255.71 L540.58,256.73 L540.29,258.96 L539.33,259.52 L539.09,260.67 L537.95,261.07 L537.32,262.45 L537.56,262.97 L538.70,263.47 L539.59,262.71 L540.63,261.17 L542.27,260.57 L543.08,261.03 L543.58,261.89 L544.07,264.39 L544.15,265.63 L544.67,267.15 L544.18,269.32 L543.40,269.64 L543.37,268.86 L542.85,269.09 L542.25,270.89 L541.28,271.58 L541.00,272.96 L539.80,274.11 L539.72,274.61 Z M529.94,250.62 L530.02,251.34 L529.40,251.47 L529.66,250.45 L529.94,250.62 Z M520.04,254.43 L519.31,253.80 L519.75,252.95 L518.63,252.82 L519.07,252.00 L519.12,250.95 L518.13,250.22 L517.59,249.47 L515.55,248.88 L514.93,249.07 L512.89,248.19 L507.99,246.97 L507.47,245.95 L506.58,245.59 L508.43,244.96 L509.27,244.24 L511.35,243.95 L512.71,243.06 L513.34,243.03 L513.86,242.40 L515.34,241.51 L516.10,240.76 L517.22,240.27 L518.29,240.69 L516.41,242.53 L515.97,243.16 L515.99,244.27 L516.91,243.42 L518.55,243.55 L519.83,244.14 L520.97,245.79 L521.60,246.08 L522.80,245.82 L523.09,246.18 L524.29,246.38 L526.84,245.00 L528.17,244.87 L529.94,244.93 L531.14,244.47 L532.05,244.44 L532.24,246.11 L533.18,246.34 L534.11,246.08 L534.51,246.48 L535.13,245.98 L536.51,245.82 L536.54,247.92 L537.16,248.81 L538.10,249.04 L538.21,248.45 L539.12,248.45 L539.62,249.07 L539.20,249.53 L536.59,249.14 L535.34,249.40 L533.98,248.68 L533.59,249.34 L533.78,249.89 L533.18,249.76 L532.29,248.94 L530.75,248.45 L529.97,248.42 L529.21,249.20 L527.96,249.40 L526.61,249.24 L526.06,249.57 L525.93,250.22 L524.44,250.78 L524.52,249.99 L523.87,249.83 L523.61,250.65 L522.51,250.68 L522.02,251.04 L521.29,252.46 L519.93,254.26 L520.04,254.43 Z M514.25,237.14 L513.05,237.90 L512.42,238.00 L512.48,237.37 L515.47,235.96 L514.90,236.95 L514.25,237.14 Z"/>
<path id="US-MN" data-code="MN" data-name="Minnesota" d="M498.97,244.77 L498.61,244.50 L497.64,245.00 L497.64,248.55 L497.35,248.91 L496.00,249.40 L494.90,250.68 L494.83,251.54 L495.37,251.60 L495.97,252.36 L495.42,253.28 L495.53,254.30 L495.19,256.50 L496.44,257.58 L497.43,257.68 L497.93,258.34 L499.39,259.00 L499.62,259.79 L500.98,260.80 L501.73,261.03 L502.65,262.35 L502.52,263.30 L502.78,263.99 L502.05,263.99 L477.85,263.99 L477.85,253.21 L476.76,252.52 L475.92,251.37 L477.23,250.09 L477.33,249.40 L477.15,247.00 L476.58,246.38 L476.18,245.06 L476.26,243.45 L476.08,243.19 L475.92,239.35 L474.99,237.31 L474.62,236.16 L474.46,233.73 L474.78,232.90 L474.15,231.00 L484.03,231.00 L484.03,228.70 L484.97,228.76 L485.60,229.22 L486.22,232.35 L486.72,232.71 L488.28,232.81 L488.46,233.10 L490.29,233.23 L490.50,233.89 L492.06,233.73 L492.06,233.46 L493.29,233.13 L494.36,233.27 L495.58,233.76 L495.92,234.38 L496.62,234.32 L497.28,235.66 L497.59,235.11 L498.79,234.84 L499.00,235.40 L500.40,235.80 L500.40,236.32 L501.11,236.75 L502.54,236.52 L503.40,235.93 L504.58,235.57 L504.99,236.45 L505.80,236.26 L506.77,236.45 L507.89,236.32 L509.16,237.08 L510.39,236.95 L510.29,237.28 L508.69,238.03 L506.48,238.62 L505.05,239.25 L502.99,240.79 L502.10,241.74 L500.74,242.83 L498.61,244.27 L498.97,244.77 Z"/>
<path id="US-MS" data-code="MS" data-name="Mississippi" d="M515.84,315.03 L517.12,315.03 L517.61,315.65 L516.93,322.22 L515.84,333.63 L516.20,342.79 L515.68,343.06 L514.53,342.93 L514.07,342.53 L512.92,342.79 L511.33,343.48 L510.83,343.91 L510.26,343.29 L510.08,342.30 L509.29,340.99 L509.76,339.01 L500.77,339.01 L501.11,338.59 L500.77,337.40 L501.34,337.34 L501.42,335.14 L501.89,335.27 L502.18,333.92 L503.30,333.07 L503.87,331.69 L503.77,329.91 L503.06,329.16 L503.12,327.94 L503.45,327.68 L503.01,326.99 L503.38,326.17 L503.12,324.92 L503.53,324.42 L502.70,323.64 L503.45,321.80 L504.32,320.84 L504.03,320.19 L505.02,319.20 L504.99,318.80 L505.85,318.48 L505.78,317.29 L506.27,317.03 L506.61,316.01 L507.37,315.55 L507.08,315.03 L515.84,315.03 Z"/>
<path id="US-MO" data-code="MO" data-name="Missouri" d="M499.83,281.34 L500.33,281.31 L501.29,282.53 L501.81,282.72 L501.40,283.58 L501.45,284.79 L502.05,286.63 L503.51,288.18 L505.10,289.46 L505.41,291.43 L505.78,291.79 L506.32,291.23 L507.37,291.50 L508.04,291.92 L507.57,292.65 L507.70,293.21 L506.90,294.75 L506.87,295.70 L508.28,296.92 L508.80,297.71 L509.32,297.58 L510.86,298.86 L510.86,299.78 L511.25,300.93 L510.86,301.32 L511.93,303.03 L512.68,303.10 L512.29,305.53 L511.59,305.27 L511.33,306.02 L511.02,306.02 L510.75,306.02 L510.78,307.50 L509.84,309.01 L506.77,309.01 L507.52,307.89 L508.25,307.17 L507.83,306.02 L487.26,305.99 L486.59,305.99 L486.59,303.00 L486.61,290.05 L485.60,289.76 L484.84,288.34 L484.24,287.75 L485.31,286.01 L483.77,285.55 L483.30,284.99 L482.13,283.41 L481.11,281.47 L486.51,281.57 L493.05,281.51 L499.83,281.34 Z"/>
<path id="US-MT" data-code="MT" data-name="Montana" d="M441.69,231.00 L441.72,237.83 L441.69,249.34 L441.72,255.02 L441.64,255.02 L432.80,254.99 L417.73,254.99 L408.35,254.99 L408.37,258.14 L407.51,257.52 L406.76,256.47 L405.66,257.72 L404.70,257.95 L404.46,257.62 L403.34,257.88 L402.69,257.58 L401.60,258.11 L400.11,258.08 L399.61,258.64 L399.07,258.31 L398.44,256.37 L397.45,256.30 L396.90,255.81 L396.93,254.66 L396.36,254.23 L395.57,253.02 L395.10,251.87 L395.23,251.37 L394.37,250.78 L393.90,251.44 L392.73,252.26 L391.71,251.64 L391.95,250.98 L391.61,250.35 L392.47,249.70 L391.98,248.78 L392.11,247.36 L392.78,245.13 L391.40,245.16 L391.35,244.77 L390.10,244.14 L389.89,243.49 L388.12,241.88 L388.01,241.45 L387.05,241.19 L386.14,240.46 L386.11,238.82 L384.57,237.14 L384.57,231.00 L406.21,231.03 L415.96,231.00 L441.69,231.00 Z"/>
<path id="US-NE" data-code="NE" data-name="Nebraska" d="M445.13,266.98 L453.22,267.01 L468.10,267.01 L468.26,267.31 L470.71,268.40 L471.28,267.80 L471.96,267.94 L474.20,267.94 L476.71,269.05 L477.02,269.91 L477.88,270.07 L478.74,272.77 L479.39,273.16 L479.70,274.21 L479.42,274.93 L479.55,275.76 L480.38,276.28 L480.36,277.79 L480.83,279.14 L480.56,280.69 L481.11,281.47 L482.13,283.41 L483.30,284.99 L451.89,284.99 L451.18,284.99 L451.18,278.98 L441.67,278.98 L441.67,266.98 L445.13,266.98 Z"/>
<path id="US-NV" data-code="NV" data-name="Nevada" d="M379.90,273.00 L394.11,273.03 L394.09,303.00 L394.09,307.83 L393.59,308.85 L393.12,308.88 L392.55,308.16 L390.80,308.39 L391.09,311.90 L391.48,313.05 L391.58,314.17 L391.30,314.99 L385.51,309.18 L382.23,305.99 L377.66,301.68 L371.87,296.39 L365.75,291.00 L365.77,283.41 L365.75,273.03 L371.95,273.06 L379.90,273.00 Z"/>
<path id="US-NH" data-code="NH" data-name="New Hampshire" d="M598.61,253.18 L598.85,257.06 L599.16,264.94 L599.92,265.63 L599.84,266.23 L600.41,266.65 L599.86,267.77 L599.40,267.67 L598.12,268.26 L597.60,268.82 L592.07,268.63 L591.65,268.17 L591.70,267.28 L592.12,266.95 L592.07,266.09 L592.43,263.56 L593.27,262.38 L593.69,261.03 L594.10,260.54 L594.08,259.06 L595.67,258.50 L596.45,257.49 L596.01,256.50 L596.66,255.51 L596.61,254.92 L597.28,253.38 L598.38,253.54 L598.61,253.18 Z"/>
<path id="US-NJ" data-code="NJ" data-name="New Jersey" d="M583.60,278.16 L585.19,279.01 L584.61,280.75 L583.83,281.15 L583.41,282.07 L584.72,282.53 L584.82,283.22 L584.25,286.44 L582.76,288.84 L581.80,289.53 L580.94,291.04 L580.49,290.05 L579.11,289.56 L577.42,288.24 L577.31,287.36 L577.29,287.22 L577.55,286.90 L577.99,286.17 L579.27,285.68 L579.35,285.22 L580.81,284.23 L581.04,283.71 L579.69,282.49 L579.63,281.74 L579.03,281.54 L578.98,280.85 L579.71,279.80 L579.32,279.17 L580.52,277.92 L580.78,277.27 L581.41,276.84 L583.60,278.16 Z"/>
<path id="US-NM" data-code="NM" data-name="New Mexico" d="M425.63,303.00 L428.27,303.03 L440.31,303.03 L446.67,303.00 L446.67,305.99 L446.49,305.99 L446.46,320.91 L446.36,326.99 L446.36,333.00 L429.47,333.00 L429.34,333.59 L429.88,334.28 L421.88,334.28 L421.88,337.01 L417.89,337.01 L417.92,303.00 L425.63,303.00 Z"/>
<path id="US-NY" data-code="NY" data-name="New York" d="M587.85,254.92 L587.90,256.17 L587.64,257.29 L588.08,258.37 L587.95,259.52 L587.40,260.74 L587.82,262.38 L587.56,262.87 L588.32,263.86 L588.16,268.00 L588.21,268.53 L587.06,272.47 L587.17,272.70 L586.86,277.23 L587.19,277.73 L586.02,278.39 L586.36,279.08 L588.39,279.57 L588.81,279.21 L590.56,279.21 L591.44,279.01 L592.90,278.06 L593.01,278.75 L593.76,279.04 L592.02,279.93 L588.34,281.24 L586.80,281.51 L585.79,281.44 L585.03,281.74 L584.61,280.75 L585.19,279.01 L583.60,278.16 L581.41,276.84 L581.20,276.41 L580.47,276.38 L579.61,275.36 L579.71,274.47 L579.14,273.78 L578.77,273.82 L578.25,273.00 L557.29,273.00 L557.29,271.48 L557.29,271.39 L560.21,269.68 L560.68,268.86 L561.62,268.30 L561.25,267.28 L560.86,267.08 L560.58,265.44 L563.37,264.75 L565.84,264.78 L566.83,264.94 L567.90,265.60 L568.58,265.34 L570.64,265.37 L571.89,264.94 L573.22,263.86 L574.08,263.83 L574.11,262.18 L574.55,261.23 L573.48,260.57 L573.72,259.82 L575.62,258.80 L576.32,257.91 L578.62,255.91 L580.78,254.89 L584.01,255.05 L587.85,254.92 Z"/>
<path id="US-NC" data-code="NC" data-name="North Carolina" d="M551.50,305.63 L554.76,305.73 L558.49,305.76 L575.83,305.69 L576.38,308.09 L575.05,307.86 L574.86,308.16 L573.25,308.52 L573.01,308.85 L571.94,308.95 L572.00,309.37 L573.30,309.08 L573.48,309.34 L574.92,309.04 L575.38,309.60 L576.24,309.37 L576.56,310.82 L576.27,311.51 L575.70,311.58 L574.50,313.05 L572.91,313.12 L572.65,314.14 L573.32,315.16 L573.87,315.35 L572.86,317.03 L572.00,316.83 L570.48,317.00 L569.44,317.36 L567.80,318.51 L566.49,320.02 L565.82,321.93 L564.83,321.50 L563.10,321.89 L557.71,316.18 L552.36,316.08 L552.44,315.39 L551.71,314.37 L551.22,314.73 L551.19,314.11 L545.32,313.81 L544.02,314.04 L543.00,314.60 L541.36,314.99 L538.94,315.09 L535.60,315.06 L535.73,313.65 L536.67,313.51 L537.03,312.53 L538.21,311.64 L539.51,311.61 L540.68,310.69 L541.91,310.36 L542.95,309.01 L543.60,308.62 L543.73,309.21 L545.61,308.06 L546.47,308.29 L547.07,307.17 L547.96,306.88 L548.17,305.46 L551.50,305.63 Z"/>
<path id="US-ND" data-code="ND" data-name="North Dakota" d="M474.15,231.00 L474.78,232.90 L474.46,233.73 L474.62,236.16 L474.99,237.31 L475.92,239.35 L476.08,243.19 L476.26,243.45 L476.18,245.06 L476.58,246.38 L477.15,247.00 L477.33,249.40 L441.69,249.34 L441.72,237.83 L441.69,231.00 L474.15,231.00 Z"/>
<path id="US-OH" data-code="OH" data-name="Ohio" d="M553.69,273.13 L553.69,281.18 L552.99,281.51 L553.33,282.16 L553.30,283.08 L552.65,284.53 L552.21,286.73 L550.36,288.67 L549.76,288.93 L549.24,288.54 L548.69,289.39 L548.14,289.36 L547.54,290.51 L547.67,291.20 L547.18,291.76 L546.47,290.84 L545.59,292.29 L545.82,293.21 L545.25,293.53 L545.06,294.32 L543.81,294.45 L543.16,293.63 L542.61,293.47 L542.40,292.45 L541.73,292.65 L541.21,293.24 L539.41,292.78 L538.65,293.21 L537.58,292.38 L536.10,292.15 L536.02,291.63 L535.05,290.38 L533.23,290.38 L533.31,282.00 L533.28,274.84 L539.72,274.61 L541.57,275.43 L542.20,275.92 L542.67,275.46 L543.71,276.41 L544.36,276.71 L546.58,275.92 L547.88,276.08 L549.29,274.97 L551.35,273.88 L553.69,273.13 L553.69,273.13 Z"/>
<path id="US-OK" data-code="OK" data-name="Oklahoma" d="M460.54,303.00 L486.59,303.00 L486.59,305.99 L487.47,312.63 L487.21,323.18 L485.39,322.52 L484.92,321.83 L483.69,321.24 L483.38,321.76 L482.15,321.73 L481.89,321.40 L480.77,321.99 L480.30,321.66 L479.29,321.96 L478.35,322.88 L477.98,322.35 L476.99,321.93 L475.95,321.93 L475.61,321.24 L474.41,322.58 L474.02,321.83 L473.47,322.06 L473.06,321.57 L471.94,321.11 L471.10,321.89 L470.74,321.07 L470.06,320.97 L469.67,320.32 L468.75,320.05 L468.15,320.61 L467.76,320.12 L466.83,320.19 L465.78,319.66 L464.82,319.73 L464.48,318.57 L462.97,318.51 L462.39,318.71 L461.32,317.56 L460.96,317.62 L460.96,305.99 L452.33,305.99 L446.67,305.99 L446.67,303.00 L451.23,303.03 L460.54,303.00 Z"/>
<path id="US-OR" data-code="OR" data-name="Oregon" d="M350.47,247.96 L350.91,247.89 L351.93,248.51 L352.37,249.24 L352.61,251.04 L355.06,251.70 L357.14,250.75 L358.45,250.65 L359.96,250.98 L360.12,251.37 L362.72,250.52 L363.35,250.81 L364.76,250.65 L365.93,250.06 L368.02,249.53 L369.92,249.40 L370.57,249.01 L380.43,249.04 L381.08,250.06 L382.20,250.49 L382.59,251.31 L381.60,253.08 L381.31,254.13 L380.77,254.86 L380.84,255.41 L380.35,256.30 L379.85,256.50 L378.89,258.64 L379.23,259.46 L380.14,259.56 L380.53,260.05 L379.90,262.02 L379.90,273.00 L371.95,273.06 L365.75,273.03 L360.82,273.03 L354.43,272.93 L350.37,272.96 L345.70,273.00 L345.02,272.31 L344.66,270.37 L344.74,269.02 L344.08,267.97 L344.55,266.98 L344.89,265.37 L345.60,263.66 L345.91,262.15 L346.43,257.06 L346.35,256.37 L346.82,254.13 L347.00,251.04 L346.74,249.34 L346.98,248.32 L348.88,247.43 L349.71,248.12 L350.47,247.96 Z"/>
<path id="US-PA" data-code="PA" data-name="Pennsylvania" d="M557.29,271.48 L557.29,273.00 L578.25,273.00 L578.77,273.82 L579.14,273.78 L579.71,274.47 L579.61,275.36 L580.47,276.38 L581.20,276.41 L581.41,276.84 L580.78,277.27 L580.52,277.92 L579.32,279.17 L579.71,279.80 L578.98,280.85 L579.03,281.54 L579.63,281.74 L579.69,282.49 L581.04,283.71 L580.81,284.23 L579.35,285.22 L579.27,285.68 L577.99,286.17 L577.03,286.01 L576.22,286.67 L558.65,286.67 L553.69,286.67 L553.69,281.18 L553.69,273.13 L553.69,273.13 L554.58,272.80 L557.29,271.39 L557.29,271.48 Z"/>
<path id="US-RI" data-code="RI" data-name="Rhode Island" d="M598.07,274.93 L598.43,276.02 L597.49,276.15 L598.07,274.93 Z M596.48,272.90 L597.18,272.90 L597.44,274.31 L597.94,274.74 L597.36,274.64 L596.87,275.53 L596.71,276.77 L594.91,277.07 L595.20,276.51 L595.20,272.96 L596.48,272.90 Z"/>
<path id="US-SC" data-code="SC" data-name="South Carolina" d="M543.00,314.60 L544.02,314.04 L545.32,313.81 L551.19,314.11 L551.22,314.73 L551.71,314.37 L552.44,315.39 L552.36,316.08 L557.71,316.18 L563.10,321.89 L562.27,322.19 L561.23,323.18 L560.21,324.72 L560.03,325.97 L559.22,326.95 L558.15,326.95 L557.92,327.68 L556.80,328.47 L556.17,329.32 L555.18,329.68 L554.11,330.60 L554.01,331.03 L553.02,331.52 L551.95,332.80 L550.85,332.28 L550.83,331.26 L550.07,329.65 L549.42,329.22 L549.37,327.94 L549.05,326.95 L547.78,326.03 L546.94,324.92 L546.99,324.23 L545.72,323.21 L545.09,322.09 L543.99,321.34 L543.24,320.09 L543.08,319.40 L542.35,318.08 L541.86,318.18 L540.27,316.90 L540.35,316.27 L541.36,314.99 L543.00,314.60 Z"/>
<path id="US-SD" data-code="SD" data-name="South Dakota" d="M441.69,249.34 L477.33,249.40 L477.23,250.09 L475.92,251.37 L476.76,252.52 L477.85,253.21 L477.85,263.99 L477.23,264.12 L477.49,264.62 L477.33,265.67 L477.93,266.26 L477.57,266.69 L477.41,267.87 L476.99,268.76 L477.88,270.07 L477.02,269.91 L476.71,269.05 L474.20,267.94 L471.96,267.94 L471.28,267.80 L470.71,268.40 L468.26,267.31 L468.10,267.01 L453.22,267.01 L445.13,266.98 L441.67,266.98 L441.64,255.02 L441.72,255.02 L441.69,249.34 Z"/>
<path id="US-TN" data-code="TN" data-name="Tennessee" d="M517.82,306.02 L517.74,304.94 L518.78,305.20 L524.78,305.07 L530.05,305.30 L530.99,305.23 L534.53,305.43 L538.60,305.50 L538.68,305.40 L548.17,305.46 L547.96,306.88 L547.07,307.17 L546.47,308.29 L545.61,308.06 L543.73,309.21 L543.60,308.62 L542.95,309.01 L541.91,310.36 L540.68,310.69 L539.51,311.61 L538.21,311.64 L537.03,312.53 L536.67,313.51 L535.73,313.65 L535.60,315.06 L529.47,315.09 L521.13,314.99 L517.12,315.03 L515.84,315.03 L507.08,315.03 L507.55,314.86 L508.02,313.81 L507.94,312.36 L508.83,311.38 L508.98,310.46 L509.69,310.13 L509.84,309.01 L510.78,307.50 L510.75,306.02 L511.02,306.02 L511.33,306.02 L511.90,305.96 L517.82,306.02 Z"/>
<path id="US-TX" data-code="TX" data-name="Texas" d="M452.33,305.99 L460.96,305.99 L460.96,317.62 L461.32,317.56 L462.39,318.71 L462.97,318.51 L464.48,318.57 L464.82,319.73 L465.78,319.66 L466.83,320.19 L467.76,320.12 L468.15,320.61 L468.75,320.05 L469.67,320.32 L470.06,320.97 L470.74,321.07 L471.10,321.89 L471.94,321.11 L473.06,321.57 L473.47,322.06 L474.02,321.83 L474.41,322.58 L475.61,321.24 L475.95,321.93 L476.99,321.93 L477.98,322.35 L478.35,322.88 L479.29,321.96 L480.30,321.66 L480.77,321.99 L481.89,321.40 L482.15,321.73 L483.38,321.76 L483.69,321.24 L484.92,321.83 L485.39,322.52 L487.21,323.18 L487.71,323.73 L488.65,323.44 L489.32,323.70 L489.32,326.89 L489.32,333.03 L490.37,334.35 L490.39,335.66 L491.70,338.09 L491.77,339.38 L491.28,340.92 L490.81,341.55 L490.97,342.37 L490.63,342.99 L490.99,344.14 L489.87,346.28 L490.29,346.87 L489.51,346.90 L487.03,347.72 L486.14,347.26 L485.99,346.28 L485.36,346.97 L484.92,346.80 L484.68,347.66 L485.18,348.02 L485.26,349.14 L484.37,350.32 L482.94,351.80 L480.07,353.38 L479.78,353.11 L478.92,353.51 L478.90,353.15 L477.72,353.41 L477.18,352.65 L476.84,352.82 L478.09,354.36 L477.18,354.85 L476.31,354.56 L476.18,355.64 L475.12,356.76 L474.02,358.83 L473.32,361.00 L472.80,360.83 L472.66,361.62 L473.21,361.43 L472.95,363.00 L472.59,363.07 L472.56,363.96 L473.00,364.45 L473.13,366.26 L473.66,366.88 L473.79,368.03 L474.20,369.05 L472.74,369.67 L472.14,368.89 L471.02,368.59 L469.54,368.66 L468.26,367.67 L467.29,367.57 L466.56,366.78 L465.57,366.52 L464.90,365.76 L464.45,363.96 L463.59,362.87 L463.70,361.95 L463.31,360.97 L463.44,360.11 L462.84,359.16 L462.34,359.06 L461.53,358.21 L461.27,357.12 L460.57,356.14 L459.55,355.31 L459.06,353.51 L458.59,353.01 L457.96,351.57 L457.75,350.38 L457.15,349.53 L456.14,348.77 L455.90,348.25 L454.96,347.79 L454.23,346.47 L452.15,346.18 L450.90,346.24 L449.83,345.78 L449.59,346.41 L448.45,346.61 L447.58,347.85 L447.06,349.86 L446.78,349.89 L446.12,351.08 L445.34,351.11 L444.17,350.19 L441.22,348.71 L440.65,347.92 L439.50,347.16 L438.69,345.46 L438.64,343.91 L437.83,342.66 L437.65,341.58 L437.13,340.89 L435.28,339.87 L434.29,338.49 L433.48,338.00 L432.62,336.81 L431.42,336.19 L430.59,334.61 L429.88,334.28 L429.34,333.59 L429.47,333.00 L446.36,333.00 L446.36,326.99 L446.46,320.91 L446.49,305.99 L446.67,305.99 L452.33,305.99 Z"/>
<path id="US-UT" data-code="UT" data-name="Utah" d="M403.06,273.03 L408.37,273.00 L408.37,279.01 L417.89,279.01 L417.86,290.25 L417.84,295.34 L417.92,296.00 L417.92,303.00 L410.98,302.97 L394.09,303.00 L394.11,273.03 L403.06,273.03 Z"/>
<path id="US-VT" data-code="VT" data-name="Vermont" d="M596.61,254.92 L596.66,255.51 L596.01,256.50 L596.45,257.49 L595.67,258.50 L594.08,259.06 L594.10,260.54 L593.69,261.03 L593.27,262.38 L592.43,263.56 L592.07,266.09 L592.12,266.95 L591.70,267.28 L591.65,268.17 L592.07,268.63 L588.21,268.53 L588.16,268.00 L588.32,263.86 L587.56,262.87 L587.82,262.38 L587.40,260.74 L587.95,259.52 L588.08,258.37 L587.64,257.29 L587.90,256.17 L587.85,254.92 L592.77,254.99 L596.61,254.92 Z"/>
<path id="US-VA" data-code="VA" data-name="Virginia" d="M578.07,296.92 L578.80,296.82 L578.17,297.84 L577.52,298.20 L577.13,299.58 L576.14,301.82 L575.33,302.28 L575.07,301.45 L575.49,299.61 L576.77,297.28 L578.07,296.92 Z M575.12,297.28 L575.23,297.28 L574.99,297.28 L575.12,297.28 Z M564.02,288.21 L566.49,290.22 L567.02,289.07 L567.75,289.16 L568.27,289.66 L568.27,290.54 L569.26,290.84 L569.88,291.40 L570.25,292.25 L569.83,293.21 L569.26,293.47 L568.89,294.32 L569.10,294.95 L570.38,294.75 L570.61,295.70 L572.28,296.10 L572.75,296.85 L574.08,297.67 L573.48,299.35 L574.03,300.67 L573.38,301.29 L573.30,302.05 L573.90,302.51 L573.25,303.23 L572.26,302.28 L572.02,302.60 L572.88,303.29 L575.23,303.46 L575.83,305.69 L558.49,305.76 L554.76,305.73 L551.50,305.63 L548.17,305.46 L538.68,305.40 L541.23,304.54 L541.54,303.89 L542.46,303.66 L542.51,303.13 L543.21,302.74 L543.21,302.28 L544.96,301.39 L546.78,299.78 L546.71,300.27 L547.36,301.29 L548.17,301.78 L548.77,301.75 L549.68,300.96 L550.33,301.59 L551.56,301.26 L553.72,300.11 L553.90,300.47 L554.74,299.94 L554.76,298.86 L555.28,297.90 L556.17,297.02 L556.54,295.93 L557.47,294.82 L557.84,293.44 L558.65,294.26 L559.43,294.52 L559.92,294.03 L560.94,291.89 L561.54,292.42 L563.76,289.99 L564.02,288.21 Z"/>
<path id="US-WA" data-code="WA" data-name="Washington" d="M379.88,231.00 L379.83,238.43 L379.85,246.44 L379.77,246.94 L380.40,247.99 L380.43,249.04 L370.57,249.01 L369.92,249.40 L368.02,249.53 L365.93,250.06 L364.76,250.65 L363.35,250.81 L362.72,250.52 L360.12,251.37 L359.96,250.98 L358.45,250.65 L357.14,250.75 L355.06,251.70 L352.61,251.04 L352.37,249.24 L351.93,248.51 L350.91,247.89 L350.47,247.96 L349.71,248.12 L348.88,247.43 L348.02,247.20 L347.32,247.56 L346.40,247.04 L346.59,246.21 L347.21,245.79 L346.25,244.54 L345.60,241.28 L345.20,240.86 L344.68,238.56 L343.74,237.67 L343.35,235.89 L343.87,234.71 L344.84,235.27 L346.79,236.03 L348.12,235.99 L349.45,236.29 L350.71,235.99 L351.30,236.52 L352.43,236.49 L353.21,237.80 L353.78,237.70 L353.89,239.48 L354.22,241.09 L354.69,240.92 L354.22,239.54 L354.36,238.20 L355.14,236.82 L354.51,236.26 L354.46,235.27 L353.99,234.19 L354.22,233.40 L353.91,232.48 L353.16,232.35 L352.45,231.66 L352.63,231.00 L379.88,231.00 Z M352.82,235.14 L353.44,234.88 L353.34,236.09 L352.58,235.63 L352.82,235.14 Z M351.36,233.50 L351.88,232.71 L352.58,233.66 L352.37,234.48 L351.28,234.25 L351.36,233.50 Z"/>
<path id="US-WV" data-code="WV" data-name="West Virginia" d="M553.69,281.18 L553.69,286.67 L558.65,286.67 L558.59,289.76 L559.53,289.20 L560.47,288.18 L561.10,288.37 L562.04,287.49 L563.44,287.91 L563.63,287.26 L564.41,287.29 L564.85,286.83 L565.66,287.39 L566.47,287.39 L567.02,289.07 L566.49,290.22 L564.02,288.21 L563.76,289.99 L561.54,292.42 L560.94,291.89 L559.92,294.03 L559.43,294.52 L558.65,294.26 L557.84,293.44 L557.47,294.82 L556.54,295.93 L556.17,297.02 L555.28,297.90 L554.76,298.86 L554.74,299.94 L553.90,300.47 L553.72,300.11 L551.56,301.26 L550.33,301.59 L549.68,300.96 L548.77,301.75 L548.17,301.78 L547.36,301.29 L546.71,300.27 L546.78,299.78 L546.16,299.68 L545.25,298.99 L545.01,298.30 L544.26,297.41 L543.68,296.26 L543.81,294.45 L545.06,294.32 L545.25,293.53 L545.82,293.21 L545.59,292.29 L546.47,290.84 L547.18,291.76 L547.67,291.20 L547.54,290.51 L548.14,289.36 L548.69,289.39 L549.24,288.54 L549.76,288.93 L550.36,288.67 L552.21,286.73 L552.65,284.53 L553.30,283.08 L553.33,282.16 L552.99,281.51 L553.69,281.18 Z"/>
<path id="US-WI" data-code="WI" data-name="Wisconsin" d="M506.58,245.59 L507.47,245.95 L507.99,246.97 L512.89,248.19 L514.93,249.07 L515.55,248.88 L517.59,249.47 L518.13,250.22 L519.12,250.95 L519.07,252.00 L518.63,252.82 L519.75,252.95 L519.31,253.80 L520.04,254.43 L519.85,255.15 L518.94,255.28 L518.16,256.66 L517.87,257.62 L518.42,257.78 L519.15,257.16 L519.93,255.97 L520.92,255.51 L521.70,254.00 L522.70,253.67 L522.62,254.46 L521.94,255.18 L520.61,257.68 L520.24,259.06 L520.27,260.05 L519.78,260.38 L519.33,261.72 L519.49,262.87 L519.07,263.63 L518.50,265.50 L518.63,266.98 L519.20,268.30 L519.02,270.04 L514.33,270.04 L505.51,269.94 L505.18,269.18 L503.48,268.49 L503.12,267.54 L502.96,266.19 L503.53,265.47 L502.83,264.88 L502.78,263.99 L502.52,263.30 L502.65,262.35 L501.73,261.03 L500.98,260.80 L499.62,259.79 L499.39,259.00 L497.93,258.34 L497.43,257.68 L496.44,257.58 L495.19,256.50 L495.53,254.30 L495.42,253.28 L495.97,252.36 L495.37,251.60 L494.83,251.54 L494.90,250.68 L496.00,249.40 L497.35,248.91 L497.64,248.55 L497.64,245.00 L498.61,244.50 L498.97,244.77 L500.04,244.83 L503.35,243.81 L504.58,243.26 L504.99,243.68 L504.34,244.47 L505.91,245.49 L506.58,245.59 Z"/>
<path id="US-WY" data-code="WY" data-name="Wyoming" d="M417.73,254.99 L432.80,254.99 L441.64,255.02 L441.67,266.98 L441.67,278.98 L433.69,279.01 L423.26,278.98 L417.89,279.01 L408.37,279.01 L408.37,273.00 L408.37,258.14 L408.35,254.99 L417.73,254.99 Z"/>
</g>
</svg>